<?xml version="1.0" encoding="UTF-8" standalone="no"?>
<!DOCTYPE svg PUBLIC "-//W3C//DTD SVG 1.1//EN" "http://www.w3.org/Graphics/SVG/1.1/DTD/svg11.dtd">
<svg width="100%" height="100%" viewBox="0 0 475 667" version="1.1" xmlns="http://www.w3.org/2000/svg" xmlns:xlink="http://www.w3.org/1999/xlink" xml:space="preserve" xmlns:serif="http://www.serif.com/" style="fill-rule:evenodd;clip-rule:evenodd;">
    <g id="Differenzmenge_1" transform="matrix(0.59897,0,0,1,1656.49,719)">
        <path d="M-2751.81,-52C-2756.21,-52 -2760.71,-52.038 -2765.57,-52.115L-2765.57,-719L-1972.57,-719L-1972.57,-203.551C-2005.43,-205.764 -2035.32,-208.256 -2061.4,-210.959C-2064.28,-211.259 -2067.27,-211.571 -2069.91,-211.849C-2087.69,-213.725 -2106.07,-215.665 -2124.01,-215.665C-2134.26,-215.728 -2144.49,-214.986 -2154.62,-213.447C-2159.74,-212.647 -2164.81,-211.589 -2169.82,-210.276C-2174.95,-208.928 -2179.99,-207.292 -2184.93,-205.376C-2189.52,-203.584 -2194.19,-201.482 -2199.21,-198.951C-2203.68,-196.696 -2208.32,-194.151 -2213.41,-191.165C-2222.86,-185.62 -2232.44,-179.365 -2241.7,-173.325C-2252.01,-166.599 -2262.66,-159.643 -2273.19,-153.633C-2278.86,-150.399 -2284.03,-147.688 -2289.02,-145.347C-2294.19,-142.889 -2299.51,-140.747 -2304.95,-138.934C-2313.31,-136.204 -2321.92,-134.318 -2330.66,-133.304C-2339.27,-132.312 -2347.92,-131.845 -2356.59,-131.904C-2364.95,-131.904 -2373.48,-132.232 -2381.72,-132.55L-2381.74,-132.55C-2389.99,-132.868 -2398.52,-133.196 -2406.91,-133.196C-2414.88,-133.196 -2421.91,-132.896 -2428.4,-132.282C-2437.31,-131.413 -2446.15,-129.954 -2454.87,-127.915C-2463.15,-126.015 -2471.76,-123.59 -2481.18,-120.508C-2498.68,-114.782 -2516.38,-107.597 -2533.5,-100.647L-2533.52,-100.637C-2538.97,-98.427 -2544.59,-96.143 -2550.12,-93.937C-2573.3,-84.683 -2592.56,-77.746 -2610.72,-72.107C-2630.69,-65.773 -2651.09,-60.884 -2671.76,-57.48C-2684.83,-55.424 -2699.16,-53.927 -2714.37,-53.031C-2726.27,-52.34 -2738.51,-52 -2751.81,-52Z" style="fill:url(#_Linear1);fill-rule:nonzero;"/>
        <g id="Pfad_494" transform="matrix(0.768895,0,0,0.450628,-5632,-761.678)">
            <path d="M4776.31,543.341C4766.26,793.98 4093.6,648.626 4170.1,868.654C4240.82,1072.05 4692.73,915.699 4646.68,1062.9C4593.82,1231.84 4147.08,971.471 3933.96,1028.47C3872.41,1044.94 3713.73,1118.68 3753.74,1257.41C3828.45,1514.85 4234.04,1308.78 4426.13,1290.11" style="fill:none;fill-rule:nonzero;stroke:white;stroke-width:4px;"/>
        </g>
        <g id="Pfad_4941" serif:id="Pfad_494">
        </g>
    </g>
    <defs>
        <linearGradient id="_Linear1" x1="0" y1="0" x2="1" y2="0" gradientUnits="userSpaceOnUse" gradientTransform="matrix(-1085.54,-480.052,801.462,-650.204,-1846.28,-167.697)"><stop offset="0" style="stop-color:rgb(55,142,254);stop-opacity:1"/><stop offset="0.54" style="stop-color:rgb(86,162,188);stop-opacity:1"/><stop offset="1" style="stop-color:rgb(98,170,162);stop-opacity:1"/></linearGradient>
    </defs>
</svg>
