<?xml version="1.0" encoding="UTF-8" standalone="no"?>
<!DOCTYPE svg PUBLIC "-//W3C//DTD SVG 1.1//EN" "http://www.w3.org/Graphics/SVG/1.1/DTD/svg11.dtd">
<svg width="100%" height="100%" viewBox="0 0 1921 933" version="1.1" xmlns="http://www.w3.org/2000/svg" xmlns:xlink="http://www.w3.org/1999/xlink" xml:space="preserve" xmlns:serif="http://www.serif.com/" style="fill-rule:evenodd;clip-rule:evenodd;">
    <g id="Differenzmenge_1" transform="matrix(1,0,0,1,2765.57,719)">
        <path d="M-2732.26,213.464C-2742.92,213.464 -2753.81,213.411 -2765.57,213.303L-2765.57,-719L-845.567,-719L-845.567,1.6C-925.133,-1.5 -997.5,-4.982 -1060.66,-8.761C-1067.63,-9.175 -1074.87,-9.616 -1081.25,-10.006C-1124.29,-12.628 -1168.8,-15.34 -1212.23,-15.34C-1239.12,-15.34 -1263.36,-14.326 -1286.34,-12.24C-1298.92,-11.098 -1311.3,-9.607 -1323.14,-7.808C-1335.6,-5.908 -1347.91,-3.608 -1359.73,-0.959C-1370.83,1.546 -1382.14,4.485 -1394.29,8.023C-1405.11,11.176 -1416.36,14.736 -1428.68,18.907C-1451.57,26.658 -1474.76,35.397 -1497.18,43.847C-1522.13,53.247 -1547.93,62.974 -1573.43,71.376C-1587.14,75.897 -1599.68,79.686 -1611.75,82.96C-1625.3,86.633 -1637.91,89.565 -1650.32,91.925C-1670.89,95.784 -1691.68,98.412 -1712.58,99.796C-1731.23,101.112 -1751.76,101.751 -1775.35,101.751C-1795.6,101.751 -1816.25,101.292 -1836.2,100.851L-1836.25,100.851C-1856.22,100.407 -1876.87,99.951 -1897.19,99.951C-1916.48,99.951 -1933.5,100.369 -1949.23,101.228C-1969.83,102.351 -1990.79,104.348 -2013.31,107.333C-2033.36,109.992 -2054.2,113.379 -2077.01,117.688C-2119.39,125.688 -2162.24,135.738 -2203.68,145.453L-2203.74,145.467C-2216.92,148.556 -2230.55,151.75 -2243.94,154.828C-2300.07,167.765 -2346.69,177.463 -2390.68,185.346C-2443.56,194.825 -2491.91,201.513 -2538.47,205.794C-2570.1,208.669 -2604.81,210.762 -2641.63,212.014C-2670.41,212.988 -2700.06,213.464 -2732.26,213.464Z" style="fill:url(#_Linear1);fill-rule:nonzero;"/>
        <g id="Pfad_494" transform="matrix(1,0,0,0.978468,-5665.4,-1392.1)">
            <path d="M4610.9,646.578C4642.51,858.503 4093.6,648.626 4170.1,868.654C4240.82,1072.05 4692.73,915.699 4646.68,1062.9C4593.82,1231.84 4147.08,971.471 3933.96,1028.47C3872.41,1044.94 3713.73,1118.68 3753.74,1257.41C3828.45,1514.85 4179.75,1313.94 4371.83,1295.27C4563.92,1276.6 4689.51,1429.25 4689.51,1429.25" style="fill:none;fill-rule:nonzero;stroke:white;stroke-width:4px;"/>
        </g>
    </g>
    <defs>
        <linearGradient id="_Linear1" x1="0" y1="0" x2="1" y2="0" gradientUnits="userSpaceOnUse" gradientTransform="matrix(1984.25,-574.35,574.35,1984.25,-2814.93,-118.939)"><stop offset="0" style="stop-color:rgb(55,142,254);stop-opacity:1"/><stop offset="0.55" style="stop-color:rgb(86,162,188);stop-opacity:1"/><stop offset="1" style="stop-color:rgb(98,170,162);stop-opacity:1"/></linearGradient>
    </defs>
</svg>
