<svg xmlns="http://www.w3.org/2000/svg" width="416.579" height="401.647" viewBox="0 0 416.579 401.647">
  <g id="surface1" transform="translate(0)">
    <g id="Gruppe_66" data-name="Gruppe 66" transform="translate(0)">
      <path id="Pfad_284" data-name="Pfad 284" d="M228.552,163.266a6.484,6.484,0,0,0-1.292-.259c-1.163-.064-1.049,1.237-1.374,2.043a1.458,1.458,0,0,1-.344.55,5.61,5.61,0,0,0-1.1,1.485,2.169,2.169,0,0,1-2.767-.211,3.136,3.136,0,0,0-1.866-.769c-1.382-.154-2.3.761-1.755,2.188.782,2.056-.3,3.928-.589,5.939a5.616,5.616,0,0,1-.537,1.739l-.074.267a1.937,1.937,0,0,1-1.94,1.284c-1.744.074-2.328.788-3.505,2-1.583.611-2.556,2.479-3.045,4-.267.825-.89,1.02-1.62,1.271a3.741,3.741,0,0,0-1.311.925,1.209,1.209,0,0,0-.848.822c-.167.539-.93,1.076-1.322,1.48a5.56,5.56,0,0,0-.568.885c-.214.431-.912,1.206-1.475.708a3.374,3.374,0,0,1-.732-1.435,1.879,1.879,0,0,0-2.707.2,2.576,2.576,0,0,0-.325,2.667,2.4,2.4,0,0,1-.319,2.3,2.785,2.785,0,0,0-.28,1.248c0,2.307-2.947,4.118-5.051,4.118-1.3,0-1.388-.912-1.3-2.022a2.58,2.58,0,0,0-.624-2.273,7.7,7.7,0,0,0-2.246-1.311c-1.338-.539-2.53-.148-3.907-.148-1.319,0-1.929,1.1-2.323,2.2-.294.83-1.063.911-1.827.594a2.542,2.542,0,0,0-2.022-.788,3.484,3.484,0,0,1-2.2-.83,3.14,3.14,0,0,0-1.663-.376,3.245,3.245,0,0,0-2.4.909c-1.15,1.041-.693,2.952.132,4.028a6.6,6.6,0,0,1,.621,1.432,4.96,4.96,0,0,0,1.216,1.816,5.222,5.222,0,0,1,1.522,3.605c0,.624-.265,1.6-1.094,1.39a1.915,1.915,0,0,0-1.449.4,3.38,3.38,0,0,0-1.472,3.232,3.33,3.33,0,0,0,.986,2.836,3.075,3.075,0,0,1,1.348,3.254,1.825,1.825,0,0,1-2.437.909,10.276,10.276,0,0,1-2.307-1.8,3.737,3.737,0,0,1-1.047-1.226c-.595-1.187-2.154-1.007-3.272-.907-1.152.1-1.8-.521-2.614-1.219a3.168,3.168,0,0,1-.764-1.905,4.731,4.731,0,0,0-2.2-3.167c-.436-.325-.854-.671-1.271-1.02a3.488,3.488,0,0,0-3.018-.38,1.592,1.592,0,0,1-.8.039c-.516-.407.3-1.464.457-1.845.243-.584.577-1.51.187-2.106a3.464,3.464,0,0,0-1.6-1.187,1.109,1.109,0,0,0-1.324,1.073c-.053.547-1.062,1.155-1.5,1.342-1.173.51-1.646-.531-2.091-1.449l-.219-.161a.675.675,0,0,0-.481-.1c-1.041.256-.068,1.6.074,2.1.079.275.179.537.282.8a1.712,1.712,0,0,0,1.137,1.084c.275.275.55.542.843.8a3.166,3.166,0,0,0,1.4.528c.288.373.083.886-.053,1.284a3.9,3.9,0,0,0,.4,2.995,3.557,3.557,0,0,0,1.029,1.055c.745.648.277,2.46-.026,3.179a4.754,4.754,0,0,1-.669,1.19,1.732,1.732,0,0,0,.809,2.87,3.16,3.16,0,0,1,1.446.846c1.012,1.139.208,3.016.1,4.314a3.341,3.341,0,0,1-1.692,2.757,1.584,1.584,0,0,1-1.673.248,3.533,3.533,0,0,1-1.808-2.014c-1.147-1.38-3.095-3.124-4.95-2.2a10.8,10.8,0,0,1-2.408.737l-.309.124c-1.292.521-1.313,2.532-.764,3.6a3.028,3.028,0,0,0,1.153.987c.312.158.158.674-.114.792-1.031.447-1.422-.782-1.816-1.469-1.033-.751-2.075.626-3,1.043a4.308,4.308,0,0,0-1.277.93c-.428.04-.635.367-.936.669a2.5,2.5,0,0,1-1.713.079,1.531,1.531,0,0,0-1.7.315,2.694,2.694,0,0,0-.3,1.985,2.5,2.5,0,0,1-.87,2.469,3.438,3.438,0,0,1-2.045.711c-1.351.111-1.427,1.279-1.152,2.352.076.3.15.6.211.907.2.968-.719,1.012-1.33,1.406-1.157.751.556,1.705,1.042,2.106a3.987,3.987,0,0,0,3.547.79,1.744,1.744,0,0,1,2.016,1.462c0,.853-1.557.526-2.045.48-1.475-.132-2.3.867-2.908,2.083a4.92,4.92,0,0,1-.542.869,2.464,2.464,0,0,0-.4.668c-.426,1.055-1.422,1.451-2.381,1.93a2.6,2.6,0,0,0-.288,2.7,18.88,18.88,0,0,1,.93,2.6,4.858,4.858,0,0,0,.817,1.739c.944,1.16.851,2.712,1.2,4.1.277,1.107-.476,1.8-1.48,2.062-.426.111-1.187.6-.624,1.1a1.617,1.617,0,0,0,.645.33c.722.243.577,1.422.4,2.022a6.9,6.9,0,0,1-.428,1.065c-.367.73-.9.648-1.612.428a3.69,3.69,0,0,0-2.075,0,18.96,18.96,0,0,1-2.2.209,4.025,4.025,0,0,1-2.26-.537,9.3,9.3,0,0,0-1.337-.669,4.244,4.244,0,0,1-1.932-1.927c-.489-1.068-1.39-1.4-2.352-1.953a14.112,14.112,0,0,0-1.522-.885c-.529-.262-1.073-.442-1.221.3-.2,1,.423,1.623,1,2.292.343.727.7,1.446,1.06,2.165a3.208,3.208,0,0,1-.206,2.759c-.354.793.135,1.092.819,1.435a3.861,3.861,0,0,1,1.676,2.017,2.344,2.344,0,0,1-.923,1.818,1.635,1.635,0,0,1-.537.743,2.061,2.061,0,0,0-.56,1c-.14.637-.423.724-1.015.549-1.464-.428-2.979.262-4.425.478a3.023,3.023,0,0,1-2.284-.938,3.535,3.535,0,0,0-3.975-.092,1.482,1.482,0,0,1-.528.346,1.916,1.916,0,0,0-1.388,1.547c-.121,1.3,1.208,2.714,2.03,3.56a5.708,5.708,0,0,1,1.5,3.177,3.811,3.811,0,0,1-.495,1.974,1.715,1.715,0,0,0,.524,2.037,2.3,2.3,0,0,1,.83,1.729c0,1.169.489,1.449,1.668,1.581,1.044.116,1.311.444,1.752,1.351a4.422,4.422,0,0,1,.307,2.8c-.264,1.578.46,2.389,1.65,3.3.716.547,1.755.169,2.506-.079,1.237.164,1.335,1.411,1.855,2.4a3.377,3.377,0,0,1,.434,2.437,2.21,2.21,0,0,0,.394,1.905,3.877,3.877,0,0,1,.576.991,3.722,3.722,0,0,0,2.054.814,2.939,2.939,0,0,1,1.058.4,1.668,1.668,0,0,0,.4.275c.327.055.748.679.949.943a4.806,4.806,0,0,1,.857,2.659c0,1.076-1.319,1.33-1.941,1.951a7.876,7.876,0,0,1-1.218.877c-1.07.754-.989,1.962-.989,3.151a4.932,4.932,0,0,1-.738,2.207,7.409,7.409,0,0,0-.545,1.372c-.169.959.577,1.773.88,2.629a2.014,2.014,0,0,0,1.414.775c1.06.193.941-1.139.74-1.761a3.144,3.144,0,0,1,.121-2.64c.365-1.324,1.6-1.792,2.807-2.175l.587.566c.581.56,1.752,1.055,2.366.212a2.648,2.648,0,0,0,.4-1.612c0-.78.315-1.9,1.313-1.4.743.372,1.06,1.493,1.351,2.2.2.476.524.611,1.013.809.83.338.949.84,1.139,1.668a1.276,1.276,0,0,0,1.345.779,4.874,4.874,0,0,1,1.195.167c1.192.555-.18,1.858-.608,2.418-.708.92.14,2.371.465,3.328a5.435,5.435,0,0,0,1.152,1.88,1.274,1.274,0,0,1,0,1.5,1.824,1.824,0,0,0,.235,2.329,7.3,7.3,0,0,0,1.385.97,3.089,3.089,0,0,1,1.242,1.618c.042.428.37.637.671.938.069.4.531.79.777,1.11a4.725,4.725,0,0,1,.447,1.726,3.555,3.555,0,0,0,1.308,2.067,1.421,1.421,0,0,1,.407.549,3.942,3.942,0,0,1,.51,2.073c-.114.455-.629.187-.875.064a2.267,2.267,0,0,1-1.079-1.187c-.3-.714-1.242-1.7-2.117-1.028-1.794,1.38-1.742,4.084-.637,5.881a3.2,3.2,0,0,1,.573,1.786,18.149,18.149,0,0,0,.785,3.4c.109.447-.2.724-.6.843a10.288,10.288,0,0,1-1.861.127,5.671,5.671,0,0,1-1.607-.14,5.77,5.77,0,0,1-.9-.93,11.771,11.771,0,0,0-.8-.893c-.669-.7-2.062-.9-2.178.325a2.564,2.564,0,0,0,.249,1.319,8.383,8.383,0,0,1,.319,1.673,2.5,2.5,0,0,0,3.114,2.458c1.163-.235,1.462.627,1.173,1.56-.637,2.072.711,3.935,1.583,5.735.18,1.269-.637,1.893-1.327,2.82a9.51,9.51,0,0,0-1.382,3.058c-.322,1.039-1.263,1.715-1.9,2.569a7.178,7.178,0,0,0-1.19,3.28,4.289,4.289,0,0,0,.4,3.264,5.215,5.215,0,0,1,.817,2.4,9.106,9.106,0,0,0,.639,2.41,5.264,5.264,0,0,0,1.443,3.518,5.4,5.4,0,0,0,4.221,1.1c.547-.1,1.435.132.973.833-1.156,1.742,1.713,2.2,2.822,2.41a7.613,7.613,0,0,1,1.525.394,5.563,5.563,0,0,0,1.356.33c1.457.524,2.085-.811,3.09-1.578a2.755,2.755,0,0,1,3.163.154c.8.621.857,1.834.959,2.765.478.933,1.332.645,1.985.061a2.506,2.506,0,0,1,1.374-.677c1.084-.18,1.884,1.129,2.543,1.821a4.114,4.114,0,0,1,.674,1.482,15.882,15.882,0,0,0,.674,1.956,6.707,6.707,0,0,1,.244,1.7,1.24,1.24,0,0,1-1.3,1.409c-.878,0-1.5-.764-2.165-1.258a4.844,4.844,0,0,1-1.95-2.667c-.193-.687-.635-1.5-1.459-1.179-.473.185-.721.685-1.02,1.086a2.877,2.877,0,0,1-1.353.952c-.275.277-.558.547-.846.809-1.591,1.461-.592,3.18.727,4.329.909.793,1.747,1.671,2.579,2.54.384.4.962.962,1.583.807a4.9,4.9,0,0,1,2.22.14c.775.23,1.28-.542,1.562-1.108.481-.962,1.412-.283,2.077.085a3.3,3.3,0,0,0,2.242.161c.991-.248,1.443.589,1.52,1.472a2.014,2.014,0,0,0,1.137,1c.89.306,1.12,1.19,1.271,2.014a3.815,3.815,0,0,0,.518,1.364c-.095.346-1.057-.354-1.252-.513a4.022,4.022,0,0,0-2.149-.716c-1-.09-1.174-1.382-.928-2.2.267-.888-.74-1.1-1.3-1.364a1.752,1.752,0,0,0-2.611,1.263c-.159,1.4,1.062,2.408,1.918,3.325.109.212.215.426.32.637a4.976,4.976,0,0,0,.542.872c.745.914-.05,1.639-.941,1.808a4.738,4.738,0,0,1-4.165-1.488,3.878,3.878,0,0,0-2.215-1.039c-1.206-.092-1.869.732-2.619,1.528-.507.542-.97,1.134-.6,1.88a2.891,2.891,0,0,0,1.861,1.485c1.292.179,1.75.909,2.231,2.091a2,2,0,0,0,1.16.991c1.129.523,1.922.024,3.037-.177.769-.137.962.206,1.491.634.663.534-.013,1.546-.05,2.236-.064,1.152,1.382.972,2.006.5.8-.613.6-1.321.249-2.177a6.5,6.5,0,0,1-.1-2.863,4.418,4.418,0,0,0,.455-1.6c.058-.661.116-.809.344-.865.639-.158,1.639.384,2.252.587l.864.206a2.006,2.006,0,0,1,1.56,1.28.7.7,0,0,0,.5.357c.574.14.632-.354.775-.782.172-.507.6-.962.911-.256.367.849.542,2.889-.964,2.368-.653-.227-1.087.814-1.163,1.258a2.675,2.675,0,0,1-.849,1.742c-.951,0-1.575-.6-2.411-.962-.861-.215-2.114.767-1.091,1.549a1.812,1.812,0,0,1,.809,1.62c0,1.531,1.07,2.257,1.926,3.4.722.959,1.766,1.913,3.066,1.493a2.75,2.75,0,0,0,1.451-1.539c.286-.655-.542-1.284-.925-1.694a1.975,1.975,0,0,1-.568-2.083,6.2,6.2,0,0,1,1.438-2.854c1.449,0,1.671,1.363,2.511,2.207a2.335,2.335,0,0,1,.738,1.832c0,.872-.732,1.163-1.457,1.382-.4.122-1.438.579-1.054,1.174a9.641,9.641,0,0,0,2.5,1.955c.41.278.809.574,1.2.88a3.057,3.057,0,0,0,3.108.457c.793-.642,2.543-1.044,3.082.2.415.951-.193,1.813-.351,2.77a4.039,4.039,0,0,0,.856,2.516c.571,1.324-1.456,1.242-2.276,1.292a18.285,18.285,0,0,0-1.9.191c-1.078.179-2.228,1.673-2.69,2.672-.508,1.089-1.07,2.384-.624,3.568a9.408,9.408,0,0,1,.616,2.276,3.924,3.924,0,0,0,1.234,2.585,7.051,7.051,0,0,0,3.8,1.763c1.284.489,2.257-.277,3.132-1.15a8.495,8.495,0,0,0,1.351-2.323,11.975,11.975,0,0,0,.991-5.453c0-.444.1-1.115.7-.835a4.718,4.718,0,0,1,.97.648,4.717,4.717,0,0,0,1.522.819,4.66,4.66,0,0,1,2.469,2.614c.6,1.2,1.387,1.385,2.646,1.385a10.17,10.17,0,0,1,2.516,1.057c1.7.828,3.518.761,5.381.817a1.525,1.525,0,0,1,1.443.64,3.96,3.96,0,0,0,2.213,1.987,5.635,5.635,0,0,1,3.3,1.327,9.791,9.791,0,0,0,6.2,2.669,6.008,6.008,0,0,1,1.834.336l.32.262a4.646,4.646,0,0,0,.742.481c.577.3.976,1.033,1.409,1.517,1.1.27,1.6-.457,1.734-1.462.177-1.287,1.633-.716,2.458-.4,1.472.473,2.617-.283,4.041-.537a3.576,3.576,0,0,0,1.446-1.861c.539-1.345,2.648-3,3.975-1.673a23.431,23.431,0,0,0,2.73,2.061,3.391,3.391,0,0,0,.817.415c.7.7,1.5,1.292,2.26,1.926.909.764,1.718,1.652,2.556,2.49q1.563,1.253,3.043,2.593a6.041,6.041,0,0,0,4.253,1.142,3.058,3.058,0,0,0,2.728-1.406,30.581,30.581,0,0,1,3.809-3.552c.689-.574,1.366.089.83.792-.214.278-.425.556-.637.833-1.292,1.686-.849,3.367-.116,5.154.495,1.2,1.851.326,2.437-.2a3.462,3.462,0,0,1,3.5-.658c1.01.867,1.4,2.606,1.97,3.819a3.846,3.846,0,0,0,3.608.84,2.5,2.5,0,0,1,1.754.336c1.063.513,2.411-.124,3.513-.235a7.368,7.368,0,0,0,4.073-1.639c1.16-.918,1.961-.066,3.24-.066.363,0,.65-.3.907-.523,1.3-.407,2,.537,2.987,1.284,1.079.825,2.971.175,4.134-.233a1.946,1.946,0,0,0,1.184-.779,2.68,2.68,0,0,1,1.7-1.446c1.152-.153,1.8.754,2.733,1.163a2.429,2.429,0,0,0,1.607,0c1-.248,1.845.46,2.7.875a.857.857,0,0,0,1.155-.254,7.432,7.432,0,0,0,.7-2.434c.322-.5.772-1.131,1.427-1.131,1.3,0,.214,1.258.085,1.779-.161.658.407,1.041.83,1.416a9.265,9.265,0,0,0,3.478.889c1.391.105,1.83.989,2.717,1.972a2.431,2.431,0,0,1,.481.75,5.519,5.519,0,0,0,.6,1.237l.124.315c.69,1.7,3.3,1.953,4.84,2.35l.507.388.623.42c.151.1.3.212.442.323a2.29,2.29,0,0,0,.468.267c1.06.4,1.11,1.42,1.285,2.39l.161.248c.671,1.036,1.866.589,2.9.848.925.227.8,1.422.745,2.154a7.576,7.576,0,0,0,1.139,4.586c1.324.964,2.575.386,4.052.29,1.372-.09,1.6,1.56,1.711,2.554.558,1.086,1.805.6,2.434-.154a3.06,3.06,0,0,0-.1-2.284,4,4,0,0,1,.809-3.79,2.174,2.174,0,0,0,.4-2.784c-.531-1.1.51-1.665,1.406-2.112a4.283,4.283,0,0,0,1.739-1.887,4.578,4.578,0,0,1,1.169-2.03,1.853,1.853,0,0,0,.246-2.812c-.3-.326-.587-.661-.875-1a3.905,3.905,0,0,1,.267-3.2c.426-1.037,1.715-.449,2.418-.188a3.731,3.731,0,0,1,1.311.925,1.236,1.236,0,0,1,.556.367,4.158,4.158,0,0,0,1.451.7,4.542,4.542,0,0,0,2.7-1,7.05,7.05,0,0,0,2.281-3.547,27.715,27.715,0,0,0,2.513-3.05,9.508,9.508,0,0,0,1.769-1.633l.322-.254c.175-.14.449-.367.611-.5.642-.558.238-1.371-.011-2.024-.288-.947.753-1.771,1.144-2.569a1.677,1.677,0,0,1,2.149-.925,5.169,5.169,0,0,0,2.276,0,9.225,9.225,0,0,1,3.211,0,3.849,3.849,0,0,0,2.849-.534c.729-.323,1.01-1.393,1.215-2.094.338-1.147-.193-2.342-.4-3.476a13.9,13.9,0,0,0-.463-1.755,4.784,4.784,0,0,1,.269-1.829c.159-.647-.56-1.551-.814-2.136-.375-.872.585-.518.941-.227a2.007,2.007,0,0,0,.677.378c.148.185.3.367.447.552.053.835.769,1.4,1.285,2.019a4.852,4.852,0,0,0,3.779,1.988,21.357,21.357,0,0,1,3.928.695,5.778,5.778,0,0,1,.939.27,3.077,3.077,0,0,0,1.079.053,5.058,5.058,0,0,1,2.054.376,10.97,10.97,0,0,0,5.418.5,7.5,7.5,0,0,1,3.883.143c.793.219,1.532-.275,2.284-.476.579-.154,1.1.645,1.446.988.938.655,2.048.476,3.119.674a2.125,2.125,0,0,0,.88.024c.4-.2-.061-.875-.238-1.068-.248-.264-.491-.534-.738-.8-.552-.61-1.351-1.871-.468-2.514.909-.66,2.686-.193,3.55.417,1.453,1.029,3.476,1.119,5.2,1.131a6.523,6.523,0,0,1,4.348,1.6l.2.074a4.03,4.03,0,0,0,.55.148,2.576,2.576,0,0,1,.87.394,5.389,5.389,0,0,0,1.5.589l.2.148a4.917,4.917,0,0,1,1.158,1.506,1.015,1.015,0,0,0,1.4.359,3.06,3.06,0,0,0,1.018-2.043c.143-.785,1.382-.968,2.03-1.155a4.882,4.882,0,0,0,1.321-.8c.893-.595,2.366-.338,3.307-.148a10.973,10.973,0,0,0,3.748-.817,2.36,2.36,0,0,1,2.664-.589,6.545,6.545,0,0,0,2.823.267,3.572,3.572,0,0,1,4.052,1.861c.788.785,1.935.544,2.907.348a5.552,5.552,0,0,1,1.271.135,14.256,14.256,0,0,0,4.615-.2,9.472,9.472,0,0,0,1.623-.336,4.246,4.246,0,0,1,1.356.214,3.76,3.76,0,0,0,2.572.143c.978-.452.861-1.692.861-2.593a12.657,12.657,0,0,1,1.7-5.8c.547-1.029-.352-1.549-1.039-2.078-1.076-.824-2.551-.782-3.825-.991a2.893,2.893,0,0,1-1.8-1.084,6.585,6.585,0,0,0-2.288-1c-1.058-.3-1.658-1.826-2.094-2.7l-.236-.2c-.756-.629-1.477.055-2.109.534a1.6,1.6,0,0,1-2.091-.177c-.777-1.062,1.084-1.451,1.79-1.546a2.9,2.9,0,0,0,2.3-1.342,14.3,14.3,0,0,1,.93-1.15c.767-.833,2.109.174,2.855.547a7.193,7.193,0,0,0,1.234.495c.317.319.639.626.97.928a2.619,2.619,0,0,0,3.3.129,3.191,3.191,0,0,1,2.723-.412,5.131,5.131,0,0,1,1.607.925,1.988,1.988,0,0,0,1.61.227c1.179-.434,1.9-1.893,2.743-2.733a3.961,3.961,0,0,1,.564-.428c1.191-.915,2.669-.978,4.115-1.181.235-.1.468-.2.7-.291l1.337-1.34a3.386,3.386,0,0,0,.518-3.182,4,4,0,0,1-.6-.814c-.177-.357.494-.214.782-.23a3.02,3.02,0,0,0,2.508-1.06c.2-.243.391-.481.589-.721a3.462,3.462,0,0,1,1.306-1.126,1.859,1.859,0,0,0,.568-.352,4.124,4.124,0,0,1,2.4-.817,2.332,2.332,0,0,0,2.016-.375,1.617,1.617,0,0,1,.4-.275c.246-.042.526-.367.719-.52a20.233,20.233,0,0,0,3.254-3.039l.262-.1a2.316,2.316,0,0,0,1.451-1.943c0-1.287-1.575-1.512-2.508-1.623a9.908,9.908,0,0,1-1.974-.463,7.193,7.193,0,0,0-2.825-.476,9.821,9.821,0,0,1-1.687-.129,2.494,2.494,0,0,1-.856-.4,5.767,5.767,0,0,0-4.707-1.089,4.9,4.9,0,0,1-2.868-.391,7.794,7.794,0,0,0-2.355.534,4.378,4.378,0,0,1-1.739-.426,9.834,9.834,0,0,1-2.648-.65,3.946,3.946,0,0,1-.865-.61c-1.187-.909-2.223-.1-3.483.283a3.411,3.411,0,0,1-3.016-.542,3.076,3.076,0,0,0-1.94-.462,2.581,2.581,0,0,1-1.991-.537,4.064,4.064,0,0,0-1.15-.775c-.571-.656-1.166-1.271-1.779-1.887l-.143-.2a6.755,6.755,0,0,1-.658-1.324c-.367-.9-1.506-.968-2.368-.814-.756.135-1.041-.518-1.165-1.163a13.775,13.775,0,0,1-.2-2.083,9.933,9.933,0,0,1,.024-1.647,5.142,5.142,0,0,0-.3-2.138,8.713,8.713,0,0,1,.732-4.271,3.4,3.4,0,0,0,.248-2.051,5.808,5.808,0,0,1,.759-3.117,1.461,1.461,0,0,0-.172-1.24,4.41,4.41,0,0,1-.243-2.913c.238-.811,1.507-1.67,2.233-.978a2.132,2.132,0,0,1-.084,2.712,1.466,1.466,0,0,0-.275.4,1.462,1.462,0,0,1-.212.338c-.378.494-.864,1.3-.254,1.739,1,.724,1.639-.692,2.445-1.065a15.424,15.424,0,0,1,1.512-.545,4.654,4.654,0,0,0,1.861-1.94c.4-.608,1.559.3,1.969.5,1.6.294,2.492-1.118,2.648-2.522.137-1.24,1-1.892,1.818-2.743a4.6,4.6,0,0,0,.807-1.863c.156-.695.417-1.2,1.205-1.2,1.094,0,1.2.959,1.113,1.842-.1,1.009.483,2.276,1.723,1.773a2.662,2.662,0,0,0,1.758-2.2c.064-.293.317-.69.677-.566.14.048.277.413.407,1.089a4.081,4.081,0,0,0,.455,1.337,1.516,1.516,0,0,1,.275.4c.079.46.869,1.068,1.205,1.4.539.542,1.988,1.277,2.442.183.317-.767-.71-1.018-1.139-1.367-1.163-.949.246-1.879.986-2.524,1.036-.9,1.475.092,2.395.491a1.107,1.107,0,0,0,1.321-.211c.767-.539.449-2.078.352-2.741a6.014,6.014,0,0,1,.468-3.748,5.831,5.831,0,0,0,.547-1.739l.256-.521c.394-.814.143-1.3-.208-2.088-.671-1.514-2.178-1.837-3.444-2.717a2.467,2.467,0,0,1-.645-2.9c.634-1.689.494-3.623.685-5.4a3.154,3.154,0,0,1,.333-.748,3.121,3.121,0,0,0,.409-2.746c-.771-2.9.732-5.857,1.382-8.683.254-1.2-.457-2.435-.936-3.508a8.54,8.54,0,0,1-.8-5.247,7,7,0,0,0-1.507-5.6,6.487,6.487,0,0,1-1.345-1.89,4.8,4.8,0,0,0-1-1.42c-.145-.83-1.723-.9-2.368-1.091a17.909,17.909,0,0,0-4.055-.66c-.277-.09-.555-.18-.83-.267l-.32-.262a3.869,3.869,0,0,0-.6-.409,12.946,12.946,0,0,0-2.826-1.351l-.5-.315a3.092,3.092,0,0,1-1.51-2.546,5.755,5.755,0,0,0-1.747-3.375,6.815,6.815,0,0,1-1.6-3.132,8.421,8.421,0,0,0-1.049-1.987,1.9,1.9,0,0,1-.412-1.792,3.149,3.149,0,0,1,2.479-2.1c1.7-.258,2.466-1.554,2.958-3.087.254-.8.618-1.009,1.448-1.036a9.912,9.912,0,0,1,1.565.1,2.532,2.532,0,0,1,1.919,1.34,10.312,10.312,0,0,0,1.612,1.612,18.586,18.586,0,0,1,2.075,2.075,13.337,13.337,0,0,0,1.739,1.6c.471.388.891.828,1.324,1.258a2.47,2.47,0,0,0,1.411.677,4.294,4.294,0,0,1,1.219.378,2.7,2.7,0,0,1,.571.936c.277.859,1.388,1.226,2.165,1.5a3.95,3.95,0,0,1,1.16.843,5.582,5.582,0,0,0,1.263.643l.6.6a7.646,7.646,0,0,1,1.039,1.56c1.123,1.837,3.372,1.356,5.159,1.974a5.062,5.062,0,0,1,.758.338c1.6.925,2.6-.777,3.372-1.893.587-1.176,1.9-1.522,3.14-1.736.857-.151,1.166.407,1.57,1.012a4.272,4.272,0,0,0,3.561,2.545,9.621,9.621,0,0,0,3.153-.93,14.454,14.454,0,0,0,1.34-.541c1.3-.637,2.254.328,3.451.679a2.194,2.194,0,0,0,2.36-.495,10.129,10.129,0,0,0,1.089-1.377,4.011,4.011,0,0,1,1.427-.806c.925-.376,1.417-1.832,1.752-2.688a3.476,3.476,0,0,1,.854-1.189c.082-.153.158-.307.227-.465.227-.545.981-1.01,1.406-1.436.838-1.086,1.2-3.084.187-4.194a10.354,10.354,0,0,0-3.01-2.349,6.97,6.97,0,0,1-1.19-.8,6.413,6.413,0,0,1-1.686-.943,2.775,2.775,0,0,0-.563-.373c-1.3-.608-1.242-2.461-1.66-3.65a4.611,4.611,0,0,1-.521-1.491,3.615,3.615,0,0,0-1.065-2.289,7.692,7.692,0,0,1-2.281-3.111c-.708-1.771-3.14-2.866-4.9-2.866a5.085,5.085,0,0,1-1.338-.2,3.472,3.472,0,0,0-3.209.495c-.457.423-.46,1.324-.558,1.905l-1.058.1c-.8-.4-1.76.69-2.037,1.342-.733,1.737-2.8,2.382-4.563,2.382-.893,0-.98-.872-.679-1.472a10.667,10.667,0,0,0,.819-2.194c.315-1.264-.721-1.9-1.614-2.49a3.054,3.054,0,0,0-3.753.341,3.039,3.039,0,0,1-2.284.66,6.9,6.9,0,0,0-2.514.455,1.3,1.3,0,0,1-1.192-.732,4.924,4.924,0,0,0-3.386-.19,5.227,5.227,0,0,1-2.395-.528,4.949,4.949,0,0,0-1.353-.42,7.49,7.49,0,0,0-2.527-.851,7.575,7.575,0,0,1-1.221-.355,7.5,7.5,0,0,0-2.809-.655c-.489-.135-.981-.267-1.472-.4l-.333-.2a20.27,20.27,0,0,1-1.874-1.38,14.522,14.522,0,0,1-1.966-1.586c-.516-.256-1.012-.534-1.512-.822a8.3,8.3,0,0,1-1.274-2.183c-.143-.172-.291-.346-.434-.521-1.015-.9-1.612-.28-2.4.595a.761.761,0,0,1-1.062-.016,1.936,1.936,0,0,1-.235-1.65,27.053,27.053,0,0,0,.269-3.9,5.883,5.883,0,0,1,.907-3.008,1.6,1.6,0,0,0,.3-2.4,3.094,3.094,0,0,1-.677-2.207,4.094,4.094,0,0,0-.283-1.678,5.237,5.237,0,0,1-.52-1.869,3.21,3.21,0,0,0-.656-1.393c-.124-.592-.267-1.179-.415-1.766,0-1.057,1.013-2.3,1.6-3.192.508-.767.677-2.043-.41-2.429a3.528,3.528,0,0,0-1.337-.8l-.2-.2a4.115,4.115,0,0,0-.4-.359,2.04,2.04,0,0,1-.457-1.044,7.635,7.635,0,0,0-2.075-5.373c-1.047-1.02-1.123-2.067-1.271-3.46-.1-.267-.188-.537-.283-.8-.248-.621-.51-1.231-.775-1.845a18.478,18.478,0,0,1-.415-5.315,2.828,2.828,0,0,0-2.289-2.73,14.586,14.586,0,0,0-1.855.15c-1.081-.325-1.7.756-2.294,1.47a6.853,6.853,0,0,0-1.324,2.263,2.97,2.97,0,0,1-.788,1.058l-.074.2c-.206.56-.412,1.123-.6,1.689a3.559,3.559,0,0,1-.8,1.244,8.513,8.513,0,0,0-1.478,2.77,1.931,1.931,0,0,1-2.022.735,7.156,7.156,0,0,0-2.382.32c-1.287.061-1.987-.753-2.838-1.6a8.206,8.206,0,0,0-2.889-2.307,4.982,4.982,0,0,0-2.146-.756c-1.068,0-1.277.489-1.517,1.378-.275,1.025-1.073.734-1.665.092a3.053,3.053,0,0,1-.323-2.64c.185-.976-.119-1.988-1.3-1.639-.365.106-.727.2-1.1.275a2.46,2.46,0,0,0-1.482.725c-.254.343-.513.681-.8,1-.574.65-1.353-.558-1.9-.8-1.538-.669-3.256.463-4.7.79a2.433,2.433,0,0,0-1.055.618c-.706.687-1.025.352-1.329-.407a3.089,3.089,0,0,1,.135-1.018c.5-1.491-.894-3.156-1.874-4.136a1.709,1.709,0,0,0-2.255-.341,2.192,2.192,0,0,0-.039,3.111,2.688,2.688,0,0,1,.589,3.035,5.934,5.934,0,0,1-1.56,1.7c-1.023.923-2.292-.914-2.593-1.855-.2-.6-.637-1.5-1.435-1.229a2.3,2.3,0,0,0-1.129,1.322c-.417.872-1.023,2.405-.682,3.38.352,1.015,1.126,1.16,2.006,1.581a3.57,3.57,0,0,1,2.167,2.958,6.678,6.678,0,0,0,.637,2.186c.294.536.611,1.649-.19,1.979a2.5,2.5,0,0,1-1.53.037c-.489-.143-1.226.3-1.692.465-.869.3-1.913-.734-2.614-1.211-1-.763-2.085-.706-3.317-.788a12.924,12.924,0,0,0-4.107-.193,4.965,4.965,0,0,1-3.067-1.147,5.986,5.986,0,0,0-1.136-.6,11.56,11.56,0,0,1-1.46-.721l-.348-.146c-.545-.225-.6-.8-.6-1.324,0-1.15-.642-1.327-1.625-1.023a7.593,7.593,0,0,1-1.131.273,5.33,5.33,0,0,1-2.913-.376c-.975-.632-.732-2.363-1.023-3.357-.42-1.446-2.595-1.284-3.75-1.7-1.031-.367-1.153-1.683-1.343-2.648-.2-.222-.4-.447-.592-.671-.777-.9-.817-2.508.407-2.923.459-.154,1.147-.928.537-1.372-.507-.373-1.292.058-1.755.288a5.431,5.431,0,0,1-1.338.484c-.719.082-1.276-.656-1.808-1.065a7.813,7.813,0,0,1-2.815-2.271,3.7,3.7,0,0,0-2.254-.761,4.1,4.1,0,0,1-1.2-.185c-.172-.135-.344-.273-.516-.41a12.778,12.778,0,0,0-.907-2.276,6.1,6.1,0,0,1-.729-2.241c-.074-1.451-2.241-1.095-3.066-.685-.9.293-1.612-.595-2.3-1.07a4.806,4.806,0,0,0-.8-.524c-.568-.286-.386-1.269-.315-1.784.248-1.752-1.684-1.824-2.622-2.765a5.582,5.582,0,0,0-1.472-1.07,4.8,4.8,0,0,1-.87-.542,5.5,5.5,0,0,0-1.089-.637,6.054,6.054,0,0,1-2.117-2.024,2.8,2.8,0,0,0-1.105-.925,5.928,5.928,0,0,1-.566-.941,4.023,4.023,0,0,0-.336-.6,4.418,4.418,0,0,1-.28-.349c-.587-.759.428-1.815,1.01-2.276.317-.217.627-.439.936-.669.315-.212.618-.431.922-.656.256-.177.5-.359.746-.558a6.764,6.764,0,0,1,1.813-.928,3.127,3.127,0,0,0,2.107-2.842,6.274,6.274,0,0,1,.788-2.818c.47-.5.941-1,1.4-1.5a4.6,4.6,0,0,0-.217-5.624,6.454,6.454,0,0,1-1.066-1.805c-1.049-2.1-.748-4.678-.875-6.975v-.351a1.345,1.345,0,0,0-2.6-.4c-.65,1.726-2.271.724-3.489.367-.75-.217-1.9-.1-2.085.92-.071.4-.713.7-1.065.888-1.342.7-.275,2.418.024,3.42.495,1.644-1.543,2.033-2.7,2.477-.373.143-.875.378-.756.861.1.42.872.269,1.187.193a2.9,2.9,0,0,1,1.662.41c.859.38,2.035,1.361,1.773,2.4-.407,1.621-2.667,1.428-3.859,1.208a10.177,10.177,0,0,0-3.986-.08,3.751,3.751,0,0,0-2.96,2.667c-.4,1.474-1.984,2.471-3.3,3.127a4.815,4.815,0,0,0-2.175,2.048c-.193.386-.732,1-1.2,1-.595,0-1.184-1.065-1.522-1.485a2.043,2.043,0,0,1-.481-.949c-.256-1.853-2.12-3.7-4.036-3-1.546.563-1.062,2.7-1.491,3.981a1.435,1.435,0,0,1-2.358.782,2.506,2.506,0,0,1-.864-2.82c.283-1.536,1.491-1.654,2.834-1.991a1.867,1.867,0,0,0,.774-2.37,3.312,3.312,0,0,0-1.158-1.277c-.4-.92-.827-2.6.1-3.375a4.826,4.826,0,0,1,1.678-.748c1.457-.47,1.74-1.475,1.21-2.812-1.583-1.4-4-1-5.81-.267a13.065,13.065,0,0,0-1.356,3.77c-.679,1.7-2.682,1.477-4.134,2.188a4.643,4.643,0,0,1-1.956.61c-.7,0-.817-.986-.975-1.467-.283-.869-.415-1.316.256-1.972a3.835,3.835,0,0,0,.695-.941,1.857,1.857,0,0,0-.312-2.313c-.208-.212-.417-.415-.645-.608-1.213-1.041-.015-2.64.447-3.763a2.879,2.879,0,0,0,.2-.859c0-1.187-1.847-.774-2.585-1.044-1.047-.386-.648-2.011-.893-2.894s-.836-1.755-1.887-1.4a5.9,5.9,0,0,0-1.618,1.031c-.941.719-2.464.468-3.563.32a2.056,2.056,0,0,1-1.707-2.794,3.82,3.82,0,0,0-.061-1.094,2.966,2.966,0,0,1,.378-2.056,4,4,0,0,0,.206-2.656c-.211-.51-.742-.055-.9.254-.745,1.493-2.944,1.663-4.382,1.374-1.311-.262-2.1.74-2.63,1.811-.166.33-.89,1.229-1.3,1.089-.169-.061-.206-.341-.206-1.628a11.319,11.319,0,0,0-.114-1.919c-.177-.579-1.282-1.242-1.445-.28a3.014,3.014,0,0,0,.031.912c.2,1.631-1.342,1.985-2.6,2.32a1.718,1.718,0,0,1-.783-.6c-.629-.7-1.266-1.393-1.9-2.088-1.211-1.348-3.547-.69-5.115-.415-.986.508-.584,1.623-.156,2.426.383.721.7,2.083-.05,2.672a6.755,6.755,0,0,1-2.2.671,4.221,4.221,0,0,1-1.959.119c-.925,0-1.137.917-1.6,1.48a4.828,4.828,0,0,1-2.413,1.507c-.991.225-.833,1.887-1.041,2.648a4.6,4.6,0,0,1-1.422,1.818c-.846.827-2.321,1.679-3.544,1.068-.677-.338-.78-1.208-.811-1.876a13.057,13.057,0,0,1,.319-3.751,3.165,3.165,0,0,0-.251-2.374c-.936-1.543-2.672-.254-3.981-.254-1.129,0-1.047-1.628-1.076-2.421a9.264,9.264,0,0,0,.058-1.955,3.975,3.975,0,0,1,.363-2.218,3.34,3.34,0,0,1,1.16-.531,2.035,2.035,0,0,0,1.375-2.826c-.384-1.324-1.113-1.692-2.3-2.066Z" transform="translate(-96.77 -163.005)" fill="#5ba2da" fill-rule="evenodd"/>
    </g>
    <path id="Pfad_285" data-name="Pfad 285" d="M444.553,654.881c-1.155-.552-2.265-.248-3.46-.248-1.029,0-3.021.077-3.645,1.131-.166.28-.315.568-.46.861-.042.428-.37.637-.671.939l-.043.148c-.14.462-.753.875-1.086,1.218L434.15,660c-.436.512-.875,1.023-1.324,1.525-.476.534-.9,1.089-1.324,1.66a2.576,2.576,0,0,1-.891.587,3.78,3.78,0,0,0-1.858,3.811,2.06,2.06,0,0,1-.491,1.652,2.74,2.74,0,0,0-.542.949c-.521,1.784.338,3.3.692,4.98l.156.24a2.98,2.98,0,0,0,2.421,1.076,6.064,6.064,0,0,1,1.758.394,4.5,4.5,0,0,1,1.211,2.453c.354,1.676,2.194.936,3.486,1.338a1.646,1.646,0,0,1,.394.2,7.463,7.463,0,0,0,4.1.938,2.884,2.884,0,0,0,1.794-.653c.237-.2.338-.272.4-.282.23-.04.455-.354.624-.507a2.183,2.183,0,0,1,2.857-.045,4.233,4.233,0,0,0,1.747.9c1.491.367,1.776-1.713,2.432-2.5a2.12,2.12,0,0,1,1.232-.809c.471-.108,1.152-.28,1.288-.838.158-.66-.524-1.432-.865-1.945a5.429,5.429,0,0,1-.415-1.1,7.064,7.064,0,0,0-.417-1.121,2.691,2.691,0,0,1,.4-3,5.172,5.172,0,0,0,.917-2.9,17.657,17.657,0,0,1,.47-2.519,1.714,1.714,0,0,0-.452-2.1,9.774,9.774,0,0,0-1.6-.93,4.372,4.372,0,0,1-1.184-.914,11.825,11.825,0,0,1-1.084-.685c-.914-.336-1.535-1.319-2.2-2.006-1.65-1.707-1.816-1.879-2.014-2.074A4.521,4.521,0,0,0,444.553,654.881Z" transform="translate(-203.734 -321.953)" fill="#5ba2da" fill-rule="evenodd"/>
    <g id="Gruppe_67" data-name="Gruppe 67" transform="translate(195.265 386.754)">
      <path id="Pfad_286" data-name="Pfad 286" d="M391.042,734.883a1.91,1.91,0,0,0-1.945-.053,6.885,6.885,0,0,0-.449,1.694,2.769,2.769,0,0,1-1.893,2.517,1.994,1.994,0,0,0-1.393,1.642,5.7,5.7,0,0,0,.507,2.495,1.645,1.645,0,0,1,.114,1.319c-.312,1.264.717,2.509,1.219,3.613l.225.27.222.269a4.682,4.682,0,0,1,.463.312,2.42,2.42,0,0,0,2.891.079,6.11,6.11,0,0,1,2.342-1c1.359-.357,1.866-2.056,2.083-3.232a18.931,18.931,0,0,1,1.531-4.89c.449-.9.595-1.958-.46-2.585a3.07,3.07,0,0,0-2.122-.267C392.906,737.251,392.055,735.658,391.042,734.883Z" transform="translate(-385.352 -734.589)" fill="#5ba2da" fill-rule="evenodd"/>
    </g>
    <path id="Pfad_287" data-name="Pfad 287" d="M326.449,692.15a2.014,2.014,0,0,0-2.49.071,2.157,2.157,0,0,1-1.686.463c-1.765-.222-2.619,1.589-3.777,2.616-.793.7-.965,2.07-1.221,3.058a5.089,5.089,0,0,0,.388,3.761,11.088,11.088,0,0,1,.664,1.53c.557,1.726,2.638.957,3.962,1.092a1.864,1.864,0,0,0,1.776-.7,6.634,6.634,0,0,0,2.242-1.832,5.174,5.174,0,0,0,1.467-2.112v-.534a2.937,2.937,0,0,1,.095-2.191,4.478,4.478,0,0,0,.119-3.8A4.83,4.83,0,0,0,326.449,692.15Z" transform="translate(-168.011 -333.983)" fill="#5ba2da" fill-rule="evenodd"/>
    <path id="Pfad_288" data-name="Pfad 288" d="M489.583,629.668l-.465-.117h-.386a1.574,1.574,0,0,1-.7.132c-1.06,0-1.708.793-2.371,1.488a3.716,3.716,0,0,1-2.659.952,5.476,5.476,0,0,0-2.479.677c-.515.336-.507,1.112-.557,1.649a5.715,5.715,0,0,1-.267,1.258,7.263,7.263,0,0,0-.349,1.351,1.84,1.84,0,0,0,.275,1.926c.352.434.635.941.944,1.406.706,1.6,2.627-.021,3.7-.267a6,6,0,0,0,.906-.27,5.192,5.192,0,0,0,2.564-2.622,12.073,12.073,0,0,1,.536-1.205,10.686,10.686,0,0,0,.751-2.056c.267-.317.529-.637.8-.954C490.622,631.964,491.267,630.085,489.583,629.668Z" transform="translate(-220.433 -313.869)" fill="#5ba2da" fill-rule="evenodd"/>
    <path id="Pfad_289" data-name="Pfad 289" d="M138.033,418.705c-.915-.394-1.417-.09-2.329-.069a2.8,2.8,0,0,0-.949.209,3.742,3.742,0,0,1-1.255.193c-1.084,0-1.335.455-1.375,1.5-.024.674-.066,1.34-.116,2.008a3.4,3.4,0,0,0,.478,2.443,1.313,1.313,0,0,1,.315.608,7.956,7.956,0,0,1,.764.545,15.913,15.913,0,0,1,3.344,1.52c1.252.627,2.506-.867,3.322-1.607a2.134,2.134,0,0,0,.613-2.336,4.975,4.975,0,0,1-.256-2.154,2.071,2.071,0,0,0-1.438-2.442C138.771,419,138.4,418.861,138.033,418.705Z" transform="translate(-108.156 -245.624)" fill="#5ba2da" fill-rule="evenodd"/>
    <path id="Pfad_290" data-name="Pfad 290" d="M383.465,669.424c-1.438-.667-2.8.063-4.229.256a2.7,2.7,0,0,0-1.115.369,1.737,1.737,0,0,1-.4.275c-.415.071-.875.917-1.023,1.255a2.149,2.149,0,0,0,.014,1.652c.912.806.6,1.911.92,2.958.328,1.062,1.718.989,2.562,1.356a2.65,2.65,0,0,0,2.206.219,4.4,4.4,0,0,0,2.916-3.6C385.509,672.391,385.221,670.238,383.465,669.424Z" transform="translate(-187.236 -326.674)" fill="#5ba2da" fill-rule="evenodd"/>
    <path id="Pfad_291" data-name="Pfad 291" d="M525.6,643.916c-1.554-.674-3.272.775-4.617,1.332-1.311.542-.077,2.4.322,3.2.233.465.457.928.671,1.4.338.754.97,1.07,1.6,1.541a3.312,3.312,0,0,1,.541.933c.185.383.487.954,1.008.954a1.334,1.334,0,0,0,1.054-.587,9.55,9.55,0,0,1,1.977-2.1,2.625,2.625,0,0,0,.656-1.673c0-2.027-1.234-3.122-2.529-4.456A1.825,1.825,0,0,0,525.6,643.916Z" transform="translate(-233.754 -318.458)" fill="#5ba2da" fill-rule="evenodd"/>
    <path id="Pfad_292" data-name="Pfad 292" d="M707.51,512.142c-1.071-.814-2.291.172-3.311.452-1.467.4-1.694,2.49-1.858,3.687,0,2.336,2.931,3.071,4.667,3.587,1.155-.119,1.314-1.321,1.721-2.234A4.512,4.512,0,0,0,707.51,512.142Z" transform="translate(-292.59 -275.801)" fill="#5ba2da" fill-rule="evenodd"/>
    <path id="Pfad_293" data-name="Pfad 293" d="M339.716,649.55a2.225,2.225,0,0,0-2.558.37,6.187,6.187,0,0,0-.74,1.187,4.831,4.831,0,0,1-.742,1.144,7.576,7.576,0,0,0-.349,1.34,1.636,1.636,0,0,0,.764,1.631,3.621,3.621,0,0,1,1.047,1.71c.983.714,2.1-.759,2.952-1.187a3.9,3.9,0,0,0,1.972-2.987C342.2,651.326,340.938,650.078,339.716,649.55Z" transform="translate(-173.904 -320.262)" fill="#5ba2da" fill-rule="evenodd"/>
    <path id="Pfad_294" data-name="Pfad 294" d="M507.989,685.943a2.192,2.192,0,0,0-3.008,1.089c-.606,1.391.114,2.271.832,3.352a4.4,4.4,0,0,0,2.014,2.014,1.759,1.759,0,0,0,2.439-1.09c.312-1.043.775-2.611.413-3.681C510.347,686.641,508.854,686.331,507.989,685.943Z" transform="translate(-228.697 -332.031)" fill="#5ba2da" fill-rule="evenodd"/>
    <path id="Pfad_295" data-name="Pfad 295" d="M399.713,716.553l-.88-.285-.462-.04c-.933-.077-1.425.666-1.744,1.414a5.644,5.644,0,0,0-.13,4.19,2.2,2.2,0,0,0,1.7.3,2.247,2.247,0,0,1,1.419.2c1.02.47,2.2.272,2.284-1.01a13.04,13.04,0,0,0-.5-3.56c-.111-.169-.219-.336-.328-.5A3.623,3.623,0,0,0,399.713,716.553Z" transform="translate(-193.579 -341.896)" fill="#5ba2da" fill-rule="evenodd"/>
    <path id="Pfad_296" data-name="Pfad 296" d="M119.692,631.067c-1.037-.79-1.822.56-2.731.917a2.236,2.236,0,0,0-1.237,1.179c-.455,1.05-.928,2.958.449,3.415.986.328,2.361.764,3.368.341,1.171-.494,1.16-1.48,1.277-2.7a9.58,9.58,0,0,0,.058-1.851A2.929,2.929,0,0,0,119.692,631.067Z" transform="translate(-102.749 -314.281)" fill="#5ba2da" fill-rule="evenodd"/>
    <path id="Pfad_297" data-name="Pfad 297" d="M478.511,680.127c-.8-.346-1.459.275-2.17.6a3.377,3.377,0,0,0-1.583,4.055c.473,1.406,2.68,1,3.724.566,1.417-.595,2.709-2.364,1.533-3.806-.2-.251-.267-.352-.283-.457C479.667,680.717,478.8,680.257,478.511,680.127Z" transform="translate(-218.942 -330.191)" fill="#5ba2da" fill-rule="evenodd"/>
    <path id="Pfad_298" data-name="Pfad 298" d="M192.806,654.6c-.928-.708-1.951.267-2.834.624a1.661,1.661,0,0,0-.489,2.619,1.506,1.506,0,0,1,.275.4c.172.984,1.652,1.4,2.424,1.4a2.657,2.657,0,0,0,2.267-1.364C195.085,656.82,193.884,655.425,192.806,654.6Z" transform="translate(-126.612 -321.889)" fill="#5ba2da" fill-rule="evenodd"/>
    <path id="Pfad_299" data-name="Pfad 299" d="M228.863,186.691c-.42-.41-1.073-.873-1.689-.614-1.665.7-.288,3.114-.407,4.441a3.159,3.159,0,0,0,.053,1.115c.33.758,1.348.248,1.9.058a2.562,2.562,0,0,0,.943-3.949,1.074,1.074,0,0,1-.293-.563Z" transform="translate(-138.669 -170.441)" fill="#5ba2da" fill-rule="evenodd"/>
    <path id="Pfad_300" data-name="Pfad 300" d="M356.252,636.713c-.748-.545-2.342-.164-3.129.167a3.846,3.846,0,0,1-1.633.975.882.882,0,0,0-.066,1.7,5.175,5.175,0,0,0,4.8-.484A1.713,1.713,0,0,0,356.252,636.713Z" transform="translate(-178.918 -316.097)" fill="#5ba2da" fill-rule="evenodd"/>
    <path id="Pfad_301" data-name="Pfad 301" d="M190.4,630.75c-.888-.74-1.692.375-2.234.93a4.771,4.771,0,0,0-.944,1.242c-.238.986.9,2.038,1.816,2.125a1.667,1.667,0,0,0,1.732-1.211C191.083,633.1,191.076,631.318,190.4,630.75Z" transform="translate(-126.007 -314.177)" fill="#5ba2da" fill-rule="evenodd"/>
    <path id="Pfad_302" data-name="Pfad 302" d="M600.76,702.649a1.56,1.56,0,0,0-2.242,1.5c-.042.687,0,2.178.944,2.329a2.6,2.6,0,0,0,2.519-1.454A1.929,1.929,0,0,0,600.76,702.649Z" transform="translate(-259.014 -337.454)" fill="#5ba2da" fill-rule="evenodd"/>
    <path id="Pfad_303" data-name="Pfad 303" d="M493.007,616.194a1.84,1.84,0,0,0-2.683,1.818c0,1.752,2.841,1.586,3.631.5C494.585,617.647,493.84,616.577,493.007,616.194Z" transform="translate(-224.031 -309.483)" fill="#5ba2da" fill-rule="evenodd"/>
    <path id="Pfad_304" data-name="Pfad 304" d="M117.755,380.063c-.349-.537-1.38-.277-1.787.035-.539,1.3.423,2.255,1.321,3,.346.288,1.948,1.018,1.948-.016C119.238,382.069,118.294,380.888,117.755,380.063Z" transform="translate(-102.927 -233.093)" fill="#5ba2da" fill-rule="evenodd"/>
    <path id="Pfad_305" data-name="Pfad 305" d="M219.871,199.364c-.695-.618-2.231-.524-2.429.558-.169.918,1.137,2.131,1.906,2.389.438.148.652-.074.967-.327C221.081,201.371,220.434,199.864,219.871,199.364Z" transform="translate(-135.786 -174.638)" fill="#5ba2da" fill-rule="evenodd"/>
    <path id="Pfad_306" data-name="Pfad 306" d="M366.29,174.949c-.6-.5-2.093-.542-2.435.275-.275.664.14,1.242.478,1.805.344.3,1.277,1.052,1.787.661A1.818,1.818,0,0,0,366.29,174.949Z" transform="translate(-183.107 -166.751)" fill="#5ba2da" fill-rule="evenodd"/>
    <path id="Pfad_307" data-name="Pfad 307" d="M665.125,482.621c-.639-.595-1.739-.183-2.429.1-.88.357-1.541,1.292-.547,2.017,1.062.771,1.922-.175,2.669-.854C665.171,483.564,665.567,483.03,665.125,482.621Z" transform="translate(-279.433 -266.259)" fill="#5ba2da" fill-rule="evenodd"/>
    <path id="Pfad_308" data-name="Pfad 308" d="M104.443,296.1c-.671-.6-1.208-.462-1.435.3a2.192,2.192,0,0,0,.664,2.133c.476.373.811.1,1.2-.216C105.595,297.736,104.958,296.56,104.443,296.1Z" transform="translate(-98.765 -205.923)" fill="#5ba2da" fill-rule="evenodd"/>
    <path id="Pfad_309" data-name="Pfad 309" d="M112.983,396.225c-.867-.825-1.9-.051-1.242.967C112.417,398.239,113.929,397.126,112.983,396.225Z" transform="translate(-101.543 -238.308)" fill="#5ba2da" fill-rule="evenodd"/>
    <path id="Pfad_310" data-name="Pfad 310" d="M372.411,189.757a.711.711,0,0,0-1.118-.06c-.314.451-.386,1.533.307,1.7C372.49,191.62,372.707,190.352,372.411,189.757Z" transform="translate(-185.466 -171.557)" fill="#5ba2da" fill-rule="evenodd"/>
    <path id="Pfad_311" data-name="Pfad 311" d="M333.711,494.469s-40.315-22.194-9.438-46.8c0,0,10.028-8.043,35.531-24.584,0,0,11.273-11.022,20.391,0,0,0,9.277,10.551-2.743,24.084,0,0-22.792,27.319-43.741,47.3" transform="translate(-166.572 -245.523)" fill="#0961b9"/>
    <path id="Pfad_312" data-name="Pfad 312" d="M308.1,289.763c-9.957,3.676-22.3-3.862-27.145-12.92-4.974-9.3-3.15-21.787,6.8-27.607,10.078-5.894,25.234-1.531,30.227,9.074,4.647,9.872,1.4,27.287-9.877,31.453" transform="translate(-155.466 -190.034)" fill="#000746"/>
    <path id="Pfad_313" data-name="Pfad 313" d="M377.785,345.965a2.009,2.009,0,0,0,2.006,2.008H389a2.009,2.009,0,0,0,2.009-2.008V322.852A2.01,2.01,0,0,0,389,320.84h-9.211a2.01,2.01,0,0,0-2.006,2.012v23.114" transform="translate(-187.64 -214.043)" fill="#07203d"/>
    <path id="Pfad_314" data-name="Pfad 314" d="M397.332,344.287h8.294v-15.6h-8.294v15.6" transform="translate(-193.961 -216.581)" fill="#030f1f"/>
    <path id="Pfad_315" data-name="Pfad 315" d="M409.59,342.881h8.3V332.668h-8.3v10.213" transform="translate(-197.925 -217.868)" fill="#030f1f"/>
    <path id="Pfad_316" data-name="Pfad 316" d="M244.63,554.887a24.9,24.9,0,0,0-1.277,6.262h-6.325c-1.686-8.014.164-17.439.164-17.439l11.95-.127,1.517,6.37c-1.314.764-5.128,3.1-6.029,4.935" transform="translate(-141.895 -286.07)" fill="#f18f7a"/>
    <path id="Pfad_317" data-name="Pfad 317" d="M253.13,567.1c0-3.753-2.614-4.11-2.614-4.11l-5.048-1.826-1.985-6.275a7.5,7.5,0,0,1,1.985-2.183,9.559,9.559,0,0,0-.315-1.47c-.19-.558-1.562-.616-2.119-.809-.656-.227-1.163-1.282-1.3-1.887a8.647,8.647,0,0,1,.512-4.895l-9.476-.061s1.679,16.506,5.242,23.516H253.13" transform="translate(-140.748 -286.07)" fill="#232831"/>
    <path id="Pfad_318" data-name="Pfad 318" d="M245.088,557.631a.376.376,0,0,1,.235-.452c2.947-1.02,4.293.484,4.348.547a.374.374,0,0,1-.563.492c-.053-.058-1.1-1.181-3.539-.336a.368.368,0,0,1-.474-.225l-.008-.026" transform="translate(-144.726 -290.352)" fill="#fefefe"/>
    <path id="Pfad_319" data-name="Pfad 319" d="M246.334,560.972a.363.363,0,0,1,.208-.428c2.432-1.063,3.825.058,3.883.108a.367.367,0,0,1-.465.568c-.047-.04-1.131-.872-3.124-.005a.369.369,0,0,1-.484-.187l-.018-.055" transform="translate(-145.129 -291.407)" fill="#fefefe"/>
    <path id="Pfad_320" data-name="Pfad 320" d="M246.747,563.751a.384.384,0,0,1,.217-.455c2.54-1.1,3.96-.13,4.018-.085a.381.381,0,0,1,.09.537.39.39,0,0,1-.535.095c-.053-.034-1.162-.756-3.267.162a.383.383,0,0,1-.507-.2l-.016-.056" transform="translate(-145.263 -292.275)" fill="#fefefe"/>
    <path id="Pfad_321" data-name="Pfad 321" d="M247.924,566.356a.372.372,0,0,1,.211-.444c2.529-1.1,3.692.185,3.742.24a.377.377,0,0,1-.037.532.381.381,0,0,1-.528-.032c-.045-.048-.888-.915-2.876-.05a.377.377,0,0,1-.495-.2l-.018-.048" transform="translate(-145.643 -293.146)" fill="#fefefe"/>
    <path id="Pfad_322" data-name="Pfad 322" d="M249.366,569.508a.345.345,0,0,1,.193-.4c2.315-1.012,3.376.169,3.423.219a.345.345,0,0,1-.518.455c-.034-.04-.809-.838-2.629-.045a.343.343,0,0,1-.45-.177l-.018-.05" transform="translate(-146.11 -294.191)" fill="#fefefe"/>
    <g id="Gruppe_68" data-name="Gruppe 68" transform="translate(90.027 257.512)">
      <path id="Pfad_323" data-name="Pfad 323" d="M229.82,543.582a114.582,114.582,0,0,0,5.326,25.091s5.715,1.866,17.03,0c0,0,.135-.219,0-1.575H237.06s-5.377-19.831-5.242-23.516h-1.6" transform="translate(-229.82 -543.582)" fill="#fac7b5"/>
    </g>
    <path id="Pfad_324" data-name="Pfad 324" d="M328.281,267.22a26.765,26.765,0,0,1-5.276,15.972c-4.429,5.979-9.615.159-12.092-4.591-2.918-5.6-4.12-11.687-2.672-17.835,1.288-5.487,6.256-10.908,12.367-8.754,5.659,1.993,7.672,9.851,7.672,15.209" transform="translate(-164.954 -191.63)" fill="#000746"/>
    <path id="Pfad_325" data-name="Pfad 325" d="M353.438,390.089c-6.714,5.471-9.325,1.549-9.325,1.549L324.594,343.8c-5-7.964-2.476-13.538-2.476-13.538,11.471-12.095,20.783,7.1,20.783,7.1s16.665,43.561,10.538,52.722" transform="translate(-169.433 -215.798)" fill="#f18f7a"/>
    <path id="Pfad_326" data-name="Pfad 326" d="M328,324.285s13.971,1.845,18.565,20.191l8.146,21.769s-2.633,12.393-17.225,14.043l-14.117-28s-9.1-22.71,4.631-28" transform="translate(-169.088 -215.157)" fill="#000746"/>
    <path id="Pfad_327" data-name="Pfad 327" d="M402.513,546.5c.43,1.89,1.81,7.43,3.7,9.23,2.281,2.181,11.254,5.685,11.254,5.685l4.586,2.109s2.886,3.555-7.124,3.983c-11.416.487-25.146-6.991-25.146-6.991l4.414-14.6,8.318.587" transform="translate(-191.519 -286.824)" fill="#f18f7a"/>
    <path id="Pfad_328" data-name="Pfad 328" d="M397.415,558.481a3.579,3.579,0,0,0,2.791-.859c.447-.6,1.044-2.252,1.8-2.27a12.274,12.274,0,0,1,1.9.179,9.827,9.827,0,0,0,1.9,3.251c2.281,2.181,11.254,5.685,11.254,5.685l5.578,2.223s1.821,3.254-6.148,4.6c-9.878,1.662-27.965-6.385-27.965-6.385l3.143-8.913a10.965,10.965,0,0,0,5.749,2.493" transform="translate(-191.112 -289.875)" fill="#232831"/>
    <path id="Pfad_329" data-name="Pfad 329" d="M397.415,558.481a3.579,3.579,0,0,0,2.791-.859c.447-.6,1.044-2.252,1.8-2.27a12.274,12.274,0,0,1,1.9.179,9.827,9.827,0,0,0,1.9,3.251c2.281,2.181,11.254,5.685,11.254,5.685l5.578,2.223s1.821,3.254-6.148,4.6c-9.878,1.662-27.965-6.385-27.965-6.385l3.143-8.913a10.965,10.965,0,0,0,5.749,2.493" transform="translate(-191.112 -289.875)" fill="#232831"/>
    <path id="Pfad_330" data-name="Pfad 330" d="M388.266,569.465s18.087,8.048,27.965,6.385c7.969-1.342,6.148-4.6,6.148-4.6s3.238,5.44-6.111,6.494c0,0-11.87,1.578-28.54-6.547a6.137,6.137,0,0,1,.539-1.736" transform="translate(-190.855 -294.44)" fill="#fac7b5"/>
    <path id="Pfad_331" data-name="Pfad 331" d="M408.69,564.513a.479.479,0,0,1-.217-.616c1.6-3.674,4.193-3.629,4.3-3.624a.479.479,0,0,1-.032.957c-.1,0-2.072.016-3.394,3.052a.479.479,0,0,1-.632.246l-.028-.016" transform="translate(-197.55 -291.467)" fill="#fefefe"/>
    <path id="Pfad_332" data-name="Pfad 332" d="M412.962,566.334a.471.471,0,0,1-.222-.576c1.118-3.219,3.391-3.558,3.486-3.569a.481.481,0,0,1,.537.4.473.473,0,0,1-.4.529c-.08.014-1.811.307-2.731,2.947a.469.469,0,0,1-.6.29l-.069-.026" transform="translate(-198.934 -292.086)" fill="#fefefe"/>
    <path id="Pfad_333" data-name="Pfad 333" d="M415.977,568.244a.5.5,0,0,1-.24-.6c1.169-3.362,3.33-3.851,3.42-3.87a.5.5,0,1,1,.206.97c-.076.018-1.718.439-2.69,3.225a.494.494,0,0,1-.629.306l-.066-.029" transform="translate(-199.904 -292.595)" fill="#fefefe"/>
    <path id="Pfad_334" data-name="Pfad 334" d="M419.419,569.639a.48.48,0,0,1-.23-.589c1.16-3.347,3.389-3.322,3.484-3.322a.484.484,0,1,1-.022.967c-.077,0-1.639.043-2.556,2.675a.482.482,0,0,1-.613.3l-.063-.026" transform="translate(-201.019 -293.231)" fill="#fefefe"/>
    <path id="Pfad_335" data-name="Pfad 335" d="M423.623,571.158a.45.45,0,0,1-.217-.542c1.068-3.06,3.108-3.037,3.193-3.034a.449.449,0,0,1,.43.457.442.442,0,0,1-.452.428c-.068,0-1.5.034-2.334,2.442a.444.444,0,0,1-.563.272l-.058-.024" transform="translate(-202.385 -293.831)" fill="#fefefe"/>
    <path id="Pfad_336" data-name="Pfad 336" d="M314.175,382.383c8.072-29.145-.449-57.955-.449-57.955-7.284-1.937-12.512-2.857-12.512-2.857h-14.7s-11.434,6.23-21.374,13.123l20.079,51.041,28.955-3.351" transform="translate(-151.215 -214.279)" fill="#f18f7a"/>
    <path id="Pfad_337" data-name="Pfad 337" d="M311.591,314.563l-14.87.022-.037-22.073,14.873-.024.034,22.075" transform="translate(-161.415 -204.875)" fill="#f18f7a"/>
    <path id="Pfad_338" data-name="Pfad 338" d="M301.341,304.538c-2-3.65-2.606-7.638-2.857-12.026l13.655-.024.029,16.908c-3.914-.711-8.8-1.166-10.826-4.858" transform="translate(-161.997 -204.875)" fill="#f18f7a"/>
    <path id="Pfad_339" data-name="Pfad 339" d="M318.843,474.535a60.572,60.572,0,0,1-25.564,3.489,55.668,55.668,0,0,1-15.068-2.92,47.135,47.135,0,0,1-10.578-5.077c2.751-20.949,11.614-42.633,16.572-47.991,24.634,4.459,37.971,1.227,37.971,1.227,5.141,10.15,9.465,24.4,10.118,42.522-3.311,4.173-8.611,6.935-13.451,8.752" transform="translate(-152.021 -246.766)" fill="#0961b9"/>
    <path id="Pfad_340" data-name="Pfad 340" d="M276.435,508.77l46.86,23.315c14.783,8.03,23.5-3.135,23.5-3.135,8.928-12.471-5.511-22.247-5.511-22.247-23.4-19.411-35.18-26.088-35.18-26.088-4.895-3.314-15.385-14.191-21.19-12.576-11.156,3.1-13.316,5.59-17.68,11.321,0,0-5.736,21.594,9.2,29.41" transform="translate(-151.543 -261.59)" fill="#0961b9"/>
    <path id="Pfad_341" data-name="Pfad 341" d="M309.849,433.032a47.481,47.481,0,0,0,18.467-3.565.509.509,0,1,0-.436-.92,47.886,47.886,0,0,1-35.79-.01.51.51,0,0,0-.386.943,47.574,47.574,0,0,0,18.145,3.552" transform="translate(-159.702 -248.856)" fill="#1c1d32"/>
    <path id="Pfad_342" data-name="Pfad 342" d="M281.82,457.316a14.425,14.425,0,0,0,9.753-3.359c5.529-4.771,5.952-12.811,5.968-13.152a.509.509,0,0,0-.486-.532.493.493,0,0,0-.532.487c0,.079-.423,7.953-5.619,12.431-2.857,2.461-6.645,3.47-11.252,2.992a.516.516,0,0,0-.56.455.508.508,0,0,0,.455.558,21.773,21.773,0,0,0,2.273.122" transform="translate(-155.726 -252.663)" fill="#1c1d32"/>
    <path id="Pfad_343" data-name="Pfad 343" d="M321.237,462.749l.083-.008,6.1-.98a.509.509,0,0,0,.423-.577l-2.376-16.252a.51.51,0,1,0-1.009.148l2.305,15.756-5.6.9a.511.511,0,0,0,.079,1.015" transform="translate(-169.19 -254.029)" fill="#1c1d32"/>
    <path id="Pfad_344" data-name="Pfad 344" d="M330.868,520.891s-21.259,4.594-78.923,11.746c-3.042,5.209-1.036,12.531-1.036,12.531,40.429,8.941,69.794,8.59,80.041,6.539,0,0,28.2-15.97-.082-30.816" transform="translate(-146.403 -278.732)" fill="#0961b9"/>
    <path id="Pfad_345" data-name="Pfad 345" d="M387.341,420.247s-1.89,28.945,4.858,86.712c5.183,3.087,12.507,1.129,12.507,1.129,6.693-43.915,5.521-50.034,8.846-71.866,0,0,.227-27.766-26.212-15.975" transform="translate(-190.651 -245.245)" fill="#0961b9"/>
    <path id="Pfad_346" data-name="Pfad 346" d="M286.914,282.476c-.026,2.736,1.51,5.828,3.975,6.951,3.341,1.525,4.61-1.546,4.6-4.544-.016-2.413-1.094-6.568-3.832-7.411-2.585-.795-4.718,2.759-4.739,5" transform="translate(-158.255 -199.983)" fill="#f18f7a"/>
    <path id="Pfad_347" data-name="Pfad 347" d="M295.868,282.278c1.586,3.936,3.742,7.16,7.461,9.423,3.64,2.21,7.393,3.338,10.882.423a18.557,18.557,0,0,0,5.561-9.074c2.295-7.8.463-18.578-4.517-24.835-5.469-6.867-15.959-5.281-19.979,2.432-3.275,6.283-1.969,15.283.592,21.631" transform="translate(-160.329 -192.384)" fill="#f18f7a"/>
    <path id="Pfad_348" data-name="Pfad 348" d="M292,288.233l-.135-.019a.511.511,0,0,1-.36-.626c.679-2.479.209-4.945-1.073-5.613a.51.51,0,1,1,.47-.9c1.75.912,2.416,3.764,1.588,6.787a.507.507,0,0,1-.491.376" transform="translate(-159.304 -201.164)" fill="#b16f72"/>
    <path id="Pfad_349" data-name="Pfad 349" d="M288.919,285.388a.512.512,0,0,1-.206-.981c.449-.193,1.991-.777,3.053-.118a.511.511,0,0,1-.537.869,2.694,2.694,0,0,0-2.106.187.511.511,0,0,1-.2.043" transform="translate(-158.738 -202.125)" fill="#b16f72"/>
    <path id="Pfad_350" data-name="Pfad 350" d="M295.324,273.654c-.55.592-2.437-.954-2.836-2.138h0a2.788,2.788,0,0,0-2.743-2.654c-1.187-.042-2.321,1.761-2.656,2.96-.085-1.258-.061-3.071-.082-4.416a29.9,29.9,0,0,1,.208-3.957,18.974,18.974,0,0,1,2.033-7.591A11.53,11.53,0,0,1,296.7,249.5c4.176-1.065,11-1.94,14.556.616,1.824,1.313.312,1.65.055,7.393,0,0-16.387-3.9-15.983,16.144" transform="translate(-158.285 -190.635)" fill="#000746"/>
    <path id="Pfad_351" data-name="Pfad 351" d="M324.786,281.281c.05.867.516,1.543,1.036,1.509s.9-.761.843-1.625-.518-1.544-1.041-1.51-.893.759-.838,1.626" transform="translate(-170.5 -200.725)" fill="#1c1d32"/>
    <path id="Pfad_352" data-name="Pfad 352" d="M308.153,281.28c.053.867.518,1.543,1.037,1.509s.9-.761.84-1.625-.516-1.544-1.037-1.512-.9.761-.84,1.629" transform="translate(-165.122 -200.724)" fill="#1c1d32"/>
    <path id="Pfad_353" data-name="Pfad 353" d="M305.808,288.117c.034.616,1.2,1.047,2.587.957s2.49-.656,2.45-1.274-1.2-1.041-2.587-.954-2.49.658-2.45,1.271" transform="translate(-164.365 -203.047)" fill="#b16f72"/>
    <path id="Pfad_354" data-name="Pfad 354" d="M324.171,288.117c.037.616,1.2,1.044,2.59.957s2.49-.658,2.45-1.274-1.2-1.044-2.59-.954-2.49.658-2.45,1.271" transform="translate(-170.303 -203.047)" fill="#b16f72"/>
    <path id="Pfad_355" data-name="Pfad 355" d="M324.376,267.369c2.2-5.151,2.979-13.874-6.539-17.3-2.334-.843-8.038-1.374-9.928.706-4.182,4.615,5.233,6.436,7.752,6.687,4.015.4,6.748,1.5,8.714,9.906" transform="translate(-164.703 -190.918)" fill="#000746"/>
    <path id="Pfad_356" data-name="Pfad 356" d="M272.148,330.958s19.541,15.073,0,26.642c.8,1.95,11.437,31.63,13.441,32.877,5.952,3.7,38.449,5.363,39.472-3.187,3.346-27.89,3.729-29.461.455-39.089-5.374-15.367-9.3-23.653-9.3-23.653l-2.73-.909-8.68-1.694s1.575,8.432-5.617,8.881c0,0-11.571,1.034-11.386-8.6l-15.655,8.728" transform="translate(-153.481 -214.4)" fill="#000746"/>
    <path id="Pfad_357" data-name="Pfad 357" d="M266.081,415.3c1.94-24-1-28.181-1-36.419,0-7.644-2.738-19.6-2.167-23.539.754-5.2,16.345,10.818,20.479,11.156,7.956.65,14.328,2.923,20.457-3.058,2.744-2.678,5.395-5,9.155-5.786,3.1-.648,7.985-.045,11.72,8.49l1.065,19.025c0,1.018.018,1.975.047,2.9-.917,7.062.495,10.823,1.782,23.3.037.347.09.711.135,1.066-5.82,10.94-25.337,9.827-33.4,19.7q-1.2.741-2.4,1.567c-4.5,3.109-9.01,5.831-14.312,6.447,0,0-8.5,2.736-11.368,1.982,0-9.057-.669-20.9-.187-26.833" transform="translate(-150.469 -224.865)" fill="#000746"/>
    <path id="Pfad_358" data-name="Pfad 358" d="M317.078,335.467a.507.507,0,0,0,.508-.494,79.975,79.975,0,0,0-.28-8.437c-.449-6.328-.777-10.9,4.279-15.946,7.023-7,7.023-15.01,7.023-23.487a.509.509,0,1,0-1.018,0c0,8.257,0,16.059-6.724,22.767-5.384,5.374-5.046,10.139-4.575,16.736a79.064,79.064,0,0,1,.277,8.337.51.51,0,0,0,.495.523h.016" transform="translate(-167.677 -202.969)" fill="#fefefe"/>
    <path id="Pfad_359" data-name="Pfad 359" d="M308.506,320.672h.024a.509.509,0,0,0,.484-.534c-.389-8.564-2.347-14.043-6.346-17.762-1.018-.946-2.062-1.821-3.071-2.664-4.277-3.579-7.969-6.669-7.377-13.142a.508.508,0,0,0-1.012-.093c-.639,7,3.429,10.409,7.737,14.014,1,.838,2.033,1.705,3.031,2.63,3.788,3.526,5.646,8.788,6.024,17.064a.508.508,0,0,0,.508.486" transform="translate(-159.622 -202.782)" fill="#fefefe"/>
    <path id="Pfad_360" data-name="Pfad 360" d="M290.086,285.782a1.221,1.221,0,0,0,2.442,0V284.6a1.221,1.221,0,1,0-2.442,0v1.181" transform="translate(-159.281 -201.93)" fill="#fefefe"/>
    <path id="Pfad_361" data-name="Pfad 361" d="M305.917,277.212a.761.761,0,0,0,.616-.315,2.6,2.6,0,0,1,2.384-1.221.765.765,0,0,0-.143-1.522,4.057,4.057,0,0,0-3.47,1.84.765.765,0,0,0,.613,1.219" transform="translate(-164.154 -198.945)" fill="#171b3c"/>
    <path id="Pfad_362" data-name="Pfad 362" d="M328.265,277.1a.763.763,0,0,0,.629-1.192,3.6,3.6,0,0,0-3.634-1.327.764.764,0,0,0,.407,1.472,2.058,2.058,0,0,1,1.964.714.766.766,0,0,0,.635.333" transform="translate(-170.474 -199.053)" fill="#171b3c"/>
    <path id="Pfad_363" data-name="Pfad 363" d="M318.2,288.59a4.144,4.144,0,0,0,1.42-.2.515.515,0,0,0,.333-.539,7.255,7.255,0,0,0-.642-2.043,5.777,5.777,0,0,1-.611-2.128,4.956,4.956,0,0,1,1.349-3.941.512.512,0,1,0-.661-.782,5.951,5.951,0,0,0-1.707,4.763,6.7,6.7,0,0,0,.692,2.495,8.326,8.326,0,0,1,.484,1.314,8,8,0,0,1-1.24.026c-.193-.008-.386-.014-.571-.014a.512.512,0,0,0,0,1.023c.175,0,.357.005.542.01.2.005.407.014.613.014" transform="translate(-167.834 -200.461)" fill="#b16f72"/>
    <path id="Pfad_364" data-name="Pfad 364" d="M364.822,531.17a.49.49,0,0,0,.315-.111c2.022-1.6,2.315-5.474,1.879-7.716-1.768-9.053-14.831-18.375-21.11-22.855-3.193-2.281-6.27-4.681-9.243-7-5.564-4.343-11.321-8.833-17.841-12.483a.509.509,0,0,0-.693.2.515.515,0,0,0,.2.7c6.452,3.61,11.92,7.879,17.712,12.4,2.981,2.328,6.066,4.734,9.28,7.028,5.688,4.06,19.01,13.564,20.7,22.22.391,2.009.085,5.461-1.51,6.722a.509.509,0,0,0-.087.714.515.515,0,0,0,.4.2" transform="translate(-168.329 -265.813)" fill="#110e1f"/>
    <path id="Pfad_365" data-name="Pfad 365" d="M254,536.7c.793,0,1.6-.064,2.326-.13,5.2-.476,10.44-1.369,15.51-2.236,5.749-.98,11.7-2,17.762-2.445a94.072,94.072,0,0,1,17.544-.01c.658.076,1.528.15,2.525.232,4.205.352,12.031,1.009,13.379,3.269a.51.51,0,0,0,.875-.523c-1.617-2.709-9.171-3.341-14.169-3.762-.983-.082-1.842-.153-2.493-.23a95.3,95.3,0,0,0-17.738.005c-6.113.452-12.081,1.472-17.856,2.458-5.051.861-10.274,1.753-15.431,2.223a17.36,17.36,0,0,1-3.3.079.509.509,0,1,0-.106,1.012A11.164,11.164,0,0,0,254,536.7" transform="translate(-147.088 -281.823)" fill="#110e1f"/>
    <path id="Pfad_366" data-name="Pfad 366" d="M390.961,502.82l.029,0a.509.509,0,0,0,.478-.539c-.473-7.887-.679-10-1.187-14.47l-.246-2.144a165.139,165.139,0,0,1-1.451-19c0-.675,0-1.346,0-2.017a71.126,71.126,0,0,1,.5-10.683,28.063,28.063,0,0,1,2.622-7.541c.307-.666.611-1.332.907-2.014a.509.509,0,1,0-.933-.407c-.293.677-.6,1.338-.9,2a28.762,28.762,0,0,0-2.7,7.815,71.634,71.634,0,0,0-.518,10.837c0,.671,0,1.34,0,2.014a165.457,165.457,0,0,0,1.457,19.112l.246,2.144c.508,4.451.711,6.552,1.184,14.415a.509.509,0,0,0,.507.481" transform="translate(-190.802 -253.772)" fill="#1c1d32"/>
    <path id="Pfad_367" data-name="Pfad 367" d="M380.664,341.046c-4.512.093-4.488,1.644-4.441-3.539.029-3-1.263-8.942.005-11.706.346-.753.154-2.207.872-2.458l.817,1.615c.291,2.144-.447,4.659,2.038,5.944a19.788,19.788,0,0,1,4.351-3.632c1.176-.812,4.067-5.392,5.233-5.894,3.87-1.668-2.374,7.919-3.288,9.3,3.137-3.669,3.924-5.891,4.48-5.886,1.443.51,1.4,2.736-3.053,7.9.767-.489,5.574-5.717,6.489-4.779,1.018,1.047-4.464,6.4-5.218,7.07l5.006-2.207s1.015.3.085,1.747c0,0-8.566,6.428-13.376,6.528" transform="translate(-186.956 -214.154)" fill="#f18f7a"/>
    <path id="Pfad_368" data-name="Pfad 368" d="M298.082,457.46a7.332,7.332,0,0,0,2.482-.4c2.119-.753,3.6-2.556,4.385-5.348a63.065,63.065,0,0,0,1.8-12.227,68.175,68.175,0,0,1,1.454-10.808c1.065-4.329,4.789-7.321,8.727-10.488,2.952-2.376,6.005-4.829,7.827-7.905a.509.509,0,1,0-.875-.521c-1.729,2.921-4.707,5.316-7.589,7.631-3.9,3.135-7.932,6.375-9.079,11.04a68.719,68.719,0,0,0-1.48,10.969,62.408,62.408,0,0,1-1.763,12.031c-.693,2.458-1.953,4.028-3.745,4.665-4.374,1.56-11.059-2.63-13.728-4.5-4.826-3.389-10.805-10.692-7.5-16.927,2.011-3.793,6.087-5.043,10.4-6.367,3.047-.933,6.2-1.9,8.471-3.864,2.474-2.141,3.146-5.347,1.628-7.8-1.112-1.8-2.851-2.432-4.533-3.045a10.016,10.016,0,0,1-2.915-1.414,7.95,7.95,0,0,1-3.154-5.63c-.293-3.163,1.2-6.98,3.986-10.205a43.2,43.2,0,0,1,4.272-4.1,48.044,48.044,0,0,0,4.065-3.854c4.036-4.47,4.391-10,4.205-14.828-.082-2.142-.09-4.338-.095-6.462-.005-2.228-.011-4.531-.1-6.793-.029-.69-.092-1.4-.153-2.114a16.332,16.332,0,0,1,.135-5.622.509.509,0,1,0-.983-.265,17.19,17.19,0,0,0-.166,5.979c.061.7.121,1.39.15,2.064.093,2.245.1,4.536.1,6.754,0,2.133.01,4.34.092,6.5.18,4.623-.15,9.909-3.941,14.109a48.282,48.282,0,0,1-3.978,3.769,43.765,43.765,0,0,0-4.372,4.2c-2.965,3.431-4.548,7.53-4.232,10.964a8.951,8.951,0,0,0,3.534,6.335,10.916,10.916,0,0,0,3.2,1.576c1.588.576,3.089,1.121,4.017,2.619,1.453,2.357.277,5.019-1.43,6.5-2.109,1.824-5.022,2.717-8.1,3.663-4.324,1.324-8.794,2.7-11,6.862-3.615,6.819,2.694,14.643,7.816,18.237,2.892,2.033,7.895,5.035,12.172,5.035" transform="translate(-155.058 -224.093)" fill="#fefefe"/>
    <path id="Pfad_369" data-name="Pfad 369" d="M339.765,434.408c-1.863,1.861-2.873,1.861-3.9,1.861h-8.286c-2.278,0-2.3-1.281-1.734-2.445l18.145-17.268c1.958-1.861,2.778-1.861,3.806-1.861h9.787c1.38,0,2.038,2.192.9,2.86l-18.721,16.852" transform="translate(-170.744 -244.393)" fill="#051b34"/>
    <path id="Pfad_370" data-name="Pfad 370" d="M340.416,434.947c-2.009,1.863-2.892,1.863-3.92,1.863h-6.938c-1.861,0-2.426-.7-1.861-1.863l18.451-17.4a3.886,3.886,0,0,1,3.132-1.377h8.458c1.38,0,1.851.864,1.38,1.863l-18.7,16.916" transform="translate(-171.376 -244.869)" fill="#08294d"/>
    <path id="Pfad_371" data-name="Pfad 371" d="M352.262,427.312a8.494,8.494,0,0,0,6.388,4.6c6.042,1.274,10.2-11.244,4.4-10.041-2.992.618-14.133-1.538-10.786,5.445" transform="translate(-179.186 -246.685)" fill="#f18f7a"/>
    <path id="Pfad_372" data-name="Pfad 372" d="M272.172,358.588l35.209,27.978a12.047,12.047,0,0,0,8.976-3.095s5.255-2.945-4.264-11.482L278.886,338.91s-9.235-7.385-12.856,4.52c0,0-2.54,8.635,6.143,15.158" transform="translate(-151.39 -219.154)" fill="#f18f7a"/>
    <path id="Pfad_373" data-name="Pfad 373" d="M267.79,335.426s6.1-6.637,21.946,9.444l15.61,14.82s-9.375,16.747-18.1,19.255l-18.56-17.423s-15.7-17.643-.893-26.1" transform="translate(-150.016 -218.321)" fill="#000746"/>
    <path id="Pfad_374" data-name="Pfad 374" d="M350.882,370.334c-9.592,14.241-12.171,19.081-23.326,19.033-7.461-.031.994-17.164.994-17.164,10.364-.2,31.12-26.935,31.12-26.935s3.793-.682,5.492,1.757c0,0-9.758,16.591-14.28,23.309" transform="translate(-170.403 -221.914)" fill="#f18f7a"/>
    <path id="Pfad_375" data-name="Pfad 375" d="M302.125,230.276c-2.976-2.561-9.354-4.041-12.629-1.789-5.9,4.06-5.82,14.659,1.908,16.59,7.414,1.855,18.119-8.442,10.721-14.8" transform="translate(-157.737 -183.821)" fill="#000746"/>
    <path id="Pfad_376" data-name="Pfad 376" d="M316.922,298.123a2.726,2.726,0,0,0,.7-.087.511.511,0,1,0-.251-.99c-1.332.34-3.24-1.07-3.817-2.422a.51.51,0,1,0-.938.4,5.371,5.371,0,0,0,4.305,3.1" transform="translate(-166.553 -205.464)" fill="#b16f72"/>
    <path id="Pfad_377" data-name="Pfad 377" d="M415.63,474.246c8.878-20.836,6.1-38.465,6.1-38.465a72.435,72.435,0,0,1-1.266-7.181,27.285,27.285,0,0,1,2.207-7.1c2.241-4.665,5.862-6.8,10.7-8.082a46.676,46.676,0,0,0,5.154-1.589c7.716,12.92-2.2,34.522-2.2,34.522a27.807,27.807,0,0,1-6.624,6.684l-5.479,16.651s-1.108.388-2.958,3.743c0,0-2.03,5.881-4.95,5.894l-4.433-.785c-1.644-3.542,3.748-4.287,3.748-4.287" transform="translate(-198.565 -243.464)" fill="#a35952"/>
    <path id="Pfad_378" data-name="Pfad 378" d="M543.524,469.008c-5.735,8.522-12.8,12.328-23.211,12.217,2.958.031,5.318,3.095,8.315,3.563,16.654,2.6,31.773-22.3,26.256-36.329-1.43-3.631-11.259-13.972-12.652-7.361-.714,3.454,3.88,6.851,5.033,9.8,2.395,6.117-.291,12.981-3.74,18.116" transform="translate(-233.729 -252.232)" fill="#a35952"/>
    <path id="Pfad_379" data-name="Pfad 379" d="M454.65,504.966c3.878,9.121,9.076,10.969,19.733,15.123,0,0,4.657,7.827,1.486,15.51,0,0-7.665.822-4.3,6.087l6.23-.016s3.706-2.516,4.7-10.195l-.031-10.448s.383-3.521-1.15-5.115a8.128,8.128,0,0,1-3.016-2.891s-1.636-5.183,2.387-12.867l-.449-8.1-22.7-9.767s-7.057,14.635-2.9,22.673" transform="translate(-212.071 -266.251)" fill="#aa5248"/>
    <path id="Pfad_380" data-name="Pfad 380" d="M468.353,337.027c-3.531-8.267-11.514-13-11.514-13-3.468-1.778-3.343,1.7-3.343,1.7,1.522,4.6-.556,14.389-.556,14.389s8.836,3.171,15.412-3.093" transform="translate(-211.943 -214.911)" fill="#bf7756"/>
    <path id="Pfad_381" data-name="Pfad 381" d="M456.171,328.121s.943,7.081-.714,10.449c0,0,2.553,1.43,5.529-1.037,0,0-1.819-6.015-4.816-9.412" transform="translate(-212.756 -216.397)" fill="#a35245"/>
    <path id="Pfad_382" data-name="Pfad 382" d="M476.449,507.929c3.875,9.121,9.074,10.969,19.733,15.123,0,0,4.655,7.827,1.483,15.51,0,0-7.663.822-4.3,6.087l6.23-.015s3.7-2.517,4.7-10.2l-.029-10.448s.381-3.52-1.15-5.115a8.106,8.106,0,0,1-3.016-2.891s-1.636-5.183,2.384-12.867l-.45-8.1-24.372-3.566s-5.379,8.434-1.219,16.472" transform="translate(-219.034 -269.215)" fill="#bf7756"/>
    <path id="Pfad_383" data-name="Pfad 383" d="M426.6,408.709a43.307,43.307,0,0,1,1.782-10.218,148.612,148.612,0,0,1,16.766-20.513l5.923-6.3c4.321-2.889,11-10.606,11-10.606s-3.806-5.659,6.015,2.6c-3.063-4.242,4.533-9.51,3.37,20.091,0,0,2.159,13.477,6.2,20.708,7.371,11.876,11.431,22.577,19.3,34.107,2.924,4.276.36,15.171-2.006,19.247s-6.5,7.831-10.675,10.884a.423.423,0,0,0-.457.015c-9.1,5.722-18.591-4.53-17.949-13.728.737-.7,1.227-1.086,1.227-1.086l-5.117-3.248s-18.957-7.773-31.228-25.982c-2.2-5.114-4.314-10.363-4.14-15.969" transform="translate(-203.422 -226.441)" fill="#bf7756"/>
    <path id="Pfad_384" data-name="Pfad 384" d="M469.82,354.316c0-13.868-6.444-20.117-6.444-20.117-3.021-8.463-10.705-13.667-10.705-13.667-3.354-1.982-3.439,1.493-3.439,1.493,1.24,4.689-.666,10.79-.666,10.79s-9.613,11.162-20.537,17.8c0,0-4.094,2.447-4.432,6.457,0,0,3.877,8.315,23.291,6.988,0,0,16.916.219,22.931-9.745" transform="translate(-202.454 -213.746)" fill="#bf7756"/>
    <path id="Pfad_385" data-name="Pfad 385" d="M428.03,357.361c8.741-5.312,16.636-13.512,19.446-16.58a17.412,17.412,0,0,1-3.391,5.392,75.244,75.244,0,0,1-8.424,7.2c-1.8,1.448-4.517,3.941-2.868,6.5.954,1.488,3.282,2.551,3.6,4.364a7.679,7.679,0,0,1-1.441,6.013c-9.185-1.794-11.352-6.433-11.352-6.433.338-4.01,4.432-6.457,4.432-6.457" transform="translate(-202.454 -220.491)" fill="#9e6145"/>
    <path id="Pfad_386" data-name="Pfad 386" d="M459.595,354.121a.507.507,0,0,0,.474-.325A2.27,2.27,0,0,0,457,350.96a2.171,2.171,0,0,0-1.158,1.226.5.5,0,0,0,.938.357,1.186,1.186,0,0,1,.632-.664,1.257,1.257,0,0,1,.97-.024,1.234,1.234,0,0,1,.738,1.583.5.5,0,0,0,.294.648l.177.034" transform="translate(-212.872 -223.719)" fill="#170903"/>
    <path id="Pfad_387" data-name="Pfad 387" d="M463.758,323.484s.949,7.081-.711,10.449c0,0,2.558,1.427,5.529-1.039,0,0-1.819-6.016-4.818-9.41" transform="translate(-215.211 -214.898)" fill="#a35245"/>
    <path id="Pfad_388" data-name="Pfad 388" d="M480.721,510.662a.482.482,0,0,0,.349-.146.5.5,0,0,0,0-.7c-9.082-9.118-8.045-21.837,2.707-33.192a.5.5,0,1,0-.724-.684c-10.99,11.608-12.047,25.183-2.688,34.579a.5.5,0,0,0,.354.146" transform="translate(-218.757 -264.146)" fill="#1c1d32"/>
    <path id="Pfad_389" data-name="Pfad 389" d="M461.559,480.343a.5.5,0,0,0,.246-.932c-1.06-.595-2.107-1.166-3.14-1.732-4.847-2.648-9.428-5.148-13.549-9.114l-.026-.026a.473.473,0,0,0-.267-.132c-4.48-3.967-10.388-9.753-14.448-16.874a.5.5,0,1,0-.864.495c4.488,7.869,11.162,14.111,15.8,18.121l.158.1c3.936,3.507,8.215,5.846,12.721,8.307,1.031.566,2.075,1.134,3.129,1.729a.507.507,0,0,0,.243.063" transform="translate(-204.345 -256.224)" fill="#1c1d32"/>
    <path id="Pfad_390" data-name="Pfad 390" d="M427.3,376.177a7.319,7.319,0,0,0-.325-9.954c-1.242.962-3.5,3.1-3.756,6.087a10.459,10.459,0,0,0,4.081,3.867" transform="translate(-202.331 -228.718)" fill="#602b1d"/>
    <path id="Pfad_391" data-name="Pfad 391" d="M478.927,386.235a45.437,45.437,0,0,1-27.168-.13l-2.434,3.928s3.721,6.174,29.479,2.432c0,0,.861-1.625.124-6.23" transform="translate(-210.773 -235.147)" fill="#000746"/>
    <path id="Pfad_392" data-name="Pfad 392" d="M454.739,384.47c5.22,0,12.309-1.987,15.822-4.609a.6.6,0,0,0-.719-.965c-3.761,2.807-12.251,4.911-17.125,4.245a.6.6,0,1,0-.161,1.192,16.146,16.146,0,0,0,2.183.137" transform="translate(-211.65 -232.778)" fill="#1c1d32"/>
    <path id="Pfad_393" data-name="Pfad 393" d="M411.5,414.232l7.327,8.313,4.337,11.141,18.33-13.615-15.75-7.1-7.845-5.664q-3.037,3.615-6.4,6.927" transform="translate(-198.541 -242.003)" fill="#bf7756"/>
    <path id="Pfad_394" data-name="Pfad 394" d="M397.275,415.329c2.736-2.376,6.912-2.241,6.912-2.241,5.281-1.166,6.4-6.927,6.4-6.927-6.37-4.6-9.2-1.16-9.2-1.16l-2.566,2.886a10.715,10.715,0,0,1-3.9,3.209,54.4,54.4,0,0,0-6.037,4.9l1.588,1.985c3.465,2.136,6.8-2.651,6.8-2.651" transform="translate(-191.231 -240.859)" fill="#bf7756"/>
  </g>
</svg>
