<svg id="surface1" xmlns="http://www.w3.org/2000/svg" xmlns:xlink="http://www.w3.org/1999/xlink" width="416.196" height="401.647" viewBox="0 0 416.196 401.647">
  <defs>
    <clipPath id="clip-path">
      <path id="Pfad_396" data-name="Pfad 396" d="M114,163H519.078V493.649H114Zm0,0" transform="translate(-114 -163)"/>
    </clipPath>
    <clipPath id="clip-path-2">
      <path id="Pfad_399" data-name="Pfad 399" d="M406,734h12.847v15.5H406Zm0,0" transform="translate(-406 -734)"/>
    </clipPath>
    <clipPath id="clip-path-3">
      <path id="Pfad_428" data-name="Pfad 428" d="M196,162.918H490.011V414.962H196Zm0,0" transform="translate(-196 -162.918)"/>
    </clipPath>
  </defs>
  <g id="Gruppe_69" data-name="Gruppe 69" transform="translate(11.118 0.055)" clip-path="url(#clip-path)">
    <path id="Pfad_395" data-name="Pfad 395" d="M387.8,163.266a6.452,6.452,0,0,1,1.292-.259c1.162-.064,1.049,1.236,1.373,2.041a1.486,1.486,0,0,0,.341.55,5.561,5.561,0,0,1,1.1,1.484,2.167,2.167,0,0,0,2.766-.211,3.127,3.127,0,0,1,1.865-.769c1.381-.153,2.295.761,1.751,2.187-.78,2.055.3,3.925.592,5.936a5.507,5.507,0,0,0,.536,1.738l.074.267a1.933,1.933,0,0,0,1.938,1.283c1.741.074,2.325.787,3.5,1.994,1.585.611,2.554,2.477,3.046,4,.264.824.887,1.02,1.619,1.27a3.7,3.7,0,0,1,1.308.924,1.212,1.212,0,0,1,.851.822c.164.539.93,1.075,1.318,1.479a5.618,5.618,0,0,1,.571.884c.214.431.911,1.2,1.473.708a3.364,3.364,0,0,0,.732-1.434,1.878,1.878,0,0,1,2.7.2,2.573,2.573,0,0,1,.323,2.665,2.4,2.4,0,0,0,.323,2.3,2.794,2.794,0,0,1,.28,1.247c0,2.306,2.945,4.115,5.047,4.115,1.3,0,1.384-.912,1.3-2.021a2.579,2.579,0,0,1,.621-2.271,7.734,7.734,0,0,1,2.246-1.31c1.336-.538,2.53-.147,3.906-.147,1.318,0,1.928,1.1,2.319,2.2.3.829,1.064.911,1.828.594a2.54,2.54,0,0,1,2.018-.787,3.484,3.484,0,0,0,2.206-.829,3.129,3.129,0,0,1,1.659-.375,3.246,3.246,0,0,1,2.406.909c1.149,1.041.692,2.95-.133,4.025a6.6,6.6,0,0,0-.623,1.431,4.922,4.922,0,0,1-1.214,1.815,5.225,5.225,0,0,0-1.519,3.6c0,.623.262,1.6,1.091,1.39a1.917,1.917,0,0,1,1.45.4,3.377,3.377,0,0,1,1.471,3.23,3.329,3.329,0,0,1-.988,2.834,3.077,3.077,0,0,0-1.344,3.252,1.824,1.824,0,0,0,2.435.909,10.212,10.212,0,0,0,2.3-1.794,3.749,3.749,0,0,0,1.048-1.225c.592-1.186,2.153-1.006,3.27-.906,1.152.1,1.8-.521,2.613-1.218a3.186,3.186,0,0,0,.763-1.9,4.729,4.729,0,0,1,2.195-3.165c.435-.325.855-.671,1.273-1.02a3.485,3.485,0,0,1,3.016-.38,1.548,1.548,0,0,0,.8.039c.518-.406-.3-1.463-.457-1.843-.24-.583-.573-1.508-.187-2.1a3.487,3.487,0,0,1,1.6-1.186,1.11,1.11,0,0,1,1.323,1.072c.05.546,1.06,1.154,1.5,1.342,1.17.51,1.646-.531,2.089-1.448l.219-.158a.661.661,0,0,1,.481-.1c1.038.256.069,1.6-.076,2.1-.076.275-.177.536-.28.8A1.715,1.715,0,0,1,468,205.519c-.275.275-.549.542-.845.8a3.149,3.149,0,0,1-1.4.528c-.285.373-.079.885.053,1.283a3.888,3.888,0,0,1-.4,2.993,3.5,3.5,0,0,1-1.025,1.054c-.744.647-.277,2.459.024,3.177a4.741,4.741,0,0,0,.671,1.189,1.732,1.732,0,0,1-.811,2.868,3.142,3.142,0,0,0-1.442.845c-1.014,1.139-.212,3.014-.1,4.311a3.341,3.341,0,0,0,1.693,2.755,1.583,1.583,0,0,0,1.672.248,3.524,3.524,0,0,0,1.8-2.012c1.149-1.379,3.1-3.122,4.95-2.195a10.8,10.8,0,0,0,2.407.737l.309.124c1.289.521,1.312,2.53.761,3.6a3.011,3.011,0,0,1-1.149.986c-.312.158-.162.673.111.792,1.033.447,1.423-.782,1.817-1.468,1.031-.751,2.074.625,3,1.043a4.29,4.29,0,0,1,1.278.93c.428.04.634.367.935.669a2.494,2.494,0,0,0,1.709.079,1.527,1.527,0,0,1,1.7.314,2.714,2.714,0,0,1,.3,1.986,2.5,2.5,0,0,0,.869,2.465,3.437,3.437,0,0,0,2.041.711c1.352.111,1.43,1.278,1.154,2.35q-.119.451-.214.906c-.2.967.721,1.012,1.331,1.405,1.157.751-.557,1.7-1.041,2.108a4,4,0,0,1-3.545.787,1.741,1.741,0,0,0-2.015,1.461c0,.853,1.553.525,2.044.48,1.471-.132,2.3.867,2.9,2.082a5.078,5.078,0,0,0,.542.869,2.381,2.381,0,0,1,.4.668c.425,1.054,1.423,1.45,2.382,1.928a2.6,2.6,0,0,1,.285,2.7,19.23,19.23,0,0,0-.93,2.594,4.789,4.789,0,0,1-.816,1.738c-.94,1.16-.851,2.71-1.2,4.094-.275,1.106.478,1.8,1.481,2.06.423.111,1.186.6.624,1.1a1.634,1.634,0,0,1-.644.33c-.721.243-.576,1.421-.4,2.02a7.473,7.473,0,0,0,.428,1.064c.37.73.9.648,1.611.428a3.691,3.691,0,0,1,2.073,0,18.968,18.968,0,0,0,2.2.209,4.03,4.03,0,0,0,2.261-.536,9.194,9.194,0,0,1,1.336-.668,4.248,4.248,0,0,0,1.931-1.926c.486-1.067,1.39-1.4,2.348-1.952a13.8,13.8,0,0,1,1.523-.884c.529-.262,1.07-.442,1.218.3.2,1-.42,1.622-1,2.29-.343.726-.7,1.445-1.06,2.163a3.215,3.215,0,0,0,.2,2.757c.356.792-.132,1.091-.816,1.434a3.846,3.846,0,0,0-1.675,2.016,2.333,2.333,0,0,0,.922,1.817,1.628,1.628,0,0,0,.534.742,2.083,2.083,0,0,1,.563,1c.14.636.42.724,1.014.549,1.463-.428,2.977.262,4.419.478a3.027,3.027,0,0,0,2.285-.938,3.532,3.532,0,0,1,3.973-.092,1.476,1.476,0,0,0,.525.346,1.912,1.912,0,0,1,1.389,1.546c.122,1.294-1.21,2.712-2.029,3.557a5.715,5.715,0,0,0-1.5,3.175,3.832,3.832,0,0,0,.492,1.973,1.709,1.709,0,0,1-.521,2.036,2.3,2.3,0,0,0-.829,1.728c0,1.168-.489,1.448-1.67,1.58-1.041.116-1.31.444-1.749,1.35a4.384,4.384,0,0,0-.306,2.795c.264,1.577-.462,2.388-1.65,3.3-.716.546-1.751.169-2.5-.079-1.239.164-1.333,1.41-1.854,2.4a3.358,3.358,0,0,0-.435,2.436,2.2,2.2,0,0,1-.394,1.9,3.95,3.95,0,0,0-.573.991,3.725,3.725,0,0,1-2.055.813,2.9,2.9,0,0,0-1.054.4,1.716,1.716,0,0,1-.4.275c-.331.055-.751.678-.951.943a4.823,4.823,0,0,0-.855,2.657c0,1.075,1.321,1.329,1.939,1.949a8.144,8.144,0,0,0,1.218.876c1.072.753.99,1.96.99,3.149a4.958,4.958,0,0,0,.734,2.205,7.408,7.408,0,0,1,.547,1.371c.169.959-.576,1.772-.88,2.628a2.018,2.018,0,0,1-1.413.774c-1.062.193-.94-1.139-.742-1.759a3.132,3.132,0,0,0-.119-2.638c-.364-1.323-1.6-1.791-2.808-2.174l-.584.565c-.581.56-1.753,1.054-2.364.212a2.647,2.647,0,0,1-.4-1.611c0-.779-.316-1.9-1.312-1.4-.745.372-1.06,1.492-1.35,2.2-.2.476-.523.611-1.012.809-.832.338-.949.84-1.141,1.667a1.272,1.272,0,0,1-1.344.779,4.9,4.9,0,0,0-1.194.166c-1.191.554.183,1.857.611,2.417.707.92-.143,2.369-.465,3.325a5.43,5.43,0,0,1-1.151,1.878,1.274,1.274,0,0,0,0,1.5,1.819,1.819,0,0,1-.233,2.327,7.333,7.333,0,0,1-1.384.969,3.087,3.087,0,0,0-1.243,1.617c-.04.431-.367.636-.669.938-.068.4-.533.79-.776,1.109a4.656,4.656,0,0,0-.449,1.725A3.553,3.553,0,0,1,480.344,344a1.426,1.426,0,0,0-.409.549,3.93,3.93,0,0,0-.507,2.071c.111.454.628.187.872.064a2.254,2.254,0,0,0,1.077-1.186c.3-.713,1.241-1.7,2.118-1.028,1.794,1.379,1.74,4.081.637,5.877a3.224,3.224,0,0,0-.576,1.785,18.346,18.346,0,0,1-.782,3.4c-.108.446.2.724.6.843a10.345,10.345,0,0,0,1.862.126,5.632,5.632,0,0,0,1.6-.14,5.8,5.8,0,0,0,.905-.93c.317-.38.325-.394.8-.893.668-.7,2.058-.9,2.174.325a2.541,2.541,0,0,1-.245,1.319,8.339,8.339,0,0,0-.323,1.672,2.5,2.5,0,0,1-3.109,2.457c-1.162-.235-1.461.626-1.175,1.559.639,2.07-.708,3.933-1.579,5.734-.182,1.265.634,1.889,1.323,2.816a9.5,9.5,0,0,1,1.384,3.056c.322,1.038,1.26,1.714,1.9,2.568a7.182,7.182,0,0,1,1.191,3.277,4.3,4.3,0,0,1-.4,3.262,5.2,5.2,0,0,0-.816,2.394,9.128,9.128,0,0,1-.642,2.408,5.241,5.241,0,0,1-1.44,3.515,5.393,5.393,0,0,1-4.218,1.1c-.549-.1-1.434.132-.972.832,1.151,1.74-1.714,2.2-2.824,2.409a7.65,7.65,0,0,0-1.524.393,5.528,5.528,0,0,1-1.352.33c-1.455.523-2.087-.811-3.087-1.577a2.754,2.754,0,0,0-3.162.153c-.8.621-.856,1.833-.959,2.763-.478.932-1.334.644-1.984.061a2.522,2.522,0,0,0-1.373-.676c-1.085-.18-1.883,1.128-2.541,1.82a4.112,4.112,0,0,0-.674,1.482,15.34,15.34,0,0,1-.676,1.955,6.819,6.819,0,0,0-.24,1.7,1.239,1.239,0,0,0,1.3,1.408c.876,0,1.5-.763,2.163-1.257a4.857,4.857,0,0,0,1.949-2.665c.193-.686.634-1.5,1.455-1.178.475.185.721.684,1.022,1.088a2.887,2.887,0,0,0,1.35.949q.416.416.845.808c1.592,1.461.594,3.177-.724,4.326-.908.792-1.746,1.669-2.578,2.538-.383.4-.961.961-1.582.806a4.907,4.907,0,0,0-2.221.14c-.774.23-1.276-.542-1.559-1.107-.481-.962-1.41-.283-2.076.085a3.3,3.3,0,0,1-2.24.161c-.993-.248-1.442.589-1.519,1.471a2,2,0,0,1-1.135,1c-.893.306-1.123,1.189-1.27,2.012a3.878,3.878,0,0,1-.518,1.363c.093.346,1.057-.354,1.252-.513a4.007,4.007,0,0,1,2.145-.715c1-.09,1.172-1.381.927-2.2-.264-.888.742-1.1,1.3-1.363a1.752,1.752,0,0,1,2.61,1.262c.155,1.4-1.065,2.407-1.92,3.323q-.158.317-.32.64a4.821,4.821,0,0,1-.542.869c-.742.913.051,1.638.941,1.807a4.734,4.734,0,0,0,4.162-1.487,3.892,3.892,0,0,1,2.217-1.039c1.2-.092,1.867.732,2.615,1.527.507.542.969,1.133.6,1.878a2.892,2.892,0,0,1-1.86,1.484c-1.292.179-1.751.909-2.232,2.089a1.993,1.993,0,0,1-1.16.991c-1.128.525-1.92.024-3.035-.177-.766-.137-.959.206-1.488.634-.663.533.014,1.545.051,2.235.06,1.152-1.381.972-2.008.5-.8-.613-.594-1.321-.245-2.176a6.469,6.469,0,0,0,.1-2.861,4.47,4.47,0,0,1-.454-1.6c-.056-.661-.114-.809-.341-.864-.639-.158-1.638.383-2.253.587l-.861.206a2,2,0,0,0-1.559,1.279.7.7,0,0,1-.5.356c-.573.14-.632-.354-.776-.782-.169-.507-.605-.962-.909-.256-.367.848-.542,2.887.964,2.367.652-.227,1.083.813,1.162,1.257a2.657,2.657,0,0,0,.845,1.741c.951,0,1.577-.6,2.409-.961.863-.214,2.113.766,1.093,1.548a1.812,1.812,0,0,0-.811,1.619c0,1.529-1.07,2.256-1.926,3.4-.718.959-1.761,1.912-3.064,1.492a2.766,2.766,0,0,1-1.45-1.538c-.283-.655.542-1.283.925-1.693a1.967,1.967,0,0,0,.567-2.082,6.148,6.148,0,0,0-1.437-2.852c-1.444,0-1.666,1.365-2.509,2.2a2.333,2.333,0,0,0-.734,1.83c0,.872.732,1.162,1.455,1.381.4.122,1.437.579,1.051,1.173a9.577,9.577,0,0,1-2.494,1.954c-.412.278-.811.573-1.2.88a3.056,3.056,0,0,1-3.106.457c-.79-.642-2.538-1.043-3.08.2-.412.951.193,1.812.354,2.768a4.04,4.04,0,0,1-.856,2.514c-.571,1.323,1.453,1.241,2.274,1.292a18.236,18.236,0,0,1,1.9.191c1.078.179,2.227,1.671,2.688,2.67.505,1.088,1.068,2.382.623,3.565a9.4,9.4,0,0,0-.615,2.275,3.919,3.919,0,0,1-1.233,2.583,7.064,7.064,0,0,1-3.8,1.761c-1.284.489-2.256-.274-3.127-1.149a8.478,8.478,0,0,1-1.352-2.321,11.956,11.956,0,0,1-.988-5.449c0-.443-.1-1.114-.705-.834a4.756,4.756,0,0,0-.967.647,4.7,4.7,0,0,1-1.524.819,4.657,4.657,0,0,0-2.464,2.612c-.6,1.2-1.387,1.384-2.647,1.384a10.189,10.189,0,0,0-2.512,1.056c-1.7.827-3.518.761-5.378.816a1.522,1.522,0,0,0-1.442.64A3.954,3.954,0,0,1,415,455.415a5.664,5.664,0,0,0-3.3,1.326,9.776,9.776,0,0,1-6.188,2.668,5.992,5.992,0,0,0-1.833.335l-.322.262a4.44,4.44,0,0,1-.742.481c-.573.3-.974,1.032-1.405,1.516-1.1.27-1.6-.456-1.736-1.461-.174-1.286-1.63-.715-2.454-.4-1.471.473-2.617-.283-4.041-.536a3.571,3.571,0,0,1-1.442-1.859c-.539-1.344-2.647-2.995-3.973-1.671a23.639,23.639,0,0,1-2.728,2.06,3.39,3.39,0,0,1-.816.415c-.7.7-1.506,1.292-2.261,1.925-.906.763-1.717,1.651-2.554,2.488-1.041.834-2.05,1.7-3.037,2.591a6.04,6.04,0,0,1-4.25,1.141,3.061,3.061,0,0,1-2.728-1.405,30.331,30.331,0,0,0-3.8-3.55c-.692-.573-1.368.089-.829.792q.316.417.636.832c1.291,1.685.848,3.365.114,5.15-.491,1.2-1.849.325-2.433-.2a3.461,3.461,0,0,0-3.5-.657c-1.011.866-1.4,2.6-1.97,3.816a3.839,3.839,0,0,1-3.6.84,2.5,2.5,0,0,0-1.754.335c-1.062.513-2.409-.124-3.513-.235a7.363,7.363,0,0,1-4.071-1.638c-1.157-.917-1.96-.066-3.235-.066a1.52,1.52,0,0,1-.906-.523c-1.294-.407-2,.536-2.985,1.283-1.078.824-2.969.174-4.131-.233a1.936,1.936,0,0,1-1.183-.779,2.684,2.684,0,0,0-1.7-1.445c-1.152-.153-1.793.753-2.734,1.162a2.419,2.419,0,0,1-1.6,0c-1-.248-1.847.46-2.7.874a.857.857,0,0,1-1.154-.254,7.491,7.491,0,0,1-.7-2.432c-.319-.5-.768-1.131-1.426-1.131-1.3,0-.211,1.257-.082,1.778.158.657-.407,1.041-.83,1.418a9.308,9.308,0,0,1-3.475.885c-1.39.105-1.83.988-2.715,1.97a2.39,2.39,0,0,0-.481.75,5.632,5.632,0,0,1-.6,1.236l-.127.315c-.687,1.7-3.294,1.952-4.836,2.348-.169.129-.338.259-.5.388-.209.14-.418.28-.623.42-.154.1-.3.212-.442.323a2.218,2.218,0,0,1-.47.266c-1.056.4-1.11,1.419-1.283,2.388l-.159.248c-.673,1.035-1.867.589-2.9.848-.924.227-.8,1.421-.744,2.152a7.571,7.571,0,0,1-1.139,4.583c-1.323.964-2.573.385-4.052.29-1.368-.09-1.6,1.559-1.709,2.552-.555,1.085-1.8.6-2.433-.154a3.057,3.057,0,0,1,.1-2.282,4,4,0,0,0-.808-3.787,2.167,2.167,0,0,1-.4-2.782c.529-1.1-.512-1.664-1.405-2.11a4.268,4.268,0,0,1-1.738-1.886,4.573,4.573,0,0,0-1.17-2.029,1.854,1.854,0,0,1-.245-2.81c.3-.325.586-.661.877-1a3.926,3.926,0,0,0-.266-3.193c-.425-1.036-1.715-.449-2.417-.188a3.734,3.734,0,0,0-1.31.924,1.235,1.235,0,0,0-.555.367,4.155,4.155,0,0,1-1.45.7,4.521,4.521,0,0,1-2.7-1,7,7,0,0,1-2.279-3.544,27.727,27.727,0,0,1-2.515-3.048,9.647,9.647,0,0,1-1.767-1.632l-.32-.254c-.177-.14-.452-.367-.61-.5-.642-.557-.241-1.371.007-2.023.288-.946-.75-1.77-1.141-2.567a1.677,1.677,0,0,0-2.147-.924,5.162,5.162,0,0,1-2.274,0,9.217,9.217,0,0,0-3.209,0,3.843,3.843,0,0,1-2.847-.533c-.732-.323-1.01-1.392-1.215-2.092-.338-1.146.193-2.34.4-3.474a13.438,13.438,0,0,1,.462-1.754,4.733,4.733,0,0,0-.272-1.828c-.156-.647.563-1.551.816-2.134.375-.871-.584-.518-.941-.227a2.059,2.059,0,0,1-.676.378c-.15.185-.3.367-.446.552-.055.834-.771,1.4-1.286,2.018a4.85,4.85,0,0,1-3.774,1.987,21.321,21.321,0,0,0-3.928.694,5.73,5.73,0,0,0-.935.27,3.087,3.087,0,0,1-1.08.053,5.046,5.046,0,0,0-2.05.375,10.964,10.964,0,0,1-5.414.5,7.506,7.506,0,0,0-3.883.143c-.792.219-1.529-.275-2.282-.475-.575-.153-1.1.644-1.444.988-.938.655-2.045.475-3.114.673a2.135,2.135,0,0,1-.882.024c-.4-.2.06-.874.237-1.067.248-.264.494-.533.737-.8.554-.61,1.35-1.87.47-2.512-.908-.66-2.683-.193-3.547.417-1.452,1.028-3.473,1.118-5.2,1.131a6.52,6.52,0,0,0-4.348,1.6l-.2.074a3.826,3.826,0,0,1-.549.148,2.591,2.591,0,0,0-.869.394,5.336,5.336,0,0,1-1.5.589l-.193.148a4.921,4.921,0,0,0-1.16,1.505,1.011,1.011,0,0,1-1.392.359,3.046,3.046,0,0,1-1.017-2.041c-.145-.784-1.381-.967-2.029-1.154a4.944,4.944,0,0,1-1.323-.8c-.89-.594-2.364-.338-3.3-.148a10.965,10.965,0,0,1-3.743-.816,2.358,2.358,0,0,0-2.662-.589,6.54,6.54,0,0,1-2.821.267,8.97,8.97,0,0,0-2.3.2,9.024,9.024,0,0,0-1.749,1.661c-.784.784-1.931.544-2.9.348a5.554,5.554,0,0,0-1.271.135,14.261,14.261,0,0,1-4.614-.2,9.419,9.419,0,0,1-1.619-.335,4.174,4.174,0,0,0-1.355.216,3.772,3.772,0,0,1-2.57.14c-.977-.452-.861-1.69-.861-2.591a12.641,12.641,0,0,0-1.7-5.8c-.549-1.028.349-1.548,1.038-2.077,1.075-.823,2.549-.782,3.822-.99a2.883,2.883,0,0,0,1.8-1.083,6.548,6.548,0,0,1,2.285-1c1.059-.3,1.659-1.825,2.094-2.7l.233-.2c.758-.629,1.477.055,2.108.534a1.61,1.61,0,0,0,2.092-.174c.774-1.064-1.083-1.452-1.788-1.548a2.889,2.889,0,0,1-2.3-1.341,14.741,14.741,0,0,0-.93-1.149c-.768-.832-2.11.174-2.855.546a7.186,7.186,0,0,1-1.231.494c-.316.319-.639.626-.972.927a2.614,2.614,0,0,1-3.294.129,3.194,3.194,0,0,0-2.724-.412,5.117,5.117,0,0,0-1.6.924,1.99,1.99,0,0,1-1.609.227c-1.178-.434-1.9-1.891-2.741-2.731a3.871,3.871,0,0,0-.565-.428c-1.189-.914-2.668-.977-4.11-1.181l-.7-.291-1.34-1.336a3.4,3.4,0,0,1-.515-3.183,3.935,3.935,0,0,0,.594-.813c.18-.357-.494-.214-.782-.23a3.025,3.025,0,0,1-2.507-1.06c-.193-.243-.391-.481-.586-.721a3.44,3.44,0,0,0-1.308-1.125,1.777,1.777,0,0,1-.565-.352,4.14,4.14,0,0,0-2.4-.816,2.33,2.33,0,0,1-2.015-.375,1.671,1.671,0,0,0-.4-.275c-.245-.042-.525-.367-.721-.52a20.239,20.239,0,0,1-3.252-3.037l-.259-.1a2.317,2.317,0,0,1-1.452-1.941c0-1.286,1.577-1.511,2.509-1.621a9.91,9.91,0,0,0,1.97-.463,7.2,7.2,0,0,1,2.824-.475,9.774,9.774,0,0,0,1.685-.129,2.476,2.476,0,0,0,.856-.4,5.764,5.764,0,0,1,4.7-1.089,4.907,4.907,0,0,0,2.868-.391,7.772,7.772,0,0,1,2.35.533,4.405,4.405,0,0,0,1.741-.425,9.841,9.841,0,0,0,2.647-.65,3.984,3.984,0,0,0,.861-.61c1.189-.909,2.224-.1,3.484.283a3.41,3.41,0,0,0,3.014-.542,3.072,3.072,0,0,1,1.939-.462,2.579,2.579,0,0,0,1.986-.534,4.051,4.051,0,0,1,1.152-.776c.568-.655,1.165-1.271,1.778-1.886l.14-.2a6.611,6.611,0,0,0,.661-1.323c.367-.9,1.5-.967,2.367-.813.753.135,1.038-.518,1.164-1.162a13.3,13.3,0,0,0,.2-2.081,9.714,9.714,0,0,0-.021-1.646,5.076,5.076,0,0,1,.3-2.134,8.677,8.677,0,0,0-.734-4.271,3.4,3.4,0,0,1-.245-2.049,5.823,5.823,0,0,0-.758-3.114,1.462,1.462,0,0,1,.169-1.239,4.4,4.4,0,0,0,.245-2.911c-.24-.811-1.505-1.669-2.232-.977a2.128,2.128,0,0,0,.085,2.71,1.653,1.653,0,0,1,.275.4,1.421,1.421,0,0,0,.211.338c.378.494.861,1.294.251,1.738-1,.726-1.638-.692-2.443-1.064a14.879,14.879,0,0,0-1.511-.544,4.647,4.647,0,0,1-1.859-1.939c-.4-.608-1.556.3-1.968.5-1.6.293-2.488-1.117-2.644-2.52-.137-1.239-1-1.891-1.82-2.741a4.658,4.658,0,0,1-.805-1.862c-.156-.694-.418-1.2-1.2-1.2-1.093,0-1.2.959-1.114,1.841.1,1.009-.481,2.274-1.72,1.772a2.652,2.652,0,0,1-1.757-2.195c-.066-.293-.317-.689-.679-.565-.14.048-.275.412-.4,1.089a4.082,4.082,0,0,1-.457,1.336,1.54,1.54,0,0,0-.272.4c-.079.46-.869,1.067-1.2,1.4-.539.542-1.989,1.276-2.443.183-.317-.766.713-1.017,1.141-1.366,1.16-.948-.245-1.878-.985-2.522-1.038-.9-1.473.092-2.393.491a1.106,1.106,0,0,1-1.321-.211c-.766-.539-.452-2.076-.351-2.739a6.011,6.011,0,0,0-.468-3.745,5.811,5.811,0,0,1-.549-1.738l-.254-.521c-.394-.813-.145-1.294.206-2.087.674-1.513,2.177-1.836,3.444-2.715a2.469,2.469,0,0,0,.644-2.9c-.634-1.688-.494-3.621-.684-5.4a3.05,3.05,0,0,0-.336-.751,3.119,3.119,0,0,1-.409-2.744c.774-2.9-.729-5.853-1.381-8.677-.254-1.2.46-2.433.938-3.505a8.508,8.508,0,0,0,.8-5.243,7.015,7.015,0,0,1,1.509-5.6,6.534,6.534,0,0,0,1.344-1.889,4.844,4.844,0,0,1,1-1.419c.147-.829,1.722-.9,2.369-1.091a17.869,17.869,0,0,1,4.049-.66c.277-.09.554-.18.832-.267l.32-.262a3.718,3.718,0,0,1,.6-.409,12.829,12.829,0,0,1,2.823-1.35l.5-.314a3.1,3.1,0,0,0,1.508-2.544,5.763,5.763,0,0,1,1.743-3.373,6.82,6.82,0,0,0,1.6-3.13,8.2,8.2,0,0,1,1.048-1.986,1.888,1.888,0,0,0,.41-1.791,3.141,3.141,0,0,0-2.477-2.095c-1.7-.258-2.462-1.553-2.953-3.085-.256-.8-.619-1.009-1.448-1.035a9.931,9.931,0,0,0-1.566.1,2.525,2.525,0,0,0-1.916,1.339,10.46,10.46,0,0,1-1.611,1.611,18.527,18.527,0,0,0-2.074,2.074,13.513,13.513,0,0,1-1.738,1.6c-.47.388-.89.827-1.323,1.257a2.469,2.469,0,0,1-1.411.676,4.344,4.344,0,0,0-1.22.378,2.769,2.769,0,0,0-.57.935c-.278.858-1.387,1.225-2.164,1.5a3.945,3.945,0,0,0-1.157.842,5.574,5.574,0,0,1-1.262.642l-.6.6a7.739,7.739,0,0,0-1.041,1.559c-1.12,1.836-3.371,1.355-5.156,1.973a5.3,5.3,0,0,0-.759.338c-1.6.924-2.6-.777-3.37-1.891-.586-1.175-1.9-1.521-3.138-1.735-.853-.148-1.164.406-1.569,1.014a4.269,4.269,0,0,1-3.558,2.54,9.616,9.616,0,0,1-3.148-.93c-.438-.15-1.041-.4-1.342-.541-1.3-.637-2.25.327-3.447.679a2.192,2.192,0,0,1-2.358-.494,9.972,9.972,0,0,1-1.089-1.376,4.011,4.011,0,0,0-1.426-.805c-.927-.375-1.419-1.83-1.751-2.686a3.488,3.488,0,0,0-.855-1.189c-.082-.153-.156-.306-.224-.464-.227-.544-.983-1.01-1.408-1.435-.838-1.085-1.2-3.082-.188-4.192a10.422,10.422,0,0,1,3.008-2.348,6.848,6.848,0,0,0,1.191-.8,6.4,6.4,0,0,0,1.685-.943,2.7,2.7,0,0,1,.563-.373c1.294-.608,1.241-2.459,1.659-3.648a4.673,4.673,0,0,0,.521-1.49,3.624,3.624,0,0,1,1.062-2.287,7.693,7.693,0,0,0,2.282-3.108c.705-1.77,3.135-2.864,4.895-2.864a5.064,5.064,0,0,0,1.336-.2,3.468,3.468,0,0,1,3.206.494c.457.423.46,1.323.56,1.9l1.057.1c.8-.4,1.759.689,2.037,1.342.732,1.736,2.8,2.38,4.556,2.38.9,0,.98-.872.679-1.471a10.82,10.82,0,0,1-.819-2.192c-.312-1.263.724-1.894,1.617-2.488a3.052,3.052,0,0,1,3.75.341,3.038,3.038,0,0,0,2.282.66,6.911,6.911,0,0,1,2.512.454,1.292,1.292,0,0,0,1.189-.729,4.915,4.915,0,0,1,3.386-.193,5.229,5.229,0,0,0,2.393-.528,4.9,4.9,0,0,1,1.352-.42,7.485,7.485,0,0,1,2.525-.851,7.515,7.515,0,0,0,1.218-.354,7.519,7.519,0,0,1,2.81-.655c.489-.135.98-.267,1.471-.4l.333-.2a19.781,19.781,0,0,0,1.87-1.379,14.55,14.55,0,0,0,1.968-1.585c.515-.256,1.012-.534,1.511-.822a8.22,8.22,0,0,0,1.27-2.179l.436-.523c1.014-.9,1.609-.28,2.4.594a.761.761,0,0,0,1.062-.015,1.923,1.923,0,0,0,.235-1.649,27.328,27.328,0,0,1-.267-3.891,5.89,5.89,0,0,0-.908-3.008,1.6,1.6,0,0,1-.3-2.4,3.1,3.1,0,0,0,.673-2.206,4.1,4.1,0,0,1,.283-1.677,5.232,5.232,0,0,0,.521-1.868,3.232,3.232,0,0,1,.655-1.392c.126-.592.269-1.178.415-1.765,0-1.056-1.012-2.3-1.6-3.19-.505-.766-.674-2.042.409-2.427a3.549,3.549,0,0,1,1.337-.8l.2-.2a4.2,4.2,0,0,1,.4-.359,2.056,2.056,0,0,0,.457-1.043,7.625,7.625,0,0,1,2.071-5.37c1.048-1.02,1.125-2.066,1.273-3.458.093-.266.188-.536.283-.8.246-.621.507-1.231.774-1.844a18.441,18.441,0,0,0,.414-5.311,2.828,2.828,0,0,1,2.288-2.728,14.52,14.52,0,0,1,1.851.15c1.081-.325,1.7.756,2.293,1.469a6.746,6.746,0,0,1,1.323,2.261,2.976,2.976,0,0,0,.79,1.057l.074.2c.206.56.41,1.122.6,1.688a3.561,3.561,0,0,0,.8,1.244,8.553,8.553,0,0,1,1.479,2.768,1.931,1.931,0,0,0,2.02.734,7.092,7.092,0,0,1,2.38.323c1.283.058,1.983-.755,2.834-1.606a8.207,8.207,0,0,1,2.89-2.306,4.966,4.966,0,0,1,2.145-.756c1.064,0,1.275.489,1.513,1.377.277,1.024,1.072.734,1.667.092a3.062,3.062,0,0,0,.322-2.638c-.185-.975.116-1.987,1.3-1.638.362.105.723.2,1.093.275a2.463,2.463,0,0,1,1.485.724c.254.343.512.681.792,1,.573.65,1.352-.557,1.9-.8,1.537-.668,3.252.462,4.7.79a2.431,2.431,0,0,1,1.054.618c.705.687,1.022.352,1.326-.406a3.141,3.141,0,0,0-.132-1.017c-.5-1.49.893-3.154,1.873-4.133a1.7,1.7,0,0,1,2.25-.341,2.188,2.188,0,0,1,.043,3.108,2.686,2.686,0,0,0-.592,3.033,5.937,5.937,0,0,0,1.561,1.7c1.02.922,2.287-.914,2.591-1.854.2-.6.637-1.5,1.431-1.228a2.294,2.294,0,0,1,1.128,1.321c.418.872,1.025,2.4.684,3.378-.354,1.014-1.125,1.16-2,1.58a3.567,3.567,0,0,0-2.166,2.956,6.706,6.706,0,0,1-.636,2.185c-.3.536-.611,1.648.187,1.978a2.506,2.506,0,0,0,1.532.037c.488-.143,1.223.3,1.69.465.866.3,1.912-.734,2.612-1.21.993-.763,2.084-.705,3.315-.787a12.98,12.98,0,0,1,4.1-.193,4.974,4.974,0,0,0,3.066-1.146,5.914,5.914,0,0,1,1.136-.6,11.728,11.728,0,0,0,1.458-.721l.348-.145c.544-.225.6-.8.6-1.323,0-1.149.642-1.326,1.625-1.022a7.577,7.577,0,0,0,1.133.272,5.33,5.33,0,0,0,2.911-.375c.974-.632.732-2.361,1.02-3.354.42-1.445,2.6-1.283,3.751-1.7,1.027-.367,1.149-1.682,1.341-2.647.2-.222.4-.446.592-.671.774-.9.816-2.507-.409-2.921-.457-.154-1.147-.927-.536-1.371.51-.373,1.294.061,1.756.288a5.356,5.356,0,0,0,1.337.483c.718.082,1.273-.655,1.807-1.064a7.83,7.83,0,0,0,2.813-2.269,3.689,3.689,0,0,1,2.253-.761,4.231,4.231,0,0,0,1.2-.182l.515-.412a12.957,12.957,0,0,1,.9-2.274,6.05,6.05,0,0,0,.732-2.24c.072-1.45,2.24-1.094,3.061-.684.9.293,1.611-.594,2.3-1.07a4.719,4.719,0,0,1,.794-.523c.568-.285.386-1.268.312-1.782-.245-1.751,1.686-1.823,2.623-2.763a5.545,5.545,0,0,1,1.471-1.07,4.888,4.888,0,0,0,.869-.542,5.415,5.415,0,0,1,1.089-.637,6.03,6.03,0,0,0,2.113-2.023,2.817,2.817,0,0,1,1.106-.924,6.076,6.076,0,0,0,.565-.941,4.378,4.378,0,0,1,.333-.6,4.156,4.156,0,0,0,.283-.349c.584-.758-.427-1.814-1.009-2.274-.319-.216-.628-.439-.938-.668-.314-.212-.618-.431-.919-.655-.259-.177-.507-.359-.744-.557a6.772,6.772,0,0,0-1.812-.927,3.123,3.123,0,0,1-2.1-2.84,6.281,6.281,0,0,0-.79-2.816c-.471-.5-.938-.993-1.4-1.5a4.6,4.6,0,0,1,.22-5.62,6.507,6.507,0,0,0,1.062-1.8c1.051-2.1.75-4.675.877-6.971v-.351a1.344,1.344,0,0,1,2.6-.4c.647,1.725,2.269.724,3.486.367.75-.216,1.9-.1,2.081.919.071.4.716.7,1.067.888,1.342.7.275,2.417-.026,3.417-.492,1.643,1.545,2.031,2.7,2.475.37.143.874.377.755.861-.105.42-.874.269-1.186.193a2.91,2.91,0,0,0-1.664.41c-.858.38-2.031,1.36-1.77,2.4.407,1.619,2.663,1.427,3.856,1.208a10.169,10.169,0,0,1,3.983-.08,3.752,3.752,0,0,1,2.958,2.665c.4,1.473,1.984,2.472,3.291,3.125a4.794,4.794,0,0,1,2.174,2.047c.193.385.734,1,1.2,1,.592,0,1.183-1.064,1.521-1.484a2.062,2.062,0,0,0,.481-.949c.256-1.851,2.118-3.7,4.033-3,1.542.563,1.062,2.7,1.49,3.978a1.433,1.433,0,0,0,2.354.782,2.505,2.505,0,0,0,.866-2.818c-.285-1.535-1.49-1.653-2.834-1.989a1.868,1.868,0,0,1-.774-2.369,3.338,3.338,0,0,1,1.16-1.276c.4-.917.827-2.6-.1-3.373a4.838,4.838,0,0,0-1.677-.748c-1.455-.47-1.74-1.474-1.212-2.81,1.585-1.4,4-1,5.806-.267a13.051,13.051,0,0,1,1.358,3.77c.679,1.7,2.681,1.473,4.128,2.184a4.654,4.654,0,0,0,1.957.61c.7,0,.816-.985.972-1.466.285-.869.417-1.315-.256-1.97a3.943,3.943,0,0,1-.694-.94,1.863,1.863,0,0,1,.312-2.311c.211-.212.42-.415.644-.608,1.215-1.041.016-2.638-.444-3.761a2.91,2.91,0,0,1-.2-.859c0-1.186,1.846-.774,2.583-1.043,1.049-.385.65-2.01.893-2.892s.834-1.754,1.889-1.4a5.9,5.9,0,0,1,1.616,1.03c.941.719,2.462.468,3.561.32a2.055,2.055,0,0,0,1.706-2.792,3.747,3.747,0,0,1,.061-1.093,2.96,2.96,0,0,0-.378-2.055,4,4,0,0,1-.206-2.655c.211-.51.74-.055.9.254.745,1.492,2.94,1.661,4.38,1.373,1.31-.262,2.094.74,2.628,1.809.164.33.891,1.228,1.294,1.088.172-.061.209-.341.209-1.627a11.313,11.313,0,0,1,.114-1.918c.177-.578,1.279-1.241,1.442-.28a2.952,2.952,0,0,1-.029.911c-.2,1.63,1.342,1.983,2.6,2.319a1.72,1.72,0,0,0,.782-.6c.626-.7,1.265-1.392,1.9-2.084,1.208-1.35,3.545-.692,5.108-.417.985.507.586,1.621.158,2.425-.385.721-.7,2.081.051,2.67a6.747,6.747,0,0,0,2.2.671,4.206,4.206,0,0,0,1.954.119c.927,0,1.136.916,1.6,1.479A4.818,4.818,0,0,0,376.647,178c.991.225.832,1.886,1.043,2.647a4.56,4.56,0,0,0,1.421,1.817c.843.827,2.319,1.678,3.542,1.067.676-.338.777-1.207.809-1.875a13.044,13.044,0,0,0-.317-3.748,3.15,3.15,0,0,1,.251-2.372c.932-1.542,2.667-.254,3.978-.254,1.128,0,1.046-1.627,1.075-2.419a9.255,9.255,0,0,1-.058-1.954,3.98,3.98,0,0,0-.362-2.216,3.364,3.364,0,0,0-1.16-.531,2.033,2.033,0,0,1-1.373-2.824c.383-1.323,1.109-1.69,2.3-2.065Zm0,0" transform="translate(-114.31 -163.001)" fill="#5ba2da" fill-rule="evenodd"/>
  </g>
  <path id="Pfad_397" data-name="Pfad 397" d="M352.524,654.88c1.154-.552,2.266-.248,3.46-.248,1.027,0,3.016.076,3.64,1.131.169.28.314.568.462.861.04.428.367.637.668.938l.045.148c.137.462.75.874,1.083,1.217l1.041,1.068c.436.512.874,1.022,1.323,1.523.473.534.9,1.089,1.323,1.66a2.549,2.549,0,0,0,.891.586,3.776,3.776,0,0,1,1.857,3.809,2.041,2.041,0,0,0,.492,1.65,2.739,2.739,0,0,1,.538.948c.523,1.783-.335,3.294-.692,4.977l-.156.24a2.971,2.971,0,0,1-2.417,1.075,6.051,6.051,0,0,0-1.759.394,4.485,4.485,0,0,0-1.207,2.451c-.354,1.675-2.2.935-3.484,1.337a1.668,1.668,0,0,0-.4.2,7.442,7.442,0,0,1-4.1.937,2.887,2.887,0,0,1-1.8-.653c-.235-.2-.338-.272-.4-.282-.23-.04-.452-.354-.623-.507a2.182,2.182,0,0,0-2.856-.045,4.194,4.194,0,0,1-1.743.9c-1.492.367-1.778-1.711-2.43-2.5a2.138,2.138,0,0,0-1.231-.809c-.47-.108-1.152-.28-1.286-.837-.159-.66.523-1.431.861-1.944a5.191,5.191,0,0,0,.415-1.1,7.133,7.133,0,0,1,.42-1.12,2.689,2.689,0,0,0-.4-3,5.193,5.193,0,0,1-.92-2.9,17.258,17.258,0,0,0-.467-2.517,1.706,1.706,0,0,1,.452-2.1,9.605,9.605,0,0,1,1.6-.93,4.365,4.365,0,0,0,1.183-.913,11.458,11.458,0,0,0,1.083-.684c.916-.335,1.537-1.318,2.2-2,1.65-1.706,1.817-1.878,2.012-2.073A4.6,4.6,0,0,1,352.524,654.88Zm0,0" transform="translate(-176.884 -322.121)" fill="#5ba2da" fill-rule="evenodd"/>
  <g id="Gruppe_70" data-name="Gruppe 70" transform="translate(208.561 386.15)" clip-path="url(#clip-path-2)">
    <path id="Pfad_398" data-name="Pfad 398" d="M413.236,734.883a1.914,1.914,0,0,1,1.944-.053,6.76,6.76,0,0,1,.447,1.693,2.768,2.768,0,0,0,1.893,2.515,2,2,0,0,1,1.392,1.64,5.728,5.728,0,0,1-.507,2.493,1.646,1.646,0,0,0-.116,1.318c.314,1.263-.715,2.507-1.218,3.611l-.444.539a4.511,4.511,0,0,0-.462.312,2.424,2.424,0,0,1-2.893.079,6.072,6.072,0,0,0-2.34-1c-1.355-.356-1.865-2.055-2.079-3.23a18.893,18.893,0,0,0-1.532-4.887c-.446-.9-.594-1.957.463-2.583a3.068,3.068,0,0,1,2.121-.267C411.374,737.249,412.221,735.657,413.236,734.883Zm0,0" transform="translate(-406.318 -734.191)" fill="#5ba2da" fill-rule="evenodd"/>
  </g>
  <path id="Pfad_400" data-name="Pfad 400" d="M478.15,692.15a2.011,2.011,0,0,1,2.488.071,2.163,2.163,0,0,0,1.688.463c1.765-.222,2.617,1.588,3.772,2.615.8.7.967,2.068,1.221,3.056a5.069,5.069,0,0,1-.385,3.758,10.744,10.744,0,0,0-.663,1.529c-.56,1.725-2.636.956-3.959,1.091a1.862,1.862,0,0,1-1.775-.7,6.649,6.649,0,0,1-2.243-1.83,5.174,5.174,0,0,1-1.466-2.11v-.534a2.935,2.935,0,0,0-.092-2.189,4.475,4.475,0,0,1-.122-3.8A4.823,4.823,0,0,1,478.15,692.15Zm0,0" transform="translate(-220.186 -334.169)" fill="#5ba2da" fill-rule="evenodd"/>
  <path id="Pfad_401" data-name="Pfad 401" d="M314.94,629.667l.465-.116h.385a1.559,1.559,0,0,0,.7.132c1.059,0,1.707.792,2.369,1.487a3.721,3.721,0,0,0,2.66.951,5.46,5.46,0,0,1,2.475.676c.518.335.51,1.112.557,1.648a5.878,5.878,0,0,0,.267,1.257,7.245,7.245,0,0,1,.351,1.35,1.834,1.834,0,0,1-.277,1.925c-.351.433-.631.94-.943,1.4-.7,1.6-2.623-.021-3.692-.266a6.078,6.078,0,0,1-.906-.27,5.21,5.21,0,0,1-2.562-2.62,13.013,13.013,0,0,0-.533-1.2,10.43,10.43,0,0,1-.751-2.055c-.266-.317-.531-.636-.795-.953C313.9,631.962,313.257,630.085,314.94,629.667Zm0,0" transform="translate(-167.61 -314.026)" fill="#5ba2da" fill-rule="evenodd"/>
  <path id="Pfad_402" data-name="Pfad 402" d="M667.665,418.7c.914-.393,1.416-.09,2.325-.069a2.816,2.816,0,0,1,.951.209,3.727,3.727,0,0,0,1.252.193c1.085,0,1.333.454,1.373,1.5.026.673.066,1.339.116,2.007a3.408,3.408,0,0,1-.475,2.441,1.289,1.289,0,0,0-.315.607,7.421,7.421,0,0,0-.763.544,15.88,15.88,0,0,0-3.341,1.519c-1.255.626-2.5-.866-3.321-1.606a2.133,2.133,0,0,1-.613-2.335,4.93,4.93,0,0,0,.254-2.153,2.074,2.074,0,0,1,1.439-2.44C666.926,419,667.3,418.861,667.665,418.7Zm0,0" transform="translate(-281.226 -245.684)" fill="#5ba2da" fill-rule="evenodd"/>
  <path id="Pfad_403" data-name="Pfad 403" d="M422.3,669.423c1.44-.666,2.8.063,4.226.256a2.728,2.728,0,0,1,1.117.369,1.674,1.674,0,0,0,.4.275c.412.071.874.916,1.02,1.254a2.142,2.142,0,0,1-.011,1.651c-.911.805-.6,1.909-.922,2.956-.327,1.062-1.717.988-2.559,1.355a2.649,2.649,0,0,1-2.206.219,4.386,4.386,0,0,1-2.911-3.6C420.263,672.389,420.551,670.237,422.3,669.423Zm0,0" transform="translate(-202.104 -326.849)" fill="#5ba2da" fill-rule="evenodd"/>
  <path id="Pfad_404" data-name="Pfad 404" d="M280.365,643.916c1.553-.673,3.273.774,4.615,1.331,1.312.542.076,2.4-.32,3.2-.233.465-.46.927-.671,1.4-.338.753-.97,1.07-1.6,1.54a3.37,3.37,0,0,0-.539.932c-.188.383-.489.954-1.007.954a1.329,1.329,0,0,1-1.054-.586,9.6,9.6,0,0,0-1.976-2.1,2.608,2.608,0,0,1-.655-1.672c0-2.026,1.233-3.12,2.528-4.453A1.816,1.816,0,0,1,280.365,643.916Zm0,0" transform="translate(-155.716 -318.621)" fill="#5ba2da" fill-rule="evenodd"/>
  <path id="Pfad_405" data-name="Pfad 405" d="M99.217,512.142c1.07-.813,2.29.172,3.309.452,1.466.4,1.693,2.488,1.857,3.685,0,2.335-2.929,3.069-4.664,3.584-1.154-.119-1.315-1.321-1.722-2.232A4.51,4.51,0,0,1,99.217,512.142Zm0,0" transform="translate(-97.557 -275.904)" fill="#5ba2da" fill-rule="evenodd"/>
  <path id="Pfad_406" data-name="Pfad 406" d="M467.037,649.55a2.232,2.232,0,0,1,2.559.37,6.255,6.255,0,0,1,.74,1.189,4.767,4.767,0,0,0,.742,1.141,7.8,7.8,0,0,1,.348,1.339,1.639,1.639,0,0,1-.763,1.632,3.558,3.558,0,0,0-1.046,1.706c-.982.713-2.1-.758-2.953-1.186a3.9,3.9,0,0,1-1.97-2.985c-.135-1.432,1.122-2.678,2.346-3.206Zm0,0" transform="translate(-216.443 -320.428)" fill="#5ba2da" fill-rule="evenodd"/>
  <path id="Pfad_407" data-name="Pfad 407" d="M299.1,685.943a2.194,2.194,0,0,1,3.008,1.088c.6,1.392-.114,2.269-.834,3.349a4.372,4.372,0,0,1-2.013,2.013,1.754,1.754,0,0,1-2.435-1.089c-.312-1.043-.774-2.609-.413-3.679C296.75,686.64,298.242,686.331,299.1,685.943Zm0,0" transform="translate(-161.91 -332.214)" fill="#5ba2da" fill-rule="evenodd"/>
  <path id="Pfad_408" data-name="Pfad 408" d="M407.525,716.554l.877-.285.463-.037c.934-.079,1.426.664,1.743,1.411a5.618,5.618,0,0,1,.129,4.187,2.2,2.2,0,0,1-1.7.3,2.249,2.249,0,0,0-1.419.2c-1.02.47-2.195.272-2.279-1.009a12.952,12.952,0,0,1,.5-3.558c.108-.169.216-.335.325-.5A3.636,3.636,0,0,1,407.525,716.554Zm0,0" transform="translate(-197.221 -342.094)" fill="#5ba2da" fill-rule="evenodd"/>
  <path id="Pfad_409" data-name="Pfad 409" d="M687.6,631.067c1.035-.79,1.819.56,2.728.916a2.243,2.243,0,0,1,1.236,1.178c.454,1.049.927,2.956-.449,3.413-.988.328-2.361.764-3.368.341-1.17-.494-1.159-1.479-1.275-2.7a9.513,9.513,0,0,1-.058-1.849A2.931,2.931,0,0,1,687.6,631.067Zm0,0" transform="translate(-288.238 -314.438)" fill="#5ba2da" fill-rule="evenodd"/>
  <path id="Pfad_410" data-name="Pfad 410" d="M328.665,680.127c.8-.346,1.456.275,2.169.6a3.374,3.374,0,0,1,1.582,4.052c-.473,1.405-2.68,1-3.724.565-1.413-.594-2.7-2.362-1.532-3.8.2-.251.266-.351.285-.457C327.509,680.716,328.375,680.256,328.665,680.127Zm0,0" transform="translate(-171.761 -330.371)" fill="#5ba2da" fill-rule="evenodd"/>
  <path id="Pfad_411" data-name="Pfad 411" d="M614.523,654.6c.927-.708,1.949.266,2.831.623a1.66,1.66,0,0,1,.486,2.617,1.626,1.626,0,0,0-.275.4c-.169.983-1.651,1.4-2.42,1.4a2.652,2.652,0,0,1-2.266-1.363C612.243,656.818,613.445,655.424,614.523,654.6Zm0,0" transform="translate(-264.375 -322.057)" fill="#5ba2da" fill-rule="evenodd"/>
  <path id="Pfad_412" data-name="Pfad 412" d="M579.278,186.69c.42-.41,1.072-.872,1.685-.613,1.667.7.288,3.112.409,4.438a3.294,3.294,0,0,1-.053,1.114c-.33.758-1.347.248-1.893.058a2.558,2.558,0,0,1-.943-3.946,1.094,1.094,0,0,0,.294-.563Zm0,0" transform="translate(-253.113 -170.393)" fill="#5ba2da" fill-rule="evenodd"/>
  <path id="Pfad_413" data-name="Pfad 413" d="M450.92,636.713c.747-.544,2.34-.164,3.127.166a3.864,3.864,0,0,0,1.632.974.883.883,0,0,1,.068,1.7,5.185,5.185,0,0,1-4.8-.486A1.714,1.714,0,0,1,450.92,636.713Zm0,0" transform="translate(-211.839 -316.257)" fill="#5ba2da" fill-rule="evenodd"/>
  <path id="Pfad_414" data-name="Pfad 414" d="M617.788,630.75c.887-.74,1.688.375,2.229.93a4.671,4.671,0,0,1,.943,1.242c.24.985-.9,2.036-1.815,2.124a1.669,1.669,0,0,1-1.73-1.21C617.1,633.1,617.106,631.318,617.788,630.75Zm0,0" transform="translate(-265.836 -314.335)" fill="#5ba2da" fill-rule="evenodd"/>
  <path id="Pfad_415" data-name="Pfad 415" d="M207.511,702.649a1.559,1.559,0,0,1,2.24,1.5c.042.687,0,2.177-.943,2.327a2.594,2.594,0,0,1-2.514-1.453A1.926,1.926,0,0,1,207.511,702.649Zm0,0" transform="translate(-132.73 -337.645)" fill="#5ba2da" fill-rule="evenodd"/>
  <path id="Pfad_416" data-name="Pfad 416" d="M315.136,616.194a1.838,1.838,0,0,1,2.678,1.817c0,1.751-2.836,1.585-3.629.5C313.556,617.646,314.3,616.579,315.136,616.194Zm0,0" transform="translate(-167.631 -309.634)" fill="#5ba2da" fill-rule="evenodd"/>
  <path id="Pfad_417" data-name="Pfad 417" d="M690.6,380.063c.351-.536,1.381-.277,1.785.034.542,1.3-.42,2.253-1.321,3-.346.288-1.944,1.017-1.944-.016C689.117,382.067,690.06,380.887,690.6,380.063Zm0,0" transform="translate(-289.12 -233.135)" fill="#5ba2da" fill-rule="evenodd"/>
  <path id="Pfad_418" data-name="Pfad 418" d="M588.569,199.364c.7-.618,2.232-.523,2.43.557.169.917-1.138,2.129-1.9,2.388-.439.148-.653-.074-.97-.327C587.359,201.369,588.009,199.863,588.569,199.364Zm0,0" transform="translate(-256.303 -174.596)" fill="#5ba2da" fill-rule="evenodd"/>
  <path id="Pfad_419" data-name="Pfad 419" d="M442.233,174.949c.6-.5,2.092-.542,2.43.275.275.663-.137,1.241-.478,1.8-.344.3-1.276,1.051-1.783.661A1.815,1.815,0,0,1,442.233,174.949Zm0,0" transform="translate(-208.994 -166.698)" fill="#5ba2da" fill-rule="evenodd"/>
  <path id="Pfad_420" data-name="Pfad 420" d="M143.11,482.62c.642-.594,1.74-.183,2.43.1.88.356,1.54,1.292.546,2.016-1.062.771-1.922-.174-2.67-.853C143.068,483.563,142.669,483.029,143.11,482.62Zm0,0" transform="translate(-112.245 -266.348)" fill="#5ba2da" fill-rule="evenodd"/>
  <path id="Pfad_421" data-name="Pfad 421" d="M704.468,296.1c.671-.6,1.21-.462,1.437.3a2.186,2.186,0,0,1-.665,2.131c-.475.373-.811.1-1.2-.216C703.32,297.735,703.956,296.56,704.468,296.1Zm0,0" transform="translate(-293.848 -205.926)" fill="#5ba2da" fill-rule="evenodd"/>
  <path id="Pfad_422" data-name="Pfad 422" d="M696.168,396.225c.866-.824,1.9-.051,1.244.966C696.735,398.237,695.222,397.125,696.168,396.225Zm0,0" transform="translate(-291.305 -238.357)" fill="#5ba2da" fill-rule="evenodd"/>
  <path id="Pfad_423" data-name="Pfad 423" d="M436.878,189.757a.707.707,0,0,1,1.114-.06c.317.451.388,1.532-.306,1.7C436.8,191.619,436.579,190.351,436.878,189.757Zm0,0" transform="translate(-207.397 -171.511)" fill="#5ba2da" fill-rule="evenodd"/>
  <path id="Pfad_424" data-name="Pfad 424" d="M414.6,273.671a6.85,6.85,0,0,0,3.059.792,4.267,4.267,0,0,0,3.933-2.314,3.9,3.9,0,0,0-.351-4.115l-.1-.132c-1.82-2.427-3.259-4.345-5.335-4.345a3.5,3.5,0,0,0-.909.122c-1.952.517-2.092,1.764-2.272,3.341a17.269,17.269,0,0,1-.359,2.248C412.007,270.361,411.957,272.385,414.6,273.671Zm19.282-19.91c3.367,0,6.009-1.838,6.009-4.187A3.187,3.187,0,0,0,439.35,248a6.4,6.4,0,0,0-10.935,0,3.179,3.179,0,0,0-.539,1.571C427.876,251.923,430.515,253.761,433.883,253.761Zm35.4,46.072-2.358-1.344-4.981,10.241,3.439,1.954,6.263-9.511Zm-22.34,43.843c8.994,44.329,8.312,93.471,8.312,93.471h-268.1c20.742-94.622,70.811-32.618,77.895-73.484S240.8,264.421,296.342,239.878s54.606,25.972,107.831,34.575c22.5,3.637,35.111,33.286,42.166,66.3l1.381.095.222,2.581-1,.245" transform="translate(-126.572 -185.682)" fill="#5ba2da"/>
  <path id="Pfad_425" data-name="Pfad 425" d="M447.548,234.756a2.685,2.685,0,0,0-.454-1.265,5.8,5.8,0,0,0-9.907,0,2.663,2.663,0,0,0-.457,1.265c0,1.984,2.422,3.59,5.409,3.59S447.548,236.74,447.548,234.756ZM429.02,253.575c-2.048-2.731-3.5-4.728-5.711-4.139s-1.482,2.11-2.205,5.153a3.175,3.175,0,0,0,2.018,3.73C428.138,260.829,431.069,256.3,429.02,253.575Zm7.271,14.361c-21.522,4.242-39.532,6.236-51.035-8.573S426.4,227.017,426.4,227.017C480.6,222.339,471.867,260.921,436.291,267.936ZM301.918,187.453l18.616,132.911H231.271L212.652,187.453h89.266" transform="translate(-134.828 -170.863)" fill="#f8e3c4"/>
  <path id="Pfad_426" data-name="Pfad 426" d="M423.353,238.218a28.959,28.959,0,0,0-5.29-2.763,5.09,5.09,0,0,0-3.772-.063c-3.2,1.265,2.065,2.866-2.626,4.572-.264.1-.521.188-.772.28a4.652,4.652,0,0,1,1.918,1.826,2.813,2.813,0,0,1,.053,2.456c-.557,1.352-.016,2.739.5,4.086.6,1.548,1.281,3.307-.544,4.382a4.041,4.041,0,0,1-1.133.452c.655,1.754,1.492,3.008,5.594,4.007,7.6,1.849,9.847-1.173,6.532-5.653S426.668,240.461,423.353,238.218Zm21.862,11.847c2.987,0,5.409-1.606,5.409-3.59a3.293,3.293,0,0,0-.69-1.635,5.718,5.718,0,0,0-9.439,0,3.292,3.292,0,0,0-.69,1.635C439.806,248.459,442.228,250.065,445.215,250.065ZM299.347,312.7,278.589,206.914H268l2.414,24.305h1.606l1.39,5-.982,15.286.211,2.155,4.144-2.189.687,5.4-4.205,3.056L278.5,312.7Zm-27.53,0-3.088-31.1-2.034,31.1Zm-8.09-81.484-2.415-24.305H247.733L240.853,312.7h15.755l5.328-81.484ZM309.741,312.7h23.515v6.68h-22.2l18.7,95.285H319.357l-18.7-95.285h-34.4l-6.231,95.285H249.944l6.228-95.285H240.419l-6.194,95.285h-10.4l6.194-95.285h-7.871V312.7h8.307L240.142,163.8h10.393l-2.369,36.437h29.11L270.128,163.8h10.394Zm134.326-36.369-6.569,1.273,6.788,10.256,3.883-.75,2.465-12.049Zm-93.008-68.956a7.411,7.411,0,0,1-3.529,8.357,6.759,6.759,0,0,1-9.839-4.112l-1-3.695a17.241,17.241,0,0,1-4.15-.74c-1.473-.584-2.242-15.5-2.242-15.5-.483-6.6,11.1-11.466,14.7-5.15a30.283,30.283,0,0,1,1.4,4.025,1.018,1.018,0,0,1,.211.026c1.482.391,2.227,4.031,1.614,6.307,1,3.582,2.034,7.443,2.839,10.478" transform="translate(-137.904 -163.203)" fill="#f18f7a"/>
  <g id="Gruppe_71" data-name="Gruppe 71" transform="translate(66.564 0)" clip-path="url(#clip-path-3)">
    <path id="Pfad_427" data-name="Pfad 427" d="M402.539,252.376c2.646-1.561-1.574-4.873-.208-8.186s-4.409-4.611-5.071-4.775C388.878,237.37,399.893,253.934,402.539,252.376Zm46.294-10.055c2.99,0,5.412-1.609,5.412-3.593s-2.422-6.529-5.412-6.529-5.409,4.548-5.409,6.529S445.846,242.32,448.833,242.32ZM263.15,231.531l-5.261,80.491a.6.6,0,0,0-.048.729l-.452,6.891a.6.6,0,0,0,1.191.079l.438-6.706h66a.6.6,0,1,0,0-1.193H291.6l-20.663-105.3c0-.005,0-.013,0-.018l-8.46-43.106a.6.6,0,0,0-1.17.23l8.323,42.406H239.009a.6.6,0,1,0,0,1.191h30.856l20.523,104.6H259.1l5.285-80.848a.618.618,0,0,0-.161-.446.6.6,0,0,0-.436-.187H253.7a.52.52,0,0,0-.126.013h-.005a.587.587,0,0,0-.327.2s0,0,0,0l-.005.005,0,0a.477.477,0,0,0-.055.087h0v0a.553.553,0,0,0-.066.245l-5.29,80.919h-33.9a.6.6,0,0,0,0,1.193h33.819l-.359,5.489h-33.46a.6.6,0,1,0,0,1.191H247.3l-2.446,37.43a.594.594,0,0,0,.555.631h.039a.6.6,0,0,0,.594-.555l2.486-38.058a.021.021,0,0,0,0-.008l5.727-87.6Zm120.662,109.46a.586.586,0,0,0-.578.436L382,346.277a.591.591,0,0,0,.428.721.585.585,0,0,0,.727-.428l.927-3.639.309-1.208a.6.6,0,0,0-.431-.724A.559.559,0,0,0,383.813,340.991Zm-18.444,9.631a.6.6,0,0,0-1.075.515,8.593,8.593,0,0,0,4.459,4.194.565.565,0,0,0,.227.043.594.594,0,0,0,.222-1.146A7.39,7.39,0,0,1,365.369,350.622Zm-43.077,4.133a.591.591,0,0,0,.834-.111.6.6,0,0,0-.108-.837,5.863,5.863,0,0,1-2.242-3.888.6.6,0,1,0-1.183.153A7.072,7.072,0,0,0,322.292,354.755Zm17.567-4.184a.6.6,0,0,0-.219-.813.533.533,0,0,0-.079-.026.59.59,0,0,0-.737.246l-2.3,4.009a.593.593,0,0,0,.222.813.571.571,0,0,0,.293.08.589.589,0,0,0,.518-.3l1.585-2.755Zm54.966,46.26a.586.586,0,0,0,.483-.573.594.594,0,0,0-.6-.594h-.119l-1.566-7.869L382.815,394l.676,1.664h-7.713a.567.567,0,0,0-.156.029.588.588,0,0,0-.441.565.6.6,0,0,0,.6.6h8.2l3.209,7.876c-11.682,1.183-13.608,9.652-13.608,9.652h24.747ZM471.242,377l-9.627-41.143H449.127L448.857,377Zm-30.08-41.143H426.3L420.506,377h20.385Zm-.314,47.937h-21.3l-.663,4.71a31.55,31.55,0,0,1,9.483,2.924,42.129,42.129,0,0,0,12.406,3.748Zm39.947,0,7.158,30.589h-7.967l-7.155-30.589H450.447a51.4,51.4,0,0,0,7.224,2.407c.01.208.021.414.031.621a51.894,51.894,0,0,1-8.727-3.027h-.164l-.079,12.2c3.1.164,6.241.183,9.35.085.005.2.013.4.018.589-3.111.1-6.267.079-9.371-.085v-.375l-.116,18.172h-7.963l.121-19.076v.462a42.757,42.757,0,0,1-12.676-3.812,31.033,31.033,0,0,0-9.292-2.871l.029-.216-3.592,25.513h-7.967l3.68-26.12-.037.266a92.618,92.618,0,0,0-17.359,1.955l-.116-.584A93.451,93.451,0,0,1,411,387.935l.581-4.142h-7.01L404.254,377h8.285l.959-6.78c-3.135-.108-6.226-.029-9.149.047-4.6.119-9.577.249-14.686.661l-.118-.589c5.145-.417,10.161-.547,14.789-.668,2.953-.074,6.077-.156,9.247-.045l4.754-33.769h-8.978V324.4h11.237l-.415-4.862,2.021-.172.42,4.908-1.509.126h54.527v11.458h-6.059L479.206,377h10.721l.314,6.793ZM442.6,302.9l1.588,9.551,2.554-9.551Zm7.1,0-2.461,7.546a13.429,13.429,0,0,0,2.041-2.818l2.559-4.729Zm-10.523-1.191-3.133-14.134,3.883-.75,2.472,14.884h4.662l5.174-19.322-.026-.787a14.167,14.167,0,0,1,4.086-10.433l1.31-1.326.43,1.469a14.167,14.167,0,0,1-1.994,12.149l-5.953,18.249h2.4l1.046-1.934a1.368,1.368,0,0,1-.269-.816,1.391,1.391,0,1,1,1.392,1.39.619.619,0,0,1-.074-.008l-.74,1.368h2.784l8.415-15.747,3.439,1.954-8.349,13.793h7.66a.6.6,0,1,1,0,1.191h-8.381l-9.533,15.75-1.761-1,7.876-14.747H453.2l-2.863,5.293a14.662,14.662,0,0,1-3.843,4.551l-1.471,4.511,2.24,1.154.216,2.533-1.669,1.26.01.056-.111.021-2.8,2.116-.74-8.608.153.076-.172-.769a14.627,14.627,0,0,1-4.72.782,5.139,5.139,0,0,1-4.5-7.636l1.577-2.832.237,2.026-.772,1.387a3.947,3.947,0,0,0,3.453,5.864,13.567,13.567,0,0,0,4.461-.755l-2.444-11.03h-5.3a.6.6,0,1,1,0-1.191ZM319.177,191.676c.235,2.325,3.054,2.5,3.054,2.5a5.682,5.682,0,0,1,.074-1.386.3.3,0,0,0,.214.272.4.4,0,0,0,.079.008.294.294,0,0,0,.288-.217,1.536,1.536,0,0,1,1.664-1.112.3.3,0,0,0,.074-.592,2.12,2.12,0,0,0-2.288,1.482,7.547,7.547,0,0,1,.772-2.15c1.55.535,2.744-2.145,2.744-2.145s.18.655,2.121,1.727,2.993-1.429,2.993-1.429c.166,2.979,3.23,1.429,3.23,1.429a8.717,8.717,0,0,0,1.466,3.661c.264-1.109,1.08-3.851,2.707-3.42.84.219,1.442,1.49,1.7,2.958a2.674,2.674,0,0,0-.552-5.293s-.013,0-.021,0a3.323,3.323,0,0,0-.275-.191s1.968-1.669,1.432-3.4c-.193-.618-.993-1.1-1.936-1.453a2.727,2.727,0,0,0,.034-.325,2.357,2.357,0,0,0-4.187-1.492,4.618,4.618,0,0,0-.961-1.236c-1.252-1.191-4.035,1.07-4.035,1.07s-.494-1.667-2.818-1.445a2.6,2.6,0,0,0-2.436,2.4s-3.048-.3-4.538,1.41.536,5.024.536,5.024A3.654,3.654,0,0,0,319.177,191.676Zm7.3,8.22-.359-3.692s-1.577,2.086-1.371,2.8S326.478,199.9,326.478,199.9Zm4.488-7.588a.3.3,0,0,0,.206-.082.3.3,0,0,0,.01-.423,4.005,4.005,0,0,0-1.635-1.1,2.412,2.412,0,0,0-2.031.187.3.3,0,1,0,.317.5,1.816,1.816,0,0,1,1.527-.126,3.433,3.433,0,0,1,1.39.945A.3.3,0,0,0,330.966,192.307Zm-6.656,1.394c-.394,0-.711.425-.711.951s.317.956.711.956.711-.428.711-.956S324.7,193.7,324.309,193.7Zm4.3.478c0,.526.317.951.711.951s.708-.425.708-.951-.317-.953-.708-.953S328.609,193.654,328.609,194.18Zm10.684,21.27a6.752,6.752,0,0,1-9.723-3.764l-8.114,2.266a7.155,7.155,0,0,0-.953.348v-.008a12.039,12.039,0,0,0-9.231,11.107l-.621,14.636.013-.272a65.707,65.707,0,0,1-4.73,5.257l.1.734a63.435,63.435,0,0,0,4.588-5l-.383,9.028,12.652-1.122,2.4,9.361q-.95,1.441-1.83,2.929c-1.215,2.07-2.353,4.247-3.454,6.349-2.557,4.884-5.211,9.915-8.991,13.967l.108.766c4.013-4.173,6.759-9.395,9.411-14.456,1.1-2.1,2.232-4.265,3.442-6.326.486-.827.993-1.638,1.513-2.441l7.341,28.735,46.727-12.763-5.42-16.3q4.532-1.866,9.141-3.55c-.156-.145-.306-.3-.459-.452q-4.466,1.637-8.867,3.444v0l-2.837-8.537.177.528q3.625-2.048,7.266-4.073a6.691,6.691,0,0,1,.172-.777q-3.824,2.128-7.629,4.276l-2.25-6.762,10.946-4.419-15.864-27.482a12.044,12.044,0,0,0-13.159-4.9l-.428.116.016.068a7.938,7.938,0,0,0-1,.2l-6.368,1.778A7.411,7.411,0,0,1,339.293,215.45ZM310.514,411.3c-.074.076-.135.145-.2.222l-17.105-91.54a.6.6,0,0,0-1.175.219l2.242,11.992c-4.8,3.98-8.339,9.4-11.721,15.278-.641,1.113-1.418,2.509-2.191,3.9-4.879,8.759-9.918,17.818-18.753,22.163a28.441,28.441,0,0,1-7.3,2.362l-.04.613a29,29,0,0,0,7.6-2.441c9-4.426,14.091-13.568,19.015-22.408.557-1,1.83-3.266,1.83-3.266s6.758-11.355,11.686-15.53l5.861,31.384c-1.461,2.169-2.758,4.461-4.033,6.717-2.7,4.778-5.494,9.72-9.752,13.2-8.045,6.574-19.015,6.49-29.627,6.411-1.157-.008-2.327-.019-3.494-.019l-.04.6c1.181,0,2.361.008,3.529.018,10.715.08,21.8.162,30.011-6.547,4.344-3.547,7.165-8.539,9.891-13.368,1.17-2.063,2.359-4.163,3.674-6.162l8.072,43.185-.019-.095a240.325,240.325,0,0,1-33.1-4.781,74.986,74.986,0,0,0-22.8-.937l-.039.6a74.623,74.623,0,0,1,22.717.924,240.992,240.992,0,0,0,33.333,4.8l.726,3.88a13.616,13.616,0,0,0-1.2,1.712h1.519l.021.111a.6.6,0,0,0,.589.486.555.555,0,0,0,.109-.01.587.587,0,0,0,.475-.586h.3Zm65.3-147.778a106.7,106.7,0,0,1,10.917-5.145c.206-.082.414-.156.624-.238-.2-.132-.4-.269-.6-.406-.082.031-.161.06-.241.092a106.281,106.281,0,0,0-10.887,5.124Zm-172.1,150.858h.66a57.663,57.663,0,0,1,12.007-12.06l.045-.687c-.99.726-1.962,1.477-2.908,2.267A58.631,58.631,0,0,0,203.711,414.383Zm154.339-91.83c-4,7.021-8.624,13.513-14.884,18.209l-.423,1.048c6.555-4.662,11.347-11.215,15.467-18.338Zm23.468-38.143c.06.216.116.433.176.65a39.969,39.969,0,0,1,5.6-4.543c12.173-8.146,27.313-8.41,44.405-7.932.579.016,1.162.032,1.754.051-.122-.2-.245-.407-.367-.605-.46-.016-.919-.026-1.371-.039-17.192-.481-32.433-.212-44.755,8.03A40.831,40.831,0,0,0,381.518,284.409ZM227.186,395.973a53.855,53.855,0,0,1,16.012-4.387l.04-.6a54.065,54.065,0,0,0-16.012,4.382Zm91.582-45.039a49.123,49.123,0,0,0-8.92,4.009l.124.621a47.5,47.5,0,0,1,8.759-3.985ZM228.406,377.22l-.04.6a98.67,98.67,0,0,1,11.614-.444c1.376,0,2.76,0,4.147-.024l.04-.594c-1.4.021-2.795.021-4.187.021A99.655,99.655,0,0,0,228.406,377.22Zm96.614-60.713c.523-.576,1.033-1.165,1.527-1.773l.312-1.36c-.589.771-1.2,1.521-1.839,2.242ZM196.755,414.383h.594c-.684-13.8,7.967-27.721,20.431-33.635l.043-.676C205,386,196.072,400.254,196.755,414.383ZM322.384,319.1h-.935a25.609,25.609,0,0,1-2.774,2.01,47.522,47.522,0,0,1-10.521,4.35c-1.273.409-2.559.826-3.837,1.283l.116.589c1.3-.462,2.609-.887,3.9-1.3a47.874,47.874,0,0,0,10.652-4.414A26.409,26.409,0,0,0,322.384,319.1Zm-106.79,95.285.039-.579c-.388.2-.765.391-1.128.579Zm159.693-19.9c-5.9,1.751-11.63,3.632-16.891,5.367-4.012,1.321-7.8,2.57-11.085,3.558a130.326,130.326,0,0,1-13.233,3.315l.912-9.87h.055a.593.593,0,0,0,.053-1.183l.724-7.858a16.322,16.322,0,0,0,6.877-.13c4.48-1.088,8.455-3.592,12.3-6.009,1.656-1.041,3.365-2.118,5.092-3.064a53.9,53.9,0,0,1,9.652-4.081l-.159-.576a54.569,54.569,0,0,0-9.781,4.134c-1.74.956-3.46,2.036-5.119,3.082-3.8,2.393-7.736,4.868-12.121,5.933a15.672,15.672,0,0,1-6.682.119l-.029.325.346-3.753-10.916,4-.97,7.869h-7.538a.6.6,0,1,0,0,1.191h7.393l-.98,7.984a23.7,23.7,0,0,0-3.386.79l1.72,8.754h11.857l.666-7.209-.016.169a129.24,129.24,0,0,0,13.458-3.365c3.294-.988,7.086-2.237,11.1-3.561,5.253-1.73,10.969-3.613,16.862-5.357ZM226.293,409.671a108.678,108.678,0,0,1,16.044-4.929l.042-.611a108.915,108.915,0,0,0-16.041,4.889Zm83.4-1.421.114.605.224.01-.116-.6Zm2.647-191.584c.045-.039.087-.079.132-.119C312.432,216.586,312.389,216.626,312.344,216.665Zm.861-.877c-.053.061-.108.122-.161.183C313.1,215.91,313.152,215.849,313.205,215.788Zm.719-.98-.124.19Zm-10.663,11.12-.1-.71c2.6-2.333,5.084-4.818,7.47-7.409a7.969,7.969,0,0,1-2.1.71l-1.038.191.275-.822a8.016,8.016,0,0,1,4.86-4.992l13.5-10.2a7.812,7.812,0,0,1-1.31-.209.3.3,0,0,1-.216-.364.3.3,0,0,1,.364-.211,7.249,7.249,0,0,0,1.909.222l1.973-1.492.716.9-.177.151a7.3,7.3,0,0,0,1.5-.74.3.3,0,0,1,.414.087.3.3,0,0,1-.087.412,7.993,7.993,0,0,1-2.906,1.144l-14.266,12.028h0l.788-.661A119.533,119.533,0,0,1,303.261,225.928ZM363.7,352.806l-.158-.581c-3.537,1.63-7.274,2.927-10.943,4.194a85.067,85.067,0,0,0-14.438,6.011l-.063.7c4.416-2.586,9.466-4.34,14.7-6.149C356.446,355.719,360.167,354.428,363.7,352.806Zm25.465-31.226c-1.7,3.553-3.434,7.142-5.351,10.59v1.214c2.137-3.737,4.028-7.667,5.887-11.548,4.046-8.431,8.233-17.147,14.844-23.655,7.277-7.158,17.882-11.685,29.929-12.985l-.37-.557c-12.047,1.357-22.667,5.927-29.973,13.119C397.442,304.338,393.232,313.1,389.164,321.58Zm17.219,2.7a135.25,135.25,0,0,1,27.166-19.086c.288-.153.583-.309.882-.464l-.074-.634c-.37.193-.737.385-1.091.573a135.854,135.854,0,0,0-27.285,19.173c-3.579,3.241-7.147,6.87-9.012,11.429-1.706,4.181-1.851,10.129,1.675,14,2.625,2.884,6.693,4.023,9.96,4.936l6.878,1.926.082-.594-6.8-1.9c-3.2-.893-7.168-2-9.68-4.762-3.352-3.68-3.2-9.372-1.563-13.378C399.338,331.042,402.854,327.473,406.383,324.277Zm-89.44-18.769c-.745.642-1.506,1.271-2.272,1.894l.1.684c.863-.694,1.722-1.4,2.562-2.126a13.707,13.707,0,0,0,4.218-5.188c.779-2.034.521-4.937-1.5-6.321a6.945,6.945,0,0,0-4.112-.9,29.46,29.46,0,0,0-3.169.248l.082.592a28.144,28.144,0,0,1,3.1-.245,6.436,6.436,0,0,1,3.764.8c1.767,1.212,1.981,3.8,1.281,5.616A13.229,13.229,0,0,1,316.943,305.508Zm-29.689,19.733q2.568-1.485,5.158-3l.116.623q-2.5,1.458-4.976,2.892c-6.329,3.661-12.763,7.4-18.888,11.556.032-.262.058-.523.087-.782,6.012-4.057,12.311-7.7,18.5-11.292" transform="translate(-196.233 -162.917)" fill="#000746"/>
  </g>
  <path id="Pfad_429" data-name="Pfad 429" d="M483.569,251.59c0-1.983-2.422-6.532-5.409-6.532s-5.412,4.549-5.412,6.532,2.422,3.59,5.412,3.59S483.569,253.574,483.569,251.59Zm-107.76,12.681,1.849,7.522a.594.594,0,0,0,.578.454.559.559,0,0,0,.143-.018.6.6,0,0,0,.436-.722l-4.253-17.313a.6.6,0,1,0-1.157.28l1.613,6.579-2.472-3.55a.6.6,0,0,0-.977.684l4.236,6.075S375.808,264.268,375.808,264.271ZM420.05,254.5a.381.381,0,0,1,.018.055l3.724,11.2a.593.593,0,0,0,.565.409.651.651,0,0,0,.188-.029.6.6,0,0,0,.377-.755l-3.705-11.152-.629-11.894a.6.6,0,1,0-1.189.064l.4,7.562-3.6-10.837a.6.6,0,0,0-1.133.378Zm4.66,122.713a7.39,7.39,0,0,1-3.833-3.605.6.6,0,0,0-1.075.515,8.592,8.592,0,0,0,4.459,4.194.565.565,0,0,0,.227.043.594.594,0,0,0,.222-1.146Zm-46.183-.42a5.862,5.862,0,0,1-2.242-3.888.6.6,0,1,0-1.183.153,7.073,7.073,0,0,0,2.7,4.683.591.591,0,0,0,.834-.111A.6.6,0,0,0,378.526,376.788ZM450.1,418.645H431.286a.566.566,0,0,0-.155.029l-12.924-46.492L411.268,332.4l-16.2,40.314a.59.59,0,0,0-.737.246l-2.3,4.009a.593.593,0,0,0,.222.813.57.57,0,0,0,.293.08.589.589,0,0,0,.518-.3l1.585-2.755L390.6,418.653c-.018,0-.034-.008-.053-.008h-17.2l-1.236-6.3,2.35-41.752,13.87-60.071,1.682-.457-.687,3.436,6.953-1.707v-3.553l1.352-.4.37,3.528,6.764-1.659v-3.693l1.352-.394.385,3.658,7.11-1.743v-3.935l1.352-.4,0,.037.407,3.867,8.51-2.089v-4.406l1.35-.4.024.214.439,4.144,7.153-1.754-1.432-4.073-6.159,1.683,8.291-2.264a59.771,59.771,0,0,1,5.768,25.6v40.2a.586.586,0,0,0-.578.436l-1.237,4.85a.6.6,0,0,0,.579.742.6.6,0,0,0,.576-.45l.927-3.639Zm-76.143,3.1h16.365l.174-1.909H373.584Zm76.262-1.909H431.45l.531,1.909h18.737l-.386-1.934A.489.489,0,0,1,450.219,419.836Zm38.748-100.412.621,5.285a.618.618,0,0,1,.068-.016H508l1.046-1.934a1.368,1.368,0,0,1-.269-.816,1.391,1.391,0,1,1,1.392,1.39.619.619,0,0,1-.074-.008l-.74,1.369H523.3a.629.629,0,0,1,.069.016l.621-5.285Zm14.017,24.48,2.924-.713-.133-1.563-3.006-.209v-.024l-5.092-2.623.74,8.608,4.569-3.452Zm5.724-18.019h14.525L520.7,347.379H492.253l0-.036-14.121-.09-.42-4.908,13.666-2.446-.159-1.34a5.146,5.146,0,0,0,1.725.3,14.67,14.67,0,0,0,12.905-7.684Zm-3.914,4.728,2.559-4.728H489.725l1.329,11.308a3.938,3.938,0,0,0,1.886.478A13.465,13.465,0,0,0,504.794,330.613Zm6.762-24.166-3.793-1.128-1.521,5.631L509.759,312ZM496.41,315.56l-.97-5.75-3.883.75,1.247,5.7Zm27.58-4.66-3.439-1.954-2.76,5.137,3.191,1.815ZM372.058,235.5l-2.528,2.121-1.4-1.746,2.628-1.994,1.3,1.619" transform="translate(-185.177 -185.898)" fill="#0961b9"/>
</svg>
