<svg xmlns="http://www.w3.org/2000/svg" xmlns:xlink="http://www.w3.org/1999/xlink" width="415.736" height="401.012" viewBox="0 0 415.736 401.012">
  <defs>
    <clipPath id="clip-path">
      <path id="Pfad_431" data-name="Pfad 431" d="M114,213H518.63V543.185H114Zm0,0" transform="translate(-114 -213)"/>
    </clipPath>
    <clipPath id="clip-path-2">
      <path id="Pfad_434" data-name="Pfad 434" d="M406,108.137h12.833v15.442H406Zm0,0" transform="translate(-406 -108.137)"/>
    </clipPath>
    <clipPath id="clip-path-3">
      <path id="Pfad_464" data-name="Pfad 464" d="M1,1H17.886V19.722H1ZM1,1" transform="translate(-1 -1)"/>
    </clipPath>
    <clipPath id="clip-path-4">
      <path id="Pfad_483" data-name="Pfad 483" d="M355,231.3h36.473v32.217H355Zm0,0" transform="translate(-355 -231.301)"/>
    </clipPath>
  </defs>
  <g id="surface1" transform="translate(0)">
    <g id="Gruppe_72" data-name="Gruppe 72" transform="translate(11.106 70.827)" clip-path="url(#clip-path)">
      <path id="Pfad_430" data-name="Pfad 430" d="M387.494,543.374a6.509,6.509,0,0,0,1.29.261c1.161.063,1.048-1.237,1.372-2.04a1.439,1.439,0,0,1,.34-.549,5.618,5.618,0,0,0,1.1-1.485,2.164,2.164,0,0,1,2.762.214,3.141,3.141,0,0,0,1.863.768c1.38.153,2.292-.76,1.749-2.185-.779-2.053.3-3.923.591-5.928a5.48,5.48,0,0,1,.536-1.736l.074-.269a1.936,1.936,0,0,1,1.936-1.282c1.739-.074,2.322-.786,3.5-1.992,1.583-.607,2.551-2.476,3.042-3.99.263-.825.886-1.018,1.617-1.272a3.7,3.7,0,0,0,1.306-.921,1.211,1.211,0,0,0,.85-.823c.163-.536.929-1.07,1.316-1.474a5.623,5.623,0,0,0,.57-.887c.213-.427.91-1.2,1.472-.7a3.333,3.333,0,0,1,.731,1.433,1.88,1.88,0,0,0,2.7-.2,2.577,2.577,0,0,0,.322-2.665,2.387,2.387,0,0,1,.322-2.292,2.807,2.807,0,0,0,.28-1.246c0-2.306,2.941-4.113,5.041-4.113,1.3,0,1.383.911,1.3,2.018a2.583,2.583,0,0,0,.62,2.272,7.76,7.76,0,0,0,2.243,1.306c1.335.541,2.527.148,3.9.148,1.316,0,1.926-1.092,2.317-2.2.3-.828,1.063-.913,1.826-.6a2.53,2.53,0,0,0,2.015.789,3.494,3.494,0,0,1,2.2.826,3.1,3.1,0,0,0,1.657.377,3.244,3.244,0,0,0,2.4-.91c1.148-1.037.691-2.947-.132-4.021a6.531,6.531,0,0,1-.623-1.43,4.926,4.926,0,0,0-1.213-1.813,5.215,5.215,0,0,1-1.518-3.6c0-.625.261-1.6,1.09-1.388a1.918,1.918,0,0,0,1.448-.4,3.376,3.376,0,0,0,1.47-3.227,3.336,3.336,0,0,0-.987-2.834,3.07,3.07,0,0,1-1.343-3.245,1.82,1.82,0,0,1,2.432-.91,10.216,10.216,0,0,1,2.3,1.791,3.784,3.784,0,0,1,1.047,1.225c.591,1.185,2.151,1.008,3.266.908,1.15-.106,1.8.517,2.61,1.214a3.181,3.181,0,0,1,.763,1.9,4.724,4.724,0,0,0,2.192,3.164c.435.321.854.67,1.271,1.015a3.48,3.48,0,0,0,3.013.38,1.539,1.539,0,0,1,.794-.037c.517.4-.3,1.459-.457,1.839-.24.586-.572,1.506-.187,2.105a3.5,3.5,0,0,0,1.6,1.182,1.108,1.108,0,0,0,1.322-1.069c.05-.548,1.058-1.153,1.5-1.343,1.169-.507,1.644.533,2.087,1.445l.219.161a.655.655,0,0,0,.48.095c1.037-.256.069-1.593-.076-2.094-.076-.274-.177-.538-.28-.805a1.708,1.708,0,0,0-1.135-1.079c-.274-.275-.548-.544-.844-.794a3.149,3.149,0,0,0-1.4-.53c-.285-.369-.079-.884.053-1.283a3.885,3.885,0,0,0-.4-2.989,3.517,3.517,0,0,0-1.024-1.05c-.744-.649-.277-2.457.024-3.174a4.7,4.7,0,0,1,.67-1.19,1.73,1.73,0,0,0-.81-2.865,3.14,3.14,0,0,1-1.441-.842c-1.013-1.14-.211-3.01-.1-4.309a3.341,3.341,0,0,1,1.691-2.752,1.581,1.581,0,0,1,1.67-.246,3.505,3.505,0,0,1,1.8,2.011c1.148,1.374,3.092,3.116,4.944,2.19a10.565,10.565,0,0,1,2.4-.734l.309-.124c1.287-.519,1.311-2.53.76-3.6a3.012,3.012,0,0,0-1.147-.984c-.311-.155-.161-.67.111-.789,1.031-.448,1.422.779,1.815,1.464,1.029.75,2.072-.623,2.995-1.042a4.273,4.273,0,0,0,1.277-.929c.428-.039.634-.367.934-.667a2.507,2.507,0,0,1,1.708-.079,1.525,1.525,0,0,0,1.693-.311,2.717,2.717,0,0,0,.3-1.984,2.492,2.492,0,0,1,.868-2.461,3.454,3.454,0,0,1,2.039-.713c1.351-.108,1.428-1.277,1.153-2.346-.079-.3-.15-.6-.213-.907-.2-.963.72-1.01,1.33-1.4,1.156-.747-.557-1.7-1.039-2.1a3.994,3.994,0,0,0-3.541-.789,1.737,1.737,0,0,1-2.013-1.459c0-.852,1.551-.522,2.042-.48,1.47.134,2.293-.863,2.9-2.076a4.845,4.845,0,0,1,.541-.868,2.387,2.387,0,0,0,.4-.667c.425-1.053,1.422-1.451,2.38-1.929a2.6,2.6,0,0,0,.285-2.7,18.951,18.951,0,0,1-.929-2.591,4.821,4.821,0,0,0-.815-1.736c-.939-1.158-.85-2.7-1.195-4.09-.275-1.1.477-1.8,1.48-2.058.422-.111,1.185-.6.623-1.095a1.7,1.7,0,0,0-.644-.33c-.721-.243-.576-1.42-.4-2.019a7.731,7.731,0,0,1,.427-1.063c.37-.728.9-.644,1.61-.428a3.671,3.671,0,0,0,2.071,0,19.535,19.535,0,0,1,2.2-.208,4.02,4.02,0,0,1,2.259.536,8.671,8.671,0,0,0,1.335.667,4.229,4.229,0,0,1,1.929,1.926c.486,1.066,1.388,1.4,2.346,1.949a14.251,14.251,0,0,0,1.522.884c.528.261,1.069.44,1.216-.3.2-.995-.419-1.62-1-2.285-.343-.725-.7-1.443-1.058-2.163a3.213,3.213,0,0,1,.2-2.755c.356-.788-.132-1.089-.815-1.43a3.843,3.843,0,0,1-1.673-2.013,2.337,2.337,0,0,1,.921-1.818,1.624,1.624,0,0,1,.533-.741,2.057,2.057,0,0,0,.562-.995c.14-.633.419-.723,1.013-.548,1.462.43,2.973-.259,4.414-.478a3.022,3.022,0,0,1,2.282.936,3.522,3.522,0,0,0,3.968.093,1.471,1.471,0,0,1,.525-.343,1.909,1.909,0,0,0,1.388-1.546c.122-1.29-1.208-2.707-2.026-3.554a5.7,5.7,0,0,1-1.5-3.168,3.826,3.826,0,0,1,.491-1.971,1.712,1.712,0,0,0-.52-2.037,2.29,2.29,0,0,1-.828-1.725c0-1.164-.488-1.446-1.668-1.578-1.039-.116-1.308-.443-1.747-1.348a4.371,4.371,0,0,1-.306-2.789c.264-1.575-.462-2.385-1.649-3.293-.715-.546-1.749-.169-2.5.079-1.237-.163-1.332-1.412-1.852-2.4a3.346,3.346,0,0,1-.435-2.43,2.2,2.2,0,0,0-.393-1.9,3.959,3.959,0,0,1-.573-.992,3.752,3.752,0,0,0-2.053-.813,2.887,2.887,0,0,1-1.053-.393,1.528,1.528,0,0,0-.4-.274c-.33-.055-.75-.681-.95-.944a4.817,4.817,0,0,1-.854-2.652c0-1.074,1.319-1.33,1.936-1.947a8.144,8.144,0,0,1,1.216-.876c1.071-.752.989-1.957.989-3.145a4.957,4.957,0,0,1,.734-2.206,7.269,7.269,0,0,0,.547-1.369c.169-.955-.576-1.77-.879-2.625a2.012,2.012,0,0,0-1.412-.77c-1.06-.193-.939,1.137-.741,1.754a3.129,3.129,0,0,1-.119,2.636c-.364,1.325-1.6,1.791-2.8,2.171l-.584-.564c-.58-.56-1.751-1.05-2.361-.209a2.635,2.635,0,0,0-.4,1.61c0,.778-.316,1.9-1.311,1.4-.744-.372-1.059-1.493-1.348-2.2-.2-.478-.523-.609-1.01-.807-.831-.338-.948-.841-1.14-1.668a1.269,1.269,0,0,0-1.343-.775,4.755,4.755,0,0,1-1.193-.169c-1.189-.552.182-1.853.61-2.412.706-.921-.142-2.367-.465-3.324a5.453,5.453,0,0,0-1.15-1.876,1.274,1.274,0,0,1,0-1.5,1.817,1.817,0,0,0-.232-2.324,7.323,7.323,0,0,0-1.383-.966,3.085,3.085,0,0,1-1.242-1.617c-.04-.428-.367-.636-.668-.934-.068-.4-.533-.792-.775-1.111a4.635,4.635,0,0,1-.448-1.722,3.549,3.549,0,0,0-1.3-2.063,1.383,1.383,0,0,1-.409-.549,3.917,3.917,0,0,1-.507-2.068c.111-.454.628-.185.871-.061a2.242,2.242,0,0,1,1.076,1.185c.3.71,1.24,1.7,2.116,1.027,1.792-1.378,1.739-4.08.636-5.873a3.216,3.216,0,0,1-.576-1.783,18.323,18.323,0,0,0-.781-3.393c-.108-.446.2-.723.6-.839a10.2,10.2,0,0,1,1.86-.129,5.708,5.708,0,0,1,1.6.14,5.881,5.881,0,0,1,.9.929,11.759,11.759,0,0,0,.8.891c.667.7,2.055.9,2.172-.325a2.541,2.541,0,0,0-.245-1.316,8.3,8.3,0,0,1-.322-1.668,2.494,2.494,0,0,0-3.105-2.453c-1.161.234-1.459-.625-1.174-1.557.638-2.069-.707-3.928-1.578-5.728-.182-1.266.634-1.886,1.322-2.813a9.481,9.481,0,0,0,1.383-3.052c.322-1.037,1.258-1.715,1.9-2.567a7.158,7.158,0,0,0,1.189-3.272,4.3,4.3,0,0,0-.4-3.261,5.176,5.176,0,0,1-.815-2.39,9.126,9.126,0,0,0-.642-2.4A5.251,5.251,0,0,0,486.373,316a5.4,5.4,0,0,0-4.213-1.1c-.548.1-1.433-.135-.971-.831,1.15-1.741-1.712-2.2-2.821-2.406a7.745,7.745,0,0,1-1.522-.4,5.816,5.816,0,0,0-1.351-.33c-1.454-.522-2.084.81-3.084,1.575a2.752,2.752,0,0,1-3.158-.15c-.8-.623-.855-1.834-.958-2.76-.477-.934-1.333-.644-1.982-.061a2.561,2.561,0,0,1-1.372.675c-1.084.18-1.881-1.129-2.538-1.818a4.134,4.134,0,0,1-.673-1.481,15.4,15.4,0,0,0-.675-1.955,6.8,6.8,0,0,1-.24-1.691,1.238,1.238,0,0,1,1.3-1.406c.875,0,1.5.76,2.161,1.256a4.852,4.852,0,0,1,1.947,2.66c.193.686.633,1.5,1.454,1.177.475-.182.72-.681,1.021-1.085a2.907,2.907,0,0,1,1.348-.95q.415-.411.844-.807c1.591-1.457.594-3.174-.723-4.322-.907-.792-1.744-1.665-2.575-2.536-.383-.4-.96-.958-1.581-.8a4.958,4.958,0,0,1-2.219-.137c-.773-.23-1.275.541-1.557,1.106-.48.96-1.409.28-2.074-.087a3.293,3.293,0,0,0-2.238-.161c-.991.251-1.44-.586-1.517-1.467a2,2,0,0,0-1.134-.994c-.892-.309-1.122-1.19-1.269-2.013a3.886,3.886,0,0,0-.517-1.361c.093-.346,1.056.356,1.251.514a4.025,4.025,0,0,0,2.142.715c1,.09,1.171,1.377.926,2.2-.264.886.741,1.095,1.3,1.362a1.748,1.748,0,0,0,2.607-1.259c.155-1.4-1.064-2.406-1.918-3.322-.105-.211-.211-.425-.32-.636a4.721,4.721,0,0,0-.541-.868c-.741-.913.051-1.639.94-1.807a4.734,4.734,0,0,1,4.158,1.485,3.865,3.865,0,0,0,2.214,1.037c1.2.1,1.865-.731,2.612-1.524.507-.538.968-1.132.6-1.874a2.883,2.883,0,0,0-1.857-1.485c-1.291-.18-1.749-.9-2.23-2.084a1.983,1.983,0,0,0-1.158-.992c-1.127-.522-1.918-.024-3.031.177-.765.137-.958-.206-1.486-.631-.662-.533.013-1.546.051-2.232.06-1.153-1.38-.974-2.005-.5-.8.613-.594,1.316-.245,2.172a6.462,6.462,0,0,1,.1,2.858,4.455,4.455,0,0,0-.454,1.6c-.055.657-.113.8-.34.86-.638.161-1.636-.382-2.251-.586l-.86-.2a2,2,0,0,1-1.557-1.279.7.7,0,0,0-.5-.354c-.573-.14-.631.351-.775.781-.169.5-.6.958-.908.253-.367-.847-.541-2.884.963-2.361.651.224,1.081-.813,1.16-1.259a2.641,2.641,0,0,1,.844-1.736c.95,0,1.575.6,2.406.96.863.211,2.111-.768,1.092-1.549a1.806,1.806,0,0,1-.81-1.615c0-1.528-1.069-2.253-1.924-3.4-.717-.958-1.759-1.91-3.06-1.491a2.779,2.779,0,0,0-1.449,1.535c-.282.654.541,1.283.924,1.691a1.965,1.965,0,0,1,.567,2.079,6.153,6.153,0,0,1-1.435,2.852c-1.443,0-1.664-1.364-2.506-2.206a2.327,2.327,0,0,1-.733-1.826c0-.873.731-1.161,1.453-1.383.4-.121,1.435-.575,1.05-1.168A9.576,9.576,0,0,0,446,272.887c-.411-.277-.81-.569-1.2-.878a3.051,3.051,0,0,0-3.1-.457c-.789.644-2.536,1.042-3.077-.2-.411-.95.193-1.807.354-2.765a4.044,4.044,0,0,0-.855-2.512c-.57-1.319,1.451-1.24,2.271-1.29a18.223,18.223,0,0,0,1.9-.19c1.077-.18,2.224-1.67,2.685-2.665.5-1.09,1.067-2.383.623-3.562a9.376,9.376,0,0,1-.615-2.271,3.914,3.914,0,0,0-1.232-2.583,7.092,7.092,0,0,0-3.791-1.76c-1.283-.485-2.253.277-3.124,1.15a8.46,8.46,0,0,0-1.351,2.319,11.928,11.928,0,0,0-.987,5.441c0,.446-.1,1.116-.7.836a4.907,4.907,0,0,1-.966-.649,4.733,4.733,0,0,0-1.522-.818,4.651,4.651,0,0,1-2.461-2.609c-.6-1.2-1.385-1.383-2.644-1.383a10.051,10.051,0,0,1-2.509-1.056c-1.7-.825-3.514-.757-5.372-.813a1.523,1.523,0,0,1-1.441-.641,3.957,3.957,0,0,0-2.211-1.984,5.626,5.626,0,0,1-3.3-1.324,9.781,9.781,0,0,0-6.181-2.665,5.946,5.946,0,0,1-1.831-.332l-.322-.261a4.309,4.309,0,0,0-.742-.48c-.573-.3-.973-1.031-1.4-1.514-1.1-.272-1.6.454-1.734,1.457-.174,1.285-1.628.715-2.451.4-1.469-.475-2.615.28-4.036.533a3.589,3.589,0,0,0-1.441,1.857c-.538,1.343-2.644,2.995-3.968,1.67a24.242,24.242,0,0,0-2.725-2.058,3.507,3.507,0,0,0-.815-.414c-.7-.7-1.5-1.29-2.259-1.924-.905-.76-1.715-1.649-2.551-2.485-1.039-.831-2.047-1.694-3.034-2.588a6.031,6.031,0,0,0-4.246-1.137,3.06,3.06,0,0,0-2.725,1.4,30.232,30.232,0,0,1-3.8,3.549c-.691.57-1.366-.09-.828-.794.211-.274.422-.554.636-.831,1.29-1.683.847-3.362.113-5.142-.49-1.2-1.847-.325-2.43.2a3.45,3.45,0,0,1-3.5.657c-1.01-.865-1.4-2.6-1.968-3.81a3.839,3.839,0,0,0-3.6-.842,2.477,2.477,0,0,1-1.752-.335c-1.06-.509-2.406.127-3.509.235a7.334,7.334,0,0,0-4.066,1.639c-1.156.913-1.957.066-3.232.066-.364,0-.652.3-.905.52-1.293.409-2-.533-2.981-1.283-1.077-.823-2.966-.174-4.126.235a1.94,1.94,0,0,0-1.182.778,2.689,2.689,0,0,1-1.7,1.443c-1.15.151-1.791-.754-2.731-1.161a2.438,2.438,0,0,0-1.6,0c-1,.251-1.845-.456-2.7-.873a.859.859,0,0,0-1.153.253,7.5,7.5,0,0,0-.7,2.433c-.319.5-.767,1.127-1.425,1.127-1.3,0-.211-1.253-.082-1.773.158-.66-.407-1.042-.829-1.417a9.3,9.3,0,0,0-3.472-.883c-1.388-.108-1.828-.987-2.713-1.968a2.428,2.428,0,0,1-.48-.75,5.6,5.6,0,0,0-.6-1.237l-.127-.311c-.686-1.7-3.29-1.952-4.831-2.348-.169-.13-.338-.256-.5-.386-.209-.142-.417-.282-.623-.422-.153-.1-.3-.208-.441-.319a2.24,2.24,0,0,0-.469-.269c-1.055-.393-1.108-1.414-1.282-2.382l-.159-.248c-.673-1.037-1.865-.591-2.9-.847-.923-.23-.8-1.422-.744-2.153a7.562,7.562,0,0,0-1.137-4.577c-1.322-.96-2.57-.385-4.047-.288-1.366.09-1.6-1.556-1.707-2.548-.555-1.087-1.8-.607-2.43.151a3.054,3.054,0,0,0,.1,2.28,4,4,0,0,1-.807,3.786,2.163,2.163,0,0,0-.4,2.778c.528,1.095-.511,1.66-1.4,2.108a4.277,4.277,0,0,0-1.736,1.882,4.542,4.542,0,0,1-1.169,2.026,1.852,1.852,0,0,0-.245,2.807c.3.324.586.662.876.994a3.928,3.928,0,0,1-.266,3.193c-.425,1.034-1.713.448-2.415.184a3.707,3.707,0,0,1-1.308-.921,1.229,1.229,0,0,1-.555-.369,4.168,4.168,0,0,0-1.448-.7,4.5,4.5,0,0,0-2.694,1,6.99,6.99,0,0,0-2.277,3.541,27.682,27.682,0,0,0-2.512,3.048,9.6,9.6,0,0,0-1.765,1.628l-.319.256c-.177.137-.451.364-.609.5-.642.557-.24,1.369.007,2.021.288.942-.749,1.765-1.139,2.562a1.673,1.673,0,0,1-2.145.923,5.238,5.238,0,0,0-2.271,0,9.143,9.143,0,0,1-3.206,0,3.839,3.839,0,0,0-2.844.536c-.731.322-1.008,1.388-1.214,2.09-.338,1.145.192,2.335.4,3.467a13.278,13.278,0,0,0,.461,1.751,4.746,4.746,0,0,1-.272,1.828c-.156.644.562,1.549.815,2.132.375.868-.583.514-.94.227a2.065,2.065,0,0,0-.675-.38c-.15-.182-.3-.367-.446-.548-.055-.834-.77-1.4-1.285-2.019a4.843,4.843,0,0,0-3.77-1.981,21.038,21.038,0,0,1-3.924-.7,5.788,5.788,0,0,1-.934-.266,2.925,2.925,0,0,0-1.079-.053,5.1,5.1,0,0,1-2.048-.378,10.943,10.943,0,0,0-5.408-.5,7.534,7.534,0,0,1-3.879-.145c-.791-.219-1.527.274-2.28.475-.575.153-1.1-.641-1.443-.984-.937-.657-2.042-.478-3.111-.673a2.184,2.184,0,0,0-.881-.026c-.4.2.06.876.237,1.066.248.267.494.536.736.8.554.607,1.348,1.868.469,2.507-.907.659-2.68.192-3.543-.417-1.451-1.023-3.47-1.113-5.195-1.129a6.486,6.486,0,0,1-4.343-1.6l-.2-.074a3.811,3.811,0,0,0-.548-.145,2.648,2.648,0,0,1-.868-.4,5.306,5.306,0,0,0-1.5-.586l-.192-.148a4.949,4.949,0,0,1-1.158-1.5,1.008,1.008,0,0,0-1.391-.359,3.038,3.038,0,0,0-1.016,2.04c-.145.784-1.38.963-2.026,1.153a4.851,4.851,0,0,0-1.322.794c-.889.594-2.361.335-3.3.147a10.906,10.906,0,0,0-3.738.815,2.354,2.354,0,0,1-2.659.586,6.522,6.522,0,0,0-2.818-.267,8.988,8.988,0,0,1-2.3-.2,9.031,9.031,0,0,1-1.747-1.662c-.783-.781-1.929-.541-2.9-.346a5.545,5.545,0,0,1-1.269-.134,14.094,14.094,0,0,0-4.609.2,9.154,9.154,0,0,0-1.618.332,4.241,4.241,0,0,1-1.354-.213,3.764,3.764,0,0,0-2.567-.143c-.976.454-.86,1.691-.86,2.588a12.638,12.638,0,0,1-1.7,5.8c-.548,1.024.348,1.546,1.037,2.071,1.074.823,2.546.784,3.818.992a2.884,2.884,0,0,1,1.8,1.079,6.431,6.431,0,0,0,2.282.994c1.058.3,1.657,1.826,2.092,2.694l.232.2c.757.63,1.475-.053,2.105-.533a1.612,1.612,0,0,1,2.09.176c.773,1.064-1.081,1.449-1.786,1.546a2.882,2.882,0,0,0-2.3,1.341,14.68,14.68,0,0,1-.929,1.145c-.767.831-2.108-.172-2.852-.544a7.248,7.248,0,0,0-1.23-.5c-.316-.317-.638-.625-.971-.926a2.611,2.611,0,0,0-3.29-.129,3.183,3.183,0,0,1-2.721.411,5.065,5.065,0,0,1-1.6-.921,1.989,1.989,0,0,0-1.607-.23c-1.177.435-1.9,1.889-2.738,2.731a4.113,4.113,0,0,1-.565.428c-1.187.91-2.665.976-4.105,1.177l-.7.292-1.338,1.335a3.392,3.392,0,0,0-.515,3.179,3.86,3.86,0,0,1,.594.813c.18.356-.493.213-.781.227a3.019,3.019,0,0,0-2.5,1.058c-.192.243-.39.483-.586.721a3.441,3.441,0,0,1-1.306,1.124,1.841,1.841,0,0,0-.565.353,4.15,4.15,0,0,1-2.4.815,2.316,2.316,0,0,0-2.013.375,1.507,1.507,0,0,1-.4.272c-.245.045-.525.367-.72.523a20.2,20.2,0,0,0-3.248,3.031l-.259.1a2.32,2.32,0,0,0-1.451,1.942c0,1.282,1.575,1.509,2.507,1.62a9.855,9.855,0,0,1,1.968.459,7.143,7.143,0,0,0,2.821.475,9.451,9.451,0,0,1,1.683.132,2.446,2.446,0,0,1,.855.393,5.748,5.748,0,0,0,4.7,1.087,4.9,4.9,0,0,1,2.865.393,7.686,7.686,0,0,0,2.348-.536,4.412,4.412,0,0,1,1.739.427,9.854,9.854,0,0,1,2.644.649,3.97,3.97,0,0,1,.86.607c1.187.91,2.221.095,3.48-.28a3.389,3.389,0,0,1,3.01.54,3.064,3.064,0,0,0,1.937.459,2.58,2.58,0,0,1,1.984.536,4.1,4.1,0,0,0,1.15.776c.567.654,1.164,1.268,1.776,1.884l.14.2a6.582,6.582,0,0,1,.66,1.322c.367.9,1.5.965,2.364.813.752-.135,1.037.517,1.163,1.16a13.279,13.279,0,0,1,.2,2.08,9.651,9.651,0,0,1-.021,1.641,5.076,5.076,0,0,0,.3,2.134,8.663,8.663,0,0,1-.733,4.264,3.4,3.4,0,0,0-.245,2.047,5.827,5.827,0,0,1-.757,3.114,1.46,1.46,0,0,0,.169,1.237,4.389,4.389,0,0,1,.245,2.9c-.24.81-1.5,1.668-2.23.979a2.129,2.129,0,0,1,.084-2.71,1.665,1.665,0,0,0,.275-.4,1.484,1.484,0,0,1,.211-.335c.378-.5.861-1.3.251-1.739-.994-.723-1.636.694-2.44,1.063a13.686,13.686,0,0,1-1.509.544,4.657,4.657,0,0,0-1.857,1.936c-.4.607-1.554-.3-1.966-.5-1.6-.3-2.485,1.116-2.641,2.517-.137,1.237-1,1.886-1.818,2.739a4.621,4.621,0,0,0-.8,1.857c-.156.694-.417,1.2-1.2,1.2-1.092,0-1.2-.955-1.113-1.839.1-1.008-.48-2.269-1.718-1.771a2.654,2.654,0,0,0-1.755,2.2c-.066.29-.317.689-.678.565-.14-.047-.274-.411-.4-1.087a4.083,4.083,0,0,0-.457-1.335,1.526,1.526,0,0,1-.272-.4c-.079-.459-.868-1.068-1.2-1.4-.538-.538-1.986-1.272-2.44-.18-.317.763.713,1.016,1.139,1.364,1.158.945-.245,1.876-.984,2.517-1.037.9-1.472-.092-2.39-.491a1.113,1.113,0,0,0-1.319.211c-.765.541-.451,2.076-.351,2.736a6,6,0,0,1-.467,3.741,5.8,5.8,0,0,0-.548,1.736l-.253.523c-.393.81-.145,1.293.205,2.084.673,1.51,2.174,1.831,3.441,2.71a2.47,2.47,0,0,1,.644,2.894c-.633,1.686-.493,3.615-.683,5.391a3.137,3.137,0,0,1-.336.749,3.115,3.115,0,0,0-.409,2.742c.773,2.9-.728,5.844-1.38,8.667-.253,1.195.459,2.43.937,3.5a8.5,8.5,0,0,1,.8,5.237,7.012,7.012,0,0,0,1.507,5.6,6.527,6.527,0,0,1,1.343,1.886,4.859,4.859,0,0,0,1,1.414c.147.829,1.72.9,2.367,1.09a18.08,18.08,0,0,0,4.044.662l.831.267.319.261a3.66,3.66,0,0,0,.6.407,12.611,12.611,0,0,0,2.82,1.348l.5.314a3.1,3.1,0,0,1,1.506,2.543,5.764,5.764,0,0,0,1.741,3.37,6.787,6.787,0,0,1,1.6,3.127,8.252,8.252,0,0,0,1.047,1.984,1.881,1.881,0,0,1,.409,1.786,3.144,3.144,0,0,1-2.475,2.095c-1.7.256-2.459,1.549-2.95,3.082-.256.8-.618,1.008-1.446,1.034a10.005,10.005,0,0,1-1.564-.1,2.528,2.528,0,0,1-1.914-1.335,10.239,10.239,0,0,0-1.609-1.61,18.74,18.74,0,0,1-2.072-2.071,13.507,13.507,0,0,0-1.736-1.6c-.469-.388-.889-.823-1.322-1.256a2.492,2.492,0,0,0-1.409-.675,4.33,4.33,0,0,1-1.219-.377,2.76,2.76,0,0,1-.569-.931c-.278-.858-1.385-1.225-2.161-1.5a3.977,3.977,0,0,1-1.156-.844,5.676,5.676,0,0,0-1.261-.638l-.6-.6a7.8,7.8,0,0,1-1.039-1.556c-1.119-1.834-3.367-1.356-5.15-1.971a5.6,5.6,0,0,1-.758-.34c-1.593-.923-2.593.775-3.366,1.892-.586,1.171-1.9,1.52-3.135,1.733-.852.148-1.163-.409-1.567-1.013a4.264,4.264,0,0,0-3.554-2.538,9.617,9.617,0,0,0-3.145.926c-.438.153-1.039.4-1.34.544-1.3.633-2.248-.33-3.443-.678a2.193,2.193,0,0,0-2.356.491,10.118,10.118,0,0,0-1.087,1.375,4.012,4.012,0,0,1-1.424.807c-.926.372-1.417,1.828-1.749,2.681a3.52,3.52,0,0,1-.854,1.19c-.082.15-.156.3-.224.461-.227.544-.982,1.01-1.406,1.435-.837,1.085-1.2,3.079-.188,4.184a10.375,10.375,0,0,0,3,2.348,6.527,6.527,0,0,1,1.19.8,6.24,6.24,0,0,1,1.683.942,2.7,2.7,0,0,0,.562.372c1.293.606,1.24,2.454,1.657,3.641a4.717,4.717,0,0,1,.52,1.491,3.616,3.616,0,0,0,1.06,2.282,7.7,7.7,0,0,1,2.28,3.108c.7,1.765,3.132,2.857,4.889,2.857a5.054,5.054,0,0,1,1.335.2,3.462,3.462,0,0,0,3.2-.49c.457-.425.459-1.322.559-1.905.351-.031.7-.063,1.056-.1.8.4,1.757-.689,2.034-1.343.731-1.731,2.794-2.375,4.551-2.375.894,0,.979.868.678,1.47a10.748,10.748,0,0,0-.818,2.19c-.311,1.258.723,1.892,1.615,2.486a3.055,3.055,0,0,0,3.746-.34,3.046,3.046,0,0,1,2.28-.663,6.848,6.848,0,0,0,2.509-.454,1.3,1.3,0,0,1,1.187.731,4.913,4.913,0,0,0,3.383.19,5.214,5.214,0,0,1,2.39.528,4.919,4.919,0,0,0,1.351.422,7.488,7.488,0,0,0,2.522.847,7.788,7.788,0,0,1,1.216.356,7.571,7.571,0,0,0,2.807.655c.488.132.979.266,1.47.4l.332.2a19.177,19.177,0,0,1,1.868,1.374,14.787,14.787,0,0,1,1.965,1.582c.515.256,1.01.536,1.51.821a8.23,8.23,0,0,1,1.268,2.18l.436.522c1.013.895,1.607.277,2.4-.6a.76.76,0,0,1,1.06.019,1.915,1.915,0,0,1,.235,1.643,27.339,27.339,0,0,0-.267,3.889,5.875,5.875,0,0,1-.907,3,1.6,1.6,0,0,0-.3,2.393,3.1,3.1,0,0,1,.673,2.205,4.11,4.11,0,0,0,.282,1.676,5.207,5.207,0,0,1,.52,1.865,3.217,3.217,0,0,0,.654,1.388c.126.591.269,1.177.414,1.765,0,1.056-1.01,2.3-1.6,3.185-.5.765-.673,2.04.409,2.425a3.467,3.467,0,0,0,1.335.8l.2.2a3.52,3.52,0,0,0,.4.359c.288.229.357.709.457,1.044a7.617,7.617,0,0,0,2.069,5.364c1.047,1.018,1.124,2.061,1.271,3.453.093.267.188.533.282.8.246.62.507,1.232.773,1.844a18.4,18.4,0,0,1,.414,5.3,2.822,2.822,0,0,0,2.285,2.725,14.5,14.5,0,0,0,1.849-.148c1.079.325,1.7-.757,2.29-1.47a6.692,6.692,0,0,0,1.322-2.255,2.949,2.949,0,0,1,.789-1.056l.074-.2c.206-.559.409-1.119.6-1.683a3.558,3.558,0,0,1,.8-1.243,8.585,8.585,0,0,0,1.478-2.765,1.929,1.929,0,0,1,2.018-.736,7.152,7.152,0,0,0,2.377-.319c1.282-.058,1.981.754,2.831,1.6a8.19,8.19,0,0,0,2.887,2.3,4.974,4.974,0,0,0,2.142.757c1.063,0,1.274-.488,1.512-1.377.277-1.023,1.071-.731,1.665-.09a3.056,3.056,0,0,1,.321,2.633c-.184.976.116,1.984,1.3,1.639.361-.109.723-.2,1.092-.278a2.434,2.434,0,0,0,1.483-.723c.253-.34.511-.681.792-1,.572-.649,1.351.559,1.9.8,1.535.665,3.248-.464,4.694-.789a2.416,2.416,0,0,0,1.053-.617c.7-.686,1.021-.351,1.325.407a3.138,3.138,0,0,1-.132,1.016c-.5,1.485.892,3.147,1.871,4.126a1.706,1.706,0,0,0,2.248.343,2.19,2.19,0,0,0,.043-3.108,2.68,2.68,0,0,1-.591-3.029,5.922,5.922,0,0,1,1.559-1.694c1.019-.921,2.285.913,2.588,1.85.2.6.636,1.5,1.43,1.229A2.3,2.3,0,0,0,240.66,469c.417-.871,1.024-2.4.684-3.374-.353-1.01-1.124-1.156-2-1.575a3.569,3.569,0,0,1-2.163-2.955,6.7,6.7,0,0,0-.636-2.182c-.3-.533-.61-1.646.187-1.976a2.487,2.487,0,0,1,1.531-.034c.488.143,1.221-.3,1.689-.465.865-.3,1.91.734,2.609,1.206.992.763,2.082.707,3.311.789a13.028,13.028,0,0,0,4.1.192,4.963,4.963,0,0,1,3.063,1.143,5.753,5.753,0,0,0,1.135.6,12,12,0,0,1,1.456.721l.348.145c.544.224.6.8.6,1.322,0,1.15.641,1.325,1.623,1.023a7.03,7.03,0,0,1,1.131-.272,5.274,5.274,0,0,1,2.908.375c.973.63.731,2.356,1.019,3.348.419,1.445,2.594,1.282,3.747,1.694,1.026.367,1.148,1.683,1.34,2.644.2.222.4.446.591.673.773.894.815,2.5-.409,2.915-.457.156-1.146.926-.536,1.372.509.369,1.293-.06,1.754-.29a5.571,5.571,0,0,1,1.335-.483c.717-.082,1.272.656,1.8,1.063a7.871,7.871,0,0,1,2.81,2.267,3.693,3.693,0,0,0,2.251.76,4.141,4.141,0,0,1,1.2.184c.172.134.343.274.515.411a12.824,12.824,0,0,0,.9,2.269,6.04,6.04,0,0,1,.731,2.24c.072,1.449,2.238,1.092,3.058.681.9-.293,1.609.6,2.3,1.068a4.894,4.894,0,0,0,.794.525c.567.282.386,1.266.311,1.781-.245,1.747,1.684,1.82,2.62,2.757a5.435,5.435,0,0,0,1.47,1.069,5.008,5.008,0,0,1,.868.541,5.377,5.377,0,0,0,1.087.638,6.013,6.013,0,0,1,2.111,2.021,2.815,2.815,0,0,0,1.105.924,5.979,5.979,0,0,1,.565.939,4.569,4.569,0,0,0,.332.6,3.738,3.738,0,0,1,.282.346c.584.76-.427,1.812-1.008,2.272-.319.216-.628.44-.937.67-.313.209-.617.427-.918.655a9.012,9.012,0,0,0-.744.554,6.79,6.79,0,0,1-1.81.929,3.115,3.115,0,0,0-2.1,2.833,6.273,6.273,0,0,1-.789,2.815c-.47.5-.937.992-1.4,1.493a4.6,4.6,0,0,0,.22,5.615,6.5,6.5,0,0,1,1.06,1.8c1.05,2.1.749,4.67.876,6.96v.351a1.342,1.342,0,0,0,2.6.4c.646-1.723,2.266-.721,3.483-.367.749.219,1.9.1,2.079-.916.071-.4.715-.7,1.066-.886,1.34-.7.274-2.414-.026-3.414-.491-1.641,1.543-2.032,2.7-2.475.369-.14.873-.375.754-.86-.105-.417-.873-.27-1.185-.191a2.9,2.9,0,0,1-1.662-.409c-.857-.38-2.028-1.359-1.768-2.4.407-1.617,2.66-1.424,3.852-1.206a10.146,10.146,0,0,0,3.979.079,3.75,3.75,0,0,0,2.955-2.665c.4-1.472,1.982-2.467,3.287-3.121a4.771,4.771,0,0,0,2.171-2.042c.192-.385.733-.994,1.2-.994.591,0,1.182,1.063,1.52,1.482a2.049,2.049,0,0,1,.48.947c.256,1.85,2.116,3.694,4.029,3,1.541-.562,1.061-2.694,1.488-3.974a1.432,1.432,0,0,1,2.351-.781,2.5,2.5,0,0,1,.865,2.815c-.285,1.535-1.488,1.654-2.831,1.989a1.867,1.867,0,0,0-.773,2.367,3.332,3.332,0,0,0,1.158,1.272c.4.918.826,2.6-.1,3.369a4.8,4.8,0,0,1-1.675.75c-1.454.469-1.738,1.469-1.211,2.807,1.583,1.4,4,1,5.8.266a13.088,13.088,0,0,0,1.356-3.765c.678-1.694,2.678-1.474,4.124-2.182a4.64,4.64,0,0,1,1.955-.61c.7,0,.815.982.971,1.462.285.871.417,1.314-.256,1.968a3.985,3.985,0,0,0-.694.94,1.865,1.865,0,0,0,.311,2.311c.211.209.419.414.644.606,1.214,1.038.016,2.634-.443,3.757a2.867,2.867,0,0,0-.2.857c0,1.182,1.844.773,2.58,1.042,1.048.383.649,2.005.892,2.887s.833,1.752,1.886,1.4a6.01,6.01,0,0,0,1.614-1.029c.94-.717,2.459-.467,3.557-.321a2.053,2.053,0,0,1,1.7,2.789,3.758,3.758,0,0,0,.061,1.095,2.951,2.951,0,0,1-.378,2.05,4,4,0,0,0-.205,2.654c.211.507.739.055.894-.256.744-1.488,2.937-1.657,4.375-1.372,1.308.263,2.092-.739,2.625-1.8.163-.33.89-1.227,1.293-1.087.172.058.209.341.209,1.623a11.311,11.311,0,0,0,.113,1.915c.177.578,1.277,1.24,1.441.28a2.95,2.95,0,0,0-.029-.911c-.2-1.625,1.34-1.979,2.594-2.314a1.694,1.694,0,0,1,.781.6c.625.7,1.264,1.39,1.9,2.084,1.206,1.345,3.541.691,5.1.414.984-.5.586-1.617.158-2.422-.385-.717-.7-2.079.051-2.667a6.666,6.666,0,0,1,2.2-.667,4.2,4.2,0,0,1,1.952-.122c.926,0,1.135-.915,1.6-1.478a4.854,4.854,0,0,1,2.409-1.5c.989-.224.831-1.881,1.042-2.644a4.53,4.53,0,0,1,1.419-1.813c.842-.828,2.317-1.678,3.538-1.066.676.335.776,1.206.808,1.874a13.05,13.05,0,0,1-.317,3.744,3.144,3.144,0,0,0,.251,2.369c.931,1.541,2.665.251,3.973.251,1.127,0,1.045,1.629,1.074,2.419a9.232,9.232,0,0,0-.058,1.95,3.979,3.979,0,0,1-.361,2.216,3.409,3.409,0,0,1-1.158.531,2.029,2.029,0,0,0-1.372,2.817C385.579,542.631,386.3,543,387.494,543.374Zm0,0" transform="translate(-114.311 -213.318)" fill="#5ba2da" fill-rule="evenodd"/>
    </g>
    <path id="Pfad_432" data-name="Pfad 432" d="M352.513,197.107c1.153.548,2.263.248,3.456.248,1.026,0,3.013-.077,3.636-1.129.169-.282.313-.57.461-.863.04-.428.367-.634.667-.934l.045-.148c.137-.462.749-.876,1.081-1.219L362.9,192c.436-.512.873-1.019,1.322-1.522.473-.53.9-1.087,1.322-1.657a2.539,2.539,0,0,1,.89-.583,3.779,3.779,0,0,0,1.855-3.807,2.033,2.033,0,0,1,.491-1.646,2.784,2.784,0,0,0,.538-.948c.523-1.78-.335-3.29-.691-4.97l-.155-.242a2.964,2.964,0,0,0-2.415-1.071,6.154,6.154,0,0,1-1.757-.393,4.49,4.49,0,0,1-1.206-2.448c-.354-1.676-2.193-.934-3.48-1.338a1.682,1.682,0,0,1-.4-.2,7.457,7.457,0,0,0-4.092-.937,2.9,2.9,0,0,0-1.795.652,1.342,1.342,0,0,1-.4.285c-.23.04-.451.354-.623.507a2.187,2.187,0,0,1-2.852.045,4.173,4.173,0,0,0-1.741-.9c-1.491-.366-1.776,1.71-2.427,2.494a2.148,2.148,0,0,1-1.229.807c-.469.105-1.15.277-1.285.836-.159.657.522,1.428.86,1.942a5.147,5.147,0,0,1,.414,1.1,7.127,7.127,0,0,0,.419,1.116,2.684,2.684,0,0,1-.4,3,5.19,5.19,0,0,0-.919,2.9,17.24,17.24,0,0,1-.467,2.515,1.7,1.7,0,0,0,.451,2.1,9.6,9.6,0,0,0,1.593.929,4.373,4.373,0,0,1,1.182.915,11.777,11.777,0,0,1,1.082.681c.915.338,1.535,1.316,2.2,2.005,1.649,1.7,1.815,1.873,2.01,2.068A4.669,4.669,0,0,0,352.513,197.107Zm0,0" transform="translate(-177.067 -128.292)" fill="#5ba2da" fill-rule="evenodd"/>
    <g id="Gruppe_73" data-name="Gruppe 73" transform="translate(208.33 0)" clip-path="url(#clip-path-2)">
      <path id="Pfad_433" data-name="Pfad 433" d="M413.229,123.029a1.9,1.9,0,0,0,1.942.053,6.712,6.712,0,0,0,.446-1.691,2.767,2.767,0,0,1,1.891-2.511,1.987,1.987,0,0,0,1.391-1.636,5.736,5.736,0,0,0-.507-2.494,1.642,1.642,0,0,1-.116-1.316c.314-1.261-.715-2.5-1.216-3.6l-.221-.272-.222-.267a4.172,4.172,0,0,1-.461-.313,2.421,2.421,0,0,0-2.889-.077,6.022,6.022,0,0,1-2.338,1c-1.354.356-1.863,2.053-2.076,3.227a18.935,18.935,0,0,1-1.531,4.884c-.446.9-.594,1.955.462,2.577a3.066,3.066,0,0,0,2.119.269C411.369,120.667,412.215,122.256,413.229,123.029Zm0,0" transform="translate(-406.319 -108.241)" fill="#5ba2da" fill-rule="evenodd"/>
    </g>
    <path id="Pfad_435" data-name="Pfad 435" d="M478.148,166.648a2,2,0,0,0,2.485-.072,2.159,2.159,0,0,1,1.686-.459c1.763.219,2.615-1.589,3.768-2.612.794-.7.966-2.066,1.219-3.053a5.062,5.062,0,0,0-.385-3.755,10.909,10.909,0,0,1-.663-1.527c-.559-1.726-2.633-.958-3.955-1.09a1.85,1.85,0,0,0-1.773.7,6.58,6.58,0,0,0-2.24,1.828,5.158,5.158,0,0,0-1.464,2.105v.536a2.926,2.926,0,0,1-.092,2.184,4.475,4.475,0,0,0-.122,3.794A4.838,4.838,0,0,0,478.148,166.648Zm0,0" transform="translate(-220.469 -123.03)" fill="#5ba2da" fill-rule="evenodd"/>
    <path id="Pfad_436" data-name="Pfad 436" d="M314.938,229.857l.465.116h.385a1.524,1.524,0,0,1,.7-.134c1.058,0,1.7-.792,2.367-1.486a3.728,3.728,0,0,1,2.657-.95,5.459,5.459,0,0,0,2.472-.673c.517-.335.509-1.113.556-1.646a5.806,5.806,0,0,1,.267-1.256,7.308,7.308,0,0,0,.35-1.351,1.832,1.832,0,0,0-.277-1.923c-.351-.433-.63-.937-.942-1.4-.7-1.593-2.62.022-3.689.27a6.372,6.372,0,0,0-.905.266,5.215,5.215,0,0,0-2.559,2.617,12.4,12.4,0,0,1-.533,1.2,10.428,10.428,0,0,0-.75,2.055q-.4.474-.794.95C313.9,227.562,313.258,229.438,314.938,229.857Zm0,0" transform="translate(-167.771 -143.944)" fill="#5ba2da" fill-rule="evenodd"/>
    <path id="Pfad_437" data-name="Pfad 437" d="M667.662,441.888c.913.39,1.414.09,2.322.066a2.8,2.8,0,0,0,.95-.205,3.64,3.64,0,0,1,1.251-.2c1.084,0,1.332-.454,1.372-1.5.026-.67.066-1.335.116-2.005a3.406,3.406,0,0,0-.475-2.438,1.274,1.274,0,0,1-.314-.6,8.3,8.3,0,0,1-.763-.543,15.863,15.863,0,0,1-3.337-1.517c-1.254-.625-2.5.865-3.317,1.6a2.128,2.128,0,0,0-.612,2.332,4.912,4.912,0,0,1,.253,2.147,2.071,2.071,0,0,0,1.438,2.438C666.924,441.595,667.293,441.729,667.662,441.888Zm0,0" transform="translate(-281.65 -213.513)" fill="#5ba2da" fill-rule="evenodd"/>
    <path id="Pfad_438" data-name="Pfad 438" d="M422.3,191.423c1.438.667,2.8-.064,4.221-.256a2.73,2.73,0,0,0,1.116-.367,1.494,1.494,0,0,1,.4-.274c.411-.074.873-.918,1.019-1.254a2.144,2.144,0,0,0-.011-1.651c-.91-.8-.6-1.907-.921-2.952-.327-1.06-1.715-.987-2.556-1.351a2.623,2.623,0,0,0-2.2-.219,4.378,4.378,0,0,0-2.908,3.6C420.263,188.462,420.551,190.61,422.3,191.423Zm0,0" transform="translate(-202.345 -132.415)" fill="#5ba2da" fill-rule="evenodd"/>
    <path id="Pfad_439" data-name="Pfad 439" d="M280.362,216.564c1.551.673,3.269-.771,4.61-1.327,1.311-.544.076-2.4-.319-3.2-.232-.464-.459-.929-.67-1.4-.338-.752-.969-1.069-1.6-1.538a3.452,3.452,0,0,1-.538-.931c-.188-.382-.488-.952-1.006-.952a1.32,1.32,0,0,0-1.052.586,9.564,9.564,0,0,1-1.974,2.1,2.62,2.62,0,0,0-.654,1.67c0,2.026,1.232,3.116,2.525,4.448A1.8,1.8,0,0,0,280.362,216.564Zm0,0" transform="translate(-155.85 -140.296)" fill="#5ba2da" fill-rule="evenodd"/>
    <path id="Pfad_440" data-name="Pfad 440" d="M99.215,349.057c1.069.815,2.287-.169,3.306-.448,1.464-.407,1.691-2.486,1.855-3.681,0-2.335-2.926-3.068-4.659-3.58-1.153.116-1.314,1.319-1.72,2.229A4.5,4.5,0,0,0,99.215,349.057Zm0,0" transform="translate(-97.557 -183.831)" fill="#5ba2da" fill-rule="evenodd"/>
    <path id="Pfad_441" data-name="Pfad 441" d="M467.035,211.764a2.226,2.226,0,0,0,2.556-.371,6.251,6.251,0,0,0,.739-1.185,4.844,4.844,0,0,1,.742-1.143,7.835,7.835,0,0,0,.348-1.335,1.637,1.637,0,0,0-.763-1.63,3.57,3.57,0,0,1-1.045-1.7c-.981-.715-2.094.754-2.949,1.185a3.9,3.9,0,0,0-1.968,2.981c-.134,1.428,1.121,2.673,2.343,3.2Zm0,0" transform="translate(-216.717 -139.317)" fill="#5ba2da" fill-rule="evenodd"/>
    <path id="Pfad_442" data-name="Pfad 442" d="M299.1,175.832a2.189,2.189,0,0,0,3-1.087c.6-1.388-.113-2.267-.833-3.346a4.361,4.361,0,0,0-2.011-2.007,1.752,1.752,0,0,0-2.432,1.084c-.311,1.045-.773,2.607-.412,3.678C296.75,175.138,298.24,175.444,299.1,175.832Zm0,0" transform="translate(-162.059 -127.966)" fill="#5ba2da" fill-rule="evenodd"/>
    <path id="Pfad_443" data-name="Pfad 443" d="M407.522,145.463l.876.282.462.039c.933.079,1.425-.665,1.741-1.409a5.611,5.611,0,0,0,.129-4.182,2.184,2.184,0,0,0-1.7-.3,2.25,2.25,0,0,1-1.417-.2c-1.019-.473-2.192-.272-2.277,1.005a12.947,12.947,0,0,0,.5,3.554l.324.5A3.654,3.654,0,0,0,407.522,145.463Zm0,0" transform="translate(-197.451 -118.303)" fill="#5ba2da" fill-rule="evenodd"/>
    <path id="Pfad_444" data-name="Pfad 444" d="M687.6,230.981c1.034.789,1.818-.559,2.725-.915a2.244,2.244,0,0,0,1.235-1.177c.454-1.047.926-2.952-.448-3.408-.987-.328-2.359-.76-3.364-.338-1.168.493-1.158,1.474-1.274,2.7a9.505,9.505,0,0,0-.058,1.847A2.94,2.94,0,0,0,687.6,230.981Zm0,0" transform="translate(-288.678 -146.057)" fill="#5ba2da" fill-rule="evenodd"/>
    <path id="Pfad_445" data-name="Pfad 445" d="M328.663,182.179c.8.348,1.454-.272,2.167-.6a3.369,3.369,0,0,0,1.58-4.047c-.472-1.4-2.677-1-3.72-.565-1.412.6-2.7,2.361-1.53,3.8.2.251.266.351.285.454C327.508,181.59,328.373,182.052,328.663,182.179Zm0,0" transform="translate(-171.932 -130.345)" fill="#5ba2da" fill-rule="evenodd"/>
    <path id="Pfad_446" data-name="Pfad 446" d="M614.521,207.913c.926.7,1.946-.269,2.828-.623a1.659,1.659,0,0,0,.486-2.615,1.64,1.64,0,0,1-.274-.4c-.169-.981-1.649-1.4-2.417-1.4a2.649,2.649,0,0,0-2.263,1.364C612.244,205.7,613.445,207.09,614.521,207.913Zm0,0" transform="translate(-264.76 -138.885)" fill="#5ba2da" fill-rule="evenodd"/>
    <path id="Pfad_447" data-name="Pfad 447" d="M579.276,675.472c.419.409,1.071.871,1.683.612,1.665-.7.288-3.108.409-4.43a3.289,3.289,0,0,0-.053-1.114c-.33-.757-1.346-.248-1.891-.06a2.555,2.555,0,0,0-.942,3.941,1.1,1.1,0,0,1,.293.565Zm0,0" transform="translate(-253.472 -290.548)" fill="#5ba2da" fill-rule="evenodd"/>
    <path id="Pfad_448" data-name="Pfad 448" d="M450.92,226.674c.746.544,2.338.161,3.124-.169a3.865,3.865,0,0,1,1.63-.971.882.882,0,0,0,.068-1.7,5.171,5.171,0,0,0-4.791.482A1.716,1.716,0,0,0,450.92,226.674Zm0,0" transform="translate(-212.103 -145.57)" fill="#5ba2da" fill-rule="evenodd"/>
    <path id="Pfad_449" data-name="Pfad 449" d="M617.787,232.123c.886.741,1.686-.372,2.226-.929a4.632,4.632,0,0,0,.942-1.238c.24-.986-.894-2.036-1.813-2.121a1.665,1.665,0,0,0-1.728,1.206C617.1,229.772,617.106,231.559,617.787,232.123Zm0,0" transform="translate(-266.224 -146.985)" fill="#5ba2da" fill-rule="evenodd"/>
    <path id="Pfad_450" data-name="Pfad 450" d="M207.509,160.484a1.559,1.559,0,0,0,2.238-1.5c.042-.686,0-2.176-.942-2.324a2.589,2.589,0,0,0-2.511,1.449A1.926,1.926,0,0,0,207.509,160.484Zm0,0" transform="translate(-132.811 -123.879)" fill="#5ba2da" fill-rule="evenodd"/>
    <path id="Pfad_451" data-name="Pfad 451" d="M315.134,247.261a1.837,1.837,0,0,0,2.675-1.816c0-1.749-2.833-1.586-3.625-.5C313.556,245.809,314.3,246.875,315.134,247.261Zm0,0" transform="translate(-167.793 -152.276)" fill="#5ba2da" fill-rule="evenodd"/>
    <path id="Pfad_452" data-name="Pfad 452" d="M690.595,483.141c.351.536,1.38.277,1.783-.034.541-1.3-.42-2.253-1.319-3-.346-.287-1.942-1.018-1.942.013C689.117,481.138,690.059,482.318,690.595,483.141Zm0,0" transform="translate(-289.562 -228.701)" fill="#5ba2da" fill-rule="evenodd"/>
    <path id="Pfad_453" data-name="Pfad 453" d="M588.568,664.075c.694.615,2.23.519,2.428-.559.169-.916-1.137-2.124-1.9-2.383-.438-.15-.652.074-.969.325C587.36,662.072,588.009,663.576,588.568,664.075Zm0,0" transform="translate(-256.669 -287.61)" fill="#5ba2da" fill-rule="evenodd"/>
    <path id="Pfad_454" data-name="Pfad 454" d="M442.232,688.567c.6.5,2.09.54,2.427-.275.274-.662-.137-1.24-.478-1.8-.343-.3-1.274-1.049-1.781-.662A1.813,1.813,0,0,0,442.232,688.567Zm0,0" transform="translate(-209.251 -295.606)" fill="#5ba2da" fill-rule="evenodd"/>
    <path id="Pfad_455" data-name="Pfad 455" d="M143.11,381.138c.641.594,1.739.18,2.427-.1.879-.359,1.538-1.293.546-2.016-1.06-.77-1.92.174-2.667.855C143.068,380.2,142.669,380.729,143.11,381.138Zm0,0" transform="translate(-112.279 -195.966)" fill="#5ba2da" fill-rule="evenodd"/>
    <path id="Pfad_456" data-name="Pfad 456" d="M704.468,567.526c.67.594,1.208.462,1.435-.3a2.18,2.18,0,0,0-.665-2.129c-.475-.375-.81-.1-1.2.214C703.32,565.9,703.956,567.07,704.468,567.526Zm0,0" transform="translate(-294.301 -256.398)" fill="#5ba2da" fill-rule="evenodd"/>
    <path id="Pfad_457" data-name="Pfad 457" d="M696.168,468c.865.823,1.9.047,1.242-.966C696.734,465.987,695.223,467.1,696.168,468Zm0,0" transform="translate(-291.753 -224.488)" fill="#5ba2da" fill-rule="evenodd"/>
    <path id="Pfad_458" data-name="Pfad 458" d="M436.878,674.355a.705.705,0,0,0,1.113.058c.317-.448.388-1.528-.306-1.7C436.8,672.492,436.579,673.759,436.878,674.355Zm0,0" transform="translate(-207.651 -291.376)" fill="#5ba2da" fill-rule="evenodd"/>
    <path id="Pfad_459" data-name="Pfad 459" d="M369.234,247.861c6.071-12.822,24.957-15.859,37.774-13.835,14.5,2.364,29.339,18.9,31.7,33.072,1.011,7.084,2.024,15.184-2.024,21.595-3.372,5.4-12.48,10.8-8.095,18.561,4.047,7.084,15.176,8.1,21.247,12.484,7.42,5.4,16.862,13.5,19.9,22.271,1.351,4.05,2.361,8.437,1.351,12.15-.338,3.712-2.361,7.087-2.7,10.8-.338,10.124,11.129,10.462,14.166,18.561,4.045,11.471-12.48,9.786-9.443,19.909,1.686,4.726,4.383,7.425.673,12.148-2.7,3.374-7.757,5.063-12.139,4.725-13.49-1.351-18.213-16.535-17.875-28.009" transform="translate(-185.736 -148.811)" fill="#000746"/>
    <path id="Pfad_460" data-name="Pfad 460" d="M366.944,369.113c-20.571,3.037-21.922,23.957-36.422,34.755-6.409,4.725-15.514,6.412-19.223,14.174-3.709,7.424,3.034,14.511,3.709,21.932,1.013,8.1-8.43,15.187-13.49,20.585-6.068,6.411-11.8,10.461-7.419,19.234,8.77,16.872,29.341,24.3,47.214,27a82.912,82.912,0,0,0,34.062-2.361c11.8-3.374,16.189-9.786,20.571-20.922,7.422-19.572,14.166-40.157,23.608-58.377,3.034-5.738,7.757-11.812,8.768-17.886,1.351-8.1-2.359-19.571-7.419-25.644-5.058-5.738-9.1-10.8-15.849-14.512a44.49,44.49,0,0,0-14.838-4.388Zm0,0" transform="translate(-160.848 -190.761)" fill="#0961b9"/>
    <path id="Pfad_461" data-name="Pfad 461" d="M285.873,419.6c-3.045-4.327-25.727-32.4-25.495-34.674s10.4-12.033,13.867-10.442,28.368,35.979,27.936,38.7S288.918,423.925,285.873,419.6Zm0,0" transform="translate(-150.404 -194.528)" fill="#f9efe3"/>
    <path id="Pfad_462" data-name="Pfad 462" d="M409.73,321.178c.517-6.53.721-12.6,4.253-21.136,2.148-5.2,1.845-3.488,7.351-12.822s-9.424-49.894-44.425-36.1c-.1.037-.192.061-.29.09-14.432,4.517-16.743,17.054-14.149,32.473,1.543,9.182-4.7,13.477-4.124,16.64s5.01,1.491,7.1,6.876,7.374,15.521,11.419,15.878c1.807.158,3.752.538,11.609-2.945,4.021,9.084-5.089,17.273-4.483,19.83.807,3.406,13.3-4.517,19.587-8.469S409.213,327.708,409.73,321.178Zm0,0" transform="translate(-182.19 -153.626)" fill="#f38c7f"/>
    <g id="Gruppe_75" data-name="Gruppe 75" transform="translate(194.822 135.668)">
      <g id="Gruppe_74" data-name="Gruppe 74" transform="translate(0 0)" clip-path="url(#clip-path-3)">
        <path id="Pfad_463" data-name="Pfad 463" d="M2.378,16.184c2.216,4.047,8.319,4.675,11.907,1.343,4.124-3.828,5.369-12.205.952-15.208C6.979-3.3-.844,11.232,2.378,16.184Zm0,0" transform="translate(-1.207 -1.016)" fill="#5ba2da"/>
      </g>
    </g>
    <path id="Pfad_465" data-name="Pfad 465" d="M372.207,306.522c.876,5.131,8.994,1.968,11.1-.538a.359.359,0,0,0-.156-.594c-1.5-.325-3.06.628-4.379,1.229a9.129,9.129,0,0,1-3.1.905c-1.129.079-1.818-.8-2.475-1.581C372.777,305.443,372.12,306,372.207,306.522Zm0,0" transform="translate(-186.699 -172.139)" fill="#000746"/>
    <path id="Pfad_466" data-name="Pfad 466" d="M377.02,339.009c1.554-.345,6.126-.889,5.767-3.316a.382.382,0,0,0-.467-.266,2.46,2.46,0,0,0-1.019.6,6.36,6.36,0,0,1-1.6.837c-.987.372-2.022.588-3.006.971A.609.609,0,0,0,377.02,339.009Zm0,0" transform="translate(-188.021 -181.907)" fill="#000746"/>
    <path id="Pfad_467" data-name="Pfad 467" d="M434.626,303.938a5.333,5.333,0,0,1,1.957-2.271c1.428-.826,1.773,1.907,1.57,2.744a10.25,10.25,0,0,1-2.259,3.68,10.006,10.006,0,0,0-1.823,2.546c-.074.209.166.47.38.38,1.528-.631,2.81-2.465,3.752-3.765a5.552,5.552,0,0,0,1.108-5.153,2.4,2.4,0,0,0-2.789-1.865c-1.546.272-2.472,1.963-2.762,3.337C433.652,304.075,434.378,304.441,434.626,303.938Zm0,0" transform="translate(-206.677 -170.473)" fill="#5ba2da"/>
    <path id="Pfad_468" data-name="Pfad 468" d="M407.6,346.888c5.023-3.189,10.229-6.688,13.8-11.548.193-.261-.2-.483-.409-.317-4.662,3.614-9.295,7.264-13.978,10.854C406.43,346.321,406.945,347.3,407.6,346.888Zm0,0" transform="translate(-197.915 -181.76)" fill="#5ba2da"/>
    <path id="Pfad_469" data-name="Pfad 469" d="M378.9,311.04c.4-1.976-1.9-3.042-3.461-2.261a.847.847,0,0,0-.53.074,1.842,1.842,0,0,0-1.079,2.079,1.991,1.991,0,0,0,.109.274,2.132,2.132,0,0,0,2.248,1.678,1.59,1.59,0,0,0,.781-.208A2.11,2.11,0,0,0,378.9,311.04Zm0,0" transform="translate(-187.213 -173.177)" fill="#000746"/>
    <path id="Pfad_470" data-name="Pfad 470" d="M303.769,420.669c-1.475,2.208-6.49.5-8.377-.783-2.206-1.507-4-4.2-5.7-6.192-2.129-2.5-8.548-8.063-9.422-7.461s2.987,5.382,3.636,8.15c.43,1.828-.6,1.845-1.15,3.6a6.392,6.392,0,0,0,.544,4.4c.665,1.567,1.377,2.256,1.1,4.015-.232,1.483-1.06,2.829-.483,4.441.763,2.115,3.676,3.688,5.19,5.287,3.95,4.179,12.366,3.744,15.15,8.772s7.662,20.817,10.487,27.072c3.776,8.367,20.693-4.034,17.223-11.063s-11.474-20.717-14.2-26.529c-1.254-2.673-4.019-14.364-5.676-17.2-2.374-4.061-10.028-12.709-12.611-10.453C297.524,408.44,305.8,417.63,303.769,420.669Zm0,0" transform="translate(-156.818 -204.876)" fill="#f38c7f"/>
    <path id="Pfad_471" data-name="Pfad 471" d="M386.031,442.366c-.127.147-.256.292-.39.438-4.19,4.469-11.852,5.778-17.633,6.775-9.78,1.686-21.247-2.7-30.352,1.348-23.606,11.137-15.176,40.832-1.011,55.681,7.42,7.762,19.9,7.762,30.015,8.1,11.8.338,24.281-3.709,35.075-8.435,9.1-4.388,18.548-9.786,25.629-17.211,6.746-7.424,9.1-19.571,11.129-29.357,1.686-8.776,1.348-17.548,1.348-26.658,0-8.1,1.013-18.9-3.035-26.321-10.118-17.21-30.689-7.424-39.457,5.4-3.026,4.644-4.778,10-6.371,15.266C389.45,432.421,389.534,438.223,386.031,442.366Zm0,0" transform="translate(-170.682 -202.051)" fill="#0961b9"/>
    <path id="Pfad_472" data-name="Pfad 472" d="M422.945,257.642c-6.071-10.123-13.152-16.534-24.619-18.223-5.4-.675-22.656-2.425-30.075,3.314s-9.382,6.134-11.068,11.2c-.675,2.7,0,6.073-1.351,8.435-1.348,3.037-5.058,4.388-6.071,7.424,6.746,4.388,11.8-2.024,16.526-5.4,1.011,1.348.673,3.712,0,5.4,5.734,3.037,10.453-6.749,12.139-10.462a10.455,10.455,0,0,1,1.443-2.1l.105.079c-1.029,2.6-2.013,5.316-.937,7.9,1.932,4.641,6.483,3.691,9.7,6.369a4.74,4.74,0,0,1,1.583,2.715,44.281,44.281,0,0,0,3.2,6.068,30.734,30.734,0,0,0,6.649,6.52c4.717,3.788,9.355,7.989,11.458,13.822.156.43-.272.678-.62.588,1.6,2.541,3.185,4.092,6.2-.116C426.654,288.013,431.713,272.826,422.945,257.642Zm0,0" transform="translate(-179.416 -150.493)" fill="#000746"/>
    <path id="Pfad_473" data-name="Pfad 473" d="M415.385,298.427c4.047,5.063-3.709,8.775-3.709,13.835s4.723,4.725,5.4,9.113c.335,2.361-3.374,7.759-1.688,9.786,2.7,2.361,7.422-4.725,8.094-6.749,1.686-4.05-.338-6.076-.673-9.789-1.013-5.06,3.034-4.723,6.406-7.759,1.686-2.026,4.047-6.749,2.361-9.11h-.338" transform="translate(-199.512 -169.682)" fill="#000746"/>
    <path id="Pfad_474" data-name="Pfad 474" d="M368.461,296c2.019.04,3.99-.177,6-.269,2.433-.111,4.092,1.055,6.248,1.862a.867.867,0,0,0,.974-1.266c-3.079-4.24-9.164-2.364-13.377-1.477C367.64,294.988,367.817,295.985,368.461,296Zm0,0" transform="translate(-185.298 -168.353)" fill="#000746"/>
    <path id="Pfad_475" data-name="Pfad 475" d="M431.223,237.109c6.234.443,11.176,5.849,15.078,10.221,3.944,4.417,7.915,8.926,11.471,13.656,4.18,5.559,7.9,12.295,6.829,19.482-.742,4.979-4.082,8.155-8.005,10.883-5.037,3.5-13.569,7.488-12.231,15.007,1.928,10.836,13.387,13.488,22.558,15.179,5.654,1.04,10.986,2.129,16.049,4.989a25,25,0,0,1,11.448,13.158c2.143,5.9,1.219,11.224-1.256,16.8-1.7,3.831-3.715,7.7-3.018,12.018.818,5.058,5.815,8.105,9.986,10.171,2.578,1.279,5.077,2.607,6.791,5,1.657,2.314,2.488,6.295.594,8.7-2.973,3.768-9.264,2.723-13.168,4.912-4.446,2.5-4.942,9.435-3.565,13.73a7.756,7.756,0,0,0,.966,1.881c.559.847,1.929.058,1.364-.8-2.084-3.161-1.734-7.57-.182-10.87,1.24-2.641,3.755-3.34,6.377-3.863,3.63-.725,9.145-1.657,10.477-5.8,1.383-4.3-.907-9.237-4.453-11.754-4.723-3.351-11.224-4.646-13.406-10.714-1.644-4.575,1.712-9.6,3.383-13.662a21.975,21.975,0,0,0,1.018-14.87c-2.8-10.35-12.569-16.909-22.537-19.239s-24.484-2.393-27.79-14.451c-2.214-8.065,9.234-12.427,14.118-16.421a15.444,15.444,0,0,0,5.892-10.569C466.6,273.7,464,268.046,460.662,263c-3.185-4.812-7.19-9.01-10.934-13.374-3.654-4.259-7.48-8.614-12.414-11.409a12.2,12.2,0,0,0-6.092-1.617A.253.253,0,0,0,431.223,237.109Zm0,0" transform="translate(-205.777 -149.833)" fill="#000746"/>
    <path id="Pfad_476" data-name="Pfad 476" d="M440.979,271.453c4.388,6.21-.671,15.943-6.185,19.566-2.53,1.659-5.329,2.773-7.693,4.694a35.5,35.5,0,0,0-3.475,3.435c-.81.873-2.074,1.78-2.548,2.881a.4.4,0,0,0,.446.581c1.092-.211,1.841-1.335,2.559-2.111a38.352,38.352,0,0,1,4.912-4.71c3.027-2.282,6.631-3.467,9.4-6.163,4.314-4.206,7.153-13.35,2.9-18.416C441.145,271.041,440.847,271.268,440.979,271.453Zm0,0" transform="translate(-202.55 -161.047)" fill="#5ba2da"/>
    <path id="Pfad_477" data-name="Pfad 477" d="M430.2,272.207c2.346,3.915-2.153,5.018-3.971,7.69-1.124,1.655-1.712,5.314.8,6.053,2.369.7,4.794-2.435,5.588-4.221a7.529,7.529,0,0,0-2.625-9.319c-.206-.147-.4.13-.314.314.675,1.438,1.794,2.6,2.346,4.1a6.767,6.767,0,0,1-.671,5.092,6.692,6.692,0,0,1-2.77,2.764c-1.987,1.071-2.446-1.177-2.2-2.712.372-2.361,3.1-3.586,4.5-5.28,1.277-1.549.744-3.192-.319-4.691C430.408,271.787,430.065,271.975,430.2,272.207Zm0,0" transform="translate(-203.923 -161.292)" fill="#0961b9"/>
    <path id="Pfad_478" data-name="Pfad 478" d="M408.221,251.6c-5.129,7.463,1.34,14.893,4.382,21.737.269.61,1.208.169,1.048-.44-.834-3.114-2.776-5.871-4.293-8.678a12.713,12.713,0,0,1-.488-12.239A.376.376,0,0,0,408.221,251.6Zm0,0" transform="translate(-197.769 -154.642)" fill="#5ba2da"/>
    <path id="Pfad_479" data-name="Pfad 479" d="M386.183,256.293c-.514,2.1-2.015,4-3.319,5.662s-3.232,3.087-4.232,4.923a.21.21,0,0,0,.237.306c1.968-.63,3.583-3.06,4.768-4.63,1.245-1.647,3.227-3.974,2.989-6.2C386.6,256.116,386.25,256.029,386.183,256.293Zm0,0" transform="translate(-188.779 -156.172)" fill="#5ba2da"/>
    <path id="Pfad_480" data-name="Pfad 480" d="M374.1,259.17a19.523,19.523,0,0,0-2.984,5.155c-.071.217.209.343.359.209,1.443-1.3,2.2-3.4,3.143-5.06C374.811,259.128,374.32,258.867,374.1,259.17Zm0,0" transform="translate(-186.342 -157.115)" fill="#0961b9"/>
    <path id="Pfad_481" data-name="Pfad 481" d="M453.193,346.1c-1.7,10.153,13.028,12.733,19.561,15.8a25.661,25.661,0,0,1,11.261,9.606,29.019,29.019,0,0,1,3.736,17.2c-.5,5.776-3.554,12.416-1.095,18.118,1.741,4.034,6.77,6.013,7.915,10.329.35,1.319-.336,3.034-.721,4.277-.612,1.986-1.38,3.926-2.087,5.881-1.166,3.232-2.7,7.07-2.166,10.583a4.834,4.834,0,0,0,4.942,4.345.374.374,0,0,0,.1-.731c-4.533-1.362-4.237-5.187-3.221-9.1s2.744-7.578,3.894-11.44c1.037-3.488.238-5.633-2.166-8.411-1.388-1.6-3.142-2.836-4.411-4.551-2.079-2.812-1.8-6.678-1.319-9.942.461-3.135,1.25-6.2,1.614-9.353a29.254,29.254,0,0,0-.7-9.445,26,26,0,0,0-5.923-12c-3.1-3.485-7.327-5.767-11.578-7.532-4.926-2.042-10.1-3.092-14.136-6.839a8.4,8.4,0,0,1-2.739-6.688C453.971,345.775,453.264,345.669,453.193,346.1Zm0,0" transform="translate(-212.943 -185.285)" fill="#0961b9"/>
    <g id="Gruppe_76" data-name="Gruppe 76" transform="translate(173.884 83.188)" clip-path="url(#clip-path-4)">
      <path id="Pfad_482" data-name="Pfad 482" d="M391.312,234.971c-4.042-3-9.3-3.506-14.179-3.279-4.667.219-9.9,1.385-13.651,4.327-4.227,3.311-5.5,8.148-5.451,13.329.035,3.515,2.461,11.382-1.895,12.826-.364.121-.435.725,0,.81,3.578.684,3.8-4,3.7-6.414-.206-4.815-1.147-9.477.446-14.195,1.947-5.762,8.174-8.163,13.646-9.139s12.314-.934,17.068,2.282C391.336,235.75,391.631,235.209,391.312,234.971Zm0,0" transform="translate(-355.272 -231.413)" fill="#000746"/>
    </g>
    <path id="Pfad_484" data-name="Pfad 484" d="M413.4,422.571c-3.306,5.651-4.72,12.071-7.8,17.817a21.437,21.437,0,0,1-17.181,10.947c-6.609.588-13.287-.457-19.909-.37-4.446.058-11.047.47-13.506,4.886a.516.516,0,0,0,.807.623c4.488-4.536,11.129-4.311,17.089-4.126,6.224.2,12.651,1.081,18.819-.156a22.387,22.387,0,0,0,14.667-10.677c3.4-5.8,4.541-12.651,7.461-18.68C414,422.537,413.571,422.278,413.4,422.571Zm0,0" transform="translate(-181.097 -210.153)" fill="#5ba2da"/>
    <path id="Pfad_485" data-name="Pfad 485" d="M324.522,504.318a39.235,39.235,0,0,0,1.57,27.328c3.646,8.227,11.611,16.091,20.946,16.988.256.024.256-.332.055-.411-4.4-1.757-8.479-3.422-12.142-6.535a30.889,30.889,0,0,1-7.815-10.651,40.664,40.664,0,0,1-2.1-26.577A.268.268,0,0,0,324.522,504.318Zm0,0" transform="translate(-170.662 -236.666)" fill="#5ba2da"/>
    <path id="Pfad_486" data-name="Pfad 486" d="M438.4,496.534c1.412,2.688,1.757,5.261,2.148,8.245a11.757,11.757,0,0,0,2.174,6.179c2.019,2.419,4.958,3.517,7.907,2.245,3.47-1.493,8.889-10.505,3.533-12.807a.623.623,0,0,0-.923.531c-.113,3.741,2.667,5.69,6.163,4.342a7.859,7.859,0,0,0,4.4-10c-.129-.351-.752-.33-.7.095.414,3.24-.288,6.3-3.129,8.227-2.7,1.828-5.614.786-5.514-2.659-.309.176-.615.353-.923.53,2.145.918,1.5,3.73.894,5.461-.86,2.454-2.8,4.857-5.366,5.567-3.9,1.079-6.512-3.366-7.169-6.461-.686-3.233-.338-7.448-3-9.878A.321.321,0,0,0,438.4,496.534Zm0,0" transform="translate(-208.173 -233.709)" fill="#5ba2da"/>
    <path id="Pfad_487" data-name="Pfad 487" d="M388.29,384.79c-.232,1.168.246,2.432.3,3.6a.438.438,0,0,0,.43.43c5.572.523,11.018-1.393,15.949-3.823,4.836-2.385,10.683-5.778,14.1-10.076.182-.23-.053-.63-.341-.44-2.372,1.57-4.475,3.567-6.8,5.216a58.8,58.8,0,0,1-8.87,5.164,33.611,33.611,0,0,1-9.873,3.021c-.338.045-3.742.382-3.768.021a10.758,10.758,0,0,0-.68-3.116C388.656,384.6,388.34,384.541,388.29,384.79Zm0,0" transform="translate(-191.901 -194.57)" fill="#5ba2da"/>
    <path id="Pfad_488" data-name="Pfad 488" d="M278.2,378.3c4.293,5.139,8.322,10.54,12.174,16.015,3.218,4.575,5.9,9.59,9.3,14.031a.284.284,0,0,0,.49-.288c-2.253-5.3-6.031-10.195-9.326-14.883a144.99,144.99,0,0,0-12.2-15.305C278.359,377.581,277.949,378.006,278.2,378.3Zm0,0" transform="translate(-156.163 -195.655)" fill="#5ba2da"/>
    <path id="Pfad_489" data-name="Pfad 489" d="M352.983,446.384A12.966,12.966,0,0,1,358.5,439.7c2.124-1.433,4.594-2,6.783-3.222a.429.429,0,0,0-.216-.794c-2.942-.217-6.256,1.849-8.509,3.53a11.228,11.228,0,0,0-4.694,6.865A.578.578,0,0,0,352.983,446.384Zm0,0" transform="translate(-180.097 -214.444)" fill="#5ba2da"/>
    <path id="Pfad_490" data-name="Pfad 490" d="M443.5,400.2c2.047-2.776,3.826-5.749,6.084-8.364,2.95-3.417,6.317-4.14,10.358-5.514.462-.156.575-.96,0-1.053-8.512-1.348-14.081,8.121-17.234,14.469A.459.459,0,0,0,443.5,400.2Zm0,0" transform="translate(-209.565 -198.044)" fill="#5ba2da"/>
    <path id="Pfad_491" data-name="Pfad 491" d="M325.991,415.311c1.855-5.364,11.844-6.277,16.624-7.39,4.213-.984,6.169-3.691,7.831-7.538,2.14-4.955,3.9-10.237,7.469-14.4,4.145-4.842,10.332-4.862,16.142-5.628a.618.618,0,0,0,0-1.235c-12.008-1.269-18.769,5.517-23.073,15.86-1.472,3.532-2.494,8.028-5.739,10.368-2.311,1.668-6.113,1.884-8.8,2.585-3.852,1-10.561,2.459-11.442,7.1A.515.515,0,0,0,325.991,415.311Zm0,0" transform="translate(-171.375 -196.044)" fill="#0961b9"/>
    <path id="Pfad_492" data-name="Pfad 492" d="M417.879,523.609c13.926-8.274,36.682-3.266,46.935-17.618,2.213-3.1,2.76-7.082,2.685-10.786-.063-3.333-.889-6.559-.81-9.915.1-4.256,1.736-8.411,3.137-12.368,2.071-5.847,4.4-12.232,4.8-18.463.378-5.932-6.174-9.514-9.216-13.709-.525-.725-1.921-.317-1.56.659,2.092,5.636,8.923,7.559,8.551,14.311-.356,6.461-3.409,13.406-5.472,19.466a33.789,33.789,0,0,0-1.662,16.867c.8,4.96.292,10.023-2.876,14.076-5.029,6.424-14.876,7.957-22.35,9.5-7.667,1.583-16.052,2.6-22.664,7.124C416.853,523.108,417.32,523.942,417.879,523.609Zm0,0" transform="translate(-201.288 -215.974)" fill="#0961b9"/>
  </g>
</svg>
